<svg xmlns="http://www.w3.org/2000/svg" xmlns:xlink="http://www.w3.org/1999/xlink" width="1460" height="733.01"><rect width="1460" height="733.01" rx="5" ry="5" class="a"/><svg y="0%" x="0%"><circle cx="20" cy="20" r="6" fill="#ff5f58"/><circle cx="40" cy="20" r="6" fill="#ffbd2e"/><circle cx="60" cy="20" r="6" fill="#18c132"/></svg><svg height="673.01" viewBox="0 0 142 67.301" width="1420" x="15" xmlns="http://www.w3.org/2000/svg" xmlns:xlink="http://www.w3.org/1999/xlink" y="50"><style>@keyframes r{0%{transform:translateX(-284px)}.4%{transform:translateX(-426px)}.7%{transform:translateX(-568px)}.8%{transform:translateX(-710px)}2.5%{transform:translateX(-994px)}2.6%{transform:translateX(-1278px)}3.4%{transform:translateX(-1420px)}90.9%{transform:translateX(-1562px)}93.1%{transform:translateX(-1704px)}97.3%{transform:translateX(-1846px)}98.3%{transform:translateX(-1988px)}to{transform:translateX(-2272px)}}.a{fill:#fff}.f,.g{fill:#000;white-space:pre}.g{fill:#492ee1;font-weight:700}.h,.i,.k,.l{fill:#cbcccd;white-space:pre}.i,.k,.l{fill:#25bc24;font-weight:700}.k,.l{fill:#000}.l{fill:#cbcccd}.m{fill:#e88388}.n{fill:#c23621}.n,.o,.p{white-space:pre}.o{fill:#492ee1;text-decoration:underline}.p{fill:#c23621;font-weight:700}</style><g font-family="Monaco,Consolas,Menlo,'Bitstream Vera Sans Mono','Powerline Symbols',monospace" font-size="1.67"><defs><symbol id="1"><text y="1.67" class="f">bash-3.2$</text><text x="10.02" y="1.67" class="f">yarn</text><text x="15.03" y="1.67" class="f">run</text><text x="19.038" y="1.67" class="f">compare</text><text x="27.054" y="1.67" class="f">--from</text><text x="34.068" y="1.67" class="f">main-openapi.yaml</text><text x="52.104" y="1.67" class="f">--to</text><text x="57.114" y="1.67" class="f">openapi.yaml</text></symbol><symbol id="2"><text y="1.67" class="g">Loading</text><text x="8.016" y="1.67" class="g">specifications</text><text x="23.046" y="1.67" class="g">for</text><text x="27.054" y="1.67" class="g">comparison:</text></symbol><symbol id="3"><text y="1.67" class="h">Current</text><text x="8.016" y="1.67" class="h">specification:</text><text x="23.046" y="1.67" class="i">loading...</text></symbol><symbol id="4"><text y="1.67" class="h">Next</text><text x="5.01" y="1.67" class="h">specification:</text><text x="20.04" y="1.67" class="i">loading...</text></symbol><symbol id="5"><text y="1.67" class="h">Current</text><text x="8.016" y="1.67" class="h">specification:</text><text x="23.046" y="1.67" class="i">done</text></symbol><symbol id="6"><text y="1.67" class="h">Next</text><text x="5.01" y="1.67" class="h">specification:</text><text x="20.04" y="1.67" class="i">done</text></symbol><symbol id="7"><path fill="#a8cc8c" d="M1.002 0h6v2.171h-6z"/><text x="1.002" y="1.67" class="k">PASS</text><text x="8.016" y="1.67" class="l">GET</text><text x="12.024" y="1.67" class="h">/pet/findByStatus</text></symbol><symbol id="8"><path class="m" d="M1.002 0h6v2.171h-6z"/><text x="1.002" y="1.67" class="k">FAIL</text><text x="8.016" y="1.67" class="l">POST</text><text x="13.026" y="1.67" class="h">/pet</text></symbol><symbol id="9"><text x="2.004" y="1.67" class="n">x</text><text x="4.008" y="1.67" class="f">added</text><text x="10.02" y="1.67" class="f">field:</text><text x="17.034" y="1.67" class="f">petWeight</text><text x="27.054" y="1.67" class="f">must</text><text x="32.064" y="1.67" class="f">not</text><text x="36.072" y="1.67" class="f">be</text><text x="39.078" y="1.67" class="f">required</text></symbol><symbol id="10"><text x="4.008" y="1.67" class="n">expected</text><text x="13.026" y="1.67" class="n">true</text><text x="18.036" y="1.67" class="n">to</text><text x="21.042" y="1.67" class="n">be</text><text x="24.048" y="1.67" class="n">false</text></symbol><symbol id="11"><text x="4.008" y="1.67" class="o">at</text><text x="7.014" y="1.67" class="o">(/Users/aidancunniffe/Developer/openapi-optic/monorail/projects/openapi-workspaces/projects/standard-rules/openapi.yaml:206:4879)</text></symbol><symbol id="12"><path class="m" d="M1.002 0h6v2.171h-6z"/><text x="1.002" y="1.67" class="k">FAIL</text><text x="8.016" y="1.67" class="l">PUT</text><text x="12.024" y="1.67" class="h">/pet</text></symbol><symbol id="13"><text y="1.67" class="i">133</text><text x="4.008" y="1.67" class="i">checks</text><text x="11.022" y="1.67" class="i">passed</text></symbol><symbol id="14"><text y="1.67" class="p">2</text><text x="2.004" y="1.67" class="p">checks</text><text x="9.018" y="1.67" class="p">failed</text></symbol><symbol id="15"><text y="1.67" class="f">bash-3.2$</text><text x="10.02" y="1.67" class="f">exit</text></symbol><symbol id="a"><path fill="transparent" d="M0 0h142v31H0z"/></symbol></defs><path class="a" d="M0 0h142v67.301H0z"/><g style="animation-duration:12.392431000000002s;animation-iteration-count:infinite;animation-name:r;animation-timing-function:steps(1,end)"><svg width="2414"><svg><use xlink:href="#a"/><use xlink:href="#1"/></svg><svg x="142"><use xlink:href="#a"/><use xlink:href="#1"/><use xlink:href="#2" y="2.171"/><use xlink:href="#3" y="4.342"/><use xlink:href="#4" y="6.513"/></svg><svg x="284"><use xlink:href="#a"/><use xlink:href="#1"/><use xlink:href="#2" y="2.171"/><use xlink:href="#3" y="4.342"/><use xlink:href="#4" y="6.513"/></svg><svg x="426"><use xlink:href="#a"/><use xlink:href="#1"/><use xlink:href="#2" y="2.171"/><use xlink:href="#5" y="4.342"/><use xlink:href="#4" y="6.513"/></svg><svg x="568"><use xlink:href="#a"/><use xlink:href="#1"/><use xlink:href="#2" y="2.171"/><use xlink:href="#5" y="4.342"/><use xlink:href="#6" y="6.513"/><text y="10.354" class="f">running</text><text x="8.016" y="10.354" class="f">rules...</text></svg><svg x="710"><use xlink:href="#a"/><use xlink:href="#1"/><use xlink:href="#2" y="2.171"/><use xlink:href="#5" y="4.342"/><use xlink:href="#6" y="6.513"/><use xlink:href="#7" y="13.026"/><use xlink:href="#8" y="17.368"/><use xlink:href="#9" y="19.539"/><use xlink:href="#10" y="21.71"/><use xlink:href="#11" y="23.881"/><use xlink:href="#12" y="28.223"/><use xlink:href="#9" y="30.394"/><use xlink:href="#10" y="32.565"/><use xlink:href="#11" y="34.736"/><use xlink:href="#13" y="45.591"/><use xlink:href="#14" y="47.762"/></svg><svg x="852"><use xlink:href="#a"/><use xlink:href="#1"/><use xlink:href="#2" y="2.171"/><use xlink:href="#5" y="4.342"/><use xlink:href="#6" y="6.513"/><use xlink:href="#7" y="13.026"/><use xlink:href="#8" y="17.368"/><use xlink:href="#9" y="19.539"/><use xlink:href="#10" y="21.71"/><use xlink:href="#11" y="23.881"/><use xlink:href="#12" y="28.223"/><use xlink:href="#9" y="30.394"/><use xlink:href="#10" y="32.565"/><use xlink:href="#11" y="34.736"/><use xlink:href="#13" y="45.591"/><use xlink:href="#14" y="47.762"/></svg><svg x="994"><use xlink:href="#a"/><use xlink:href="#1"/><use xlink:href="#2" y="2.171"/><use xlink:href="#5" y="4.342"/><use xlink:href="#6" y="6.513"/><use xlink:href="#7" y="13.026"/><use xlink:href="#8" y="17.368"/><use xlink:href="#9" y="19.539"/><use xlink:href="#10" y="21.71"/><use xlink:href="#11" y="23.881"/><use xlink:href="#12" y="28.223"/><use xlink:href="#9" y="30.394"/><use xlink:href="#10" y="32.565"/><use xlink:href="#11" y="34.736"/><use xlink:href="#13" y="45.591"/><use xlink:href="#14" y="47.762"/></svg><svg x="1136"><use xlink:href="#a"/><use xlink:href="#1"/><use xlink:href="#2" y="2.171"/><use xlink:href="#5" y="4.342"/><use xlink:href="#6" y="6.513"/><use xlink:href="#7" y="13.026"/><use xlink:href="#8" y="17.368"/><use xlink:href="#9" y="19.539"/><use xlink:href="#10" y="21.71"/><use xlink:href="#11" y="23.881"/><use xlink:href="#12" y="28.223"/><use xlink:href="#9" y="30.394"/><use xlink:href="#10" y="32.565"/><use xlink:href="#11" y="34.736"/><use xlink:href="#13" y="45.591"/><use xlink:href="#14" y="47.762"/></svg><svg x="1278"><use xlink:href="#a"/><use xlink:href="#1"/><use xlink:href="#2" y="2.171"/><use xlink:href="#5" y="4.342"/><use xlink:href="#6" y="6.513"/><use xlink:href="#7" y="13.026"/><use xlink:href="#8" y="17.368"/><use xlink:href="#9" y="19.539"/><use xlink:href="#10" y="21.71"/><use xlink:href="#11" y="23.881"/><use xlink:href="#12" y="28.223"/><use xlink:href="#9" y="30.394"/><use xlink:href="#10" y="32.565"/><use xlink:href="#11" y="34.736"/><use xlink:href="#13" y="45.591"/><use xlink:href="#14" y="47.762"/></svg><svg x="1420"><use xlink:href="#a"/><use xlink:href="#1"/><use xlink:href="#2" y="2.171"/><use xlink:href="#5" y="4.342"/><use xlink:href="#6" y="6.513"/><use xlink:href="#7" y="13.026"/><use xlink:href="#8" y="17.368"/><use xlink:href="#9" y="19.539"/><use xlink:href="#10" y="21.71"/><use xlink:href="#11" y="23.881"/><use xlink:href="#12" y="28.223"/><use xlink:href="#9" y="30.394"/><use xlink:href="#10" y="32.565"/><use xlink:href="#11" y="34.736"/><use xlink:href="#13" y="45.591"/><use xlink:href="#14" y="47.762"/><text y="55.945" class="f">bash-3.2$</text></svg><svg x="1562"><use xlink:href="#a"/><use xlink:href="#1"/><use xlink:href="#2" y="2.171"/><use xlink:href="#5" y="4.342"/><use xlink:href="#6" y="6.513"/><use xlink:href="#7" y="13.026"/><use xlink:href="#8" y="17.368"/><use xlink:href="#9" y="19.539"/><use xlink:href="#10" y="21.71"/><use xlink:href="#11" y="23.881"/><use xlink:href="#12" y="28.223"/><use xlink:href="#9" y="30.394"/><use xlink:href="#10" y="32.565"/><use xlink:href="#11" y="34.736"/><use xlink:href="#13" y="45.591"/><use xlink:href="#14" y="47.762"/><text y="55.945" class="f">bash-3.2$</text><text x="10.02" y="55.945" class="f">e</text></svg><svg x="1704"><use xlink:href="#a"/><use xlink:href="#1"/><use xlink:href="#2" y="2.171"/><use xlink:href="#5" y="4.342"/><use xlink:href="#6" y="6.513"/><use xlink:href="#7" y="13.026"/><use xlink:href="#8" y="17.368"/><use xlink:href="#9" y="19.539"/><use xlink:href="#10" y="21.71"/><use xlink:href="#11" y="23.881"/><use xlink:href="#12" y="28.223"/><use xlink:href="#9" y="30.394"/><use xlink:href="#10" y="32.565"/><use xlink:href="#11" y="34.736"/><use xlink:href="#13" y="45.591"/><use xlink:href="#14" y="47.762"/><text y="55.945" class="f">bash-3.2$</text><text x="10.02" y="55.945" class="f">ex</text></svg><svg x="1846"><use xlink:href="#a"/><use xlink:href="#1"/><use xlink:href="#2" y="2.171"/><use xlink:href="#5" y="4.342"/><use xlink:href="#6" y="6.513"/><use xlink:href="#7" y="13.026"/><use xlink:href="#8" y="17.368"/><use xlink:href="#9" y="19.539"/><use xlink:href="#10" y="21.71"/><use xlink:href="#11" y="23.881"/><use xlink:href="#12" y="28.223"/><use xlink:href="#9" y="30.394"/><use xlink:href="#10" y="32.565"/><use xlink:href="#11" y="34.736"/><use xlink:href="#13" y="45.591"/><use xlink:href="#14" y="47.762"/><text y="55.945" class="f">bash-3.2$</text><text x="10.02" y="55.945" class="f">exi</text></svg><svg x="1988"><use xlink:href="#a"/><use xlink:href="#1"/><use xlink:href="#2" y="2.171"/><use xlink:href="#5" y="4.342"/><use xlink:href="#6" y="6.513"/><use xlink:href="#7" y="13.026"/><use xlink:href="#8" y="17.368"/><use xlink:href="#9" y="19.539"/><use xlink:href="#10" y="21.71"/><use xlink:href="#11" y="23.881"/><use xlink:href="#12" y="28.223"/><use xlink:href="#9" y="30.394"/><use xlink:href="#10" y="32.565"/><use xlink:href="#11" y="34.736"/><use xlink:href="#13" y="45.591"/><use xlink:href="#14" y="47.762"/><use xlink:href="#15" y="54.275"/></svg><svg x="2130"><use xlink:href="#a"/><use xlink:href="#1"/><use xlink:href="#2" y="2.171"/><use xlink:href="#5" y="4.342"/><use xlink:href="#6" y="6.513"/><use xlink:href="#7" y="13.026"/><use xlink:href="#8" y="17.368"/><use xlink:href="#9" y="19.539"/><use xlink:href="#10" y="21.71"/><use xlink:href="#11" y="23.881"/><use xlink:href="#12" y="28.223"/><use xlink:href="#9" y="30.394"/><use xlink:href="#10" y="32.565"/><use xlink:href="#11" y="34.736"/><use xlink:href="#13" y="45.591"/><use xlink:href="#14" y="47.762"/><use xlink:href="#15" y="54.275"/></svg><svg x="2272"><use xlink:href="#a"/><use xlink:href="#1"/><use xlink:href="#2" y="2.171"/><use xlink:href="#5" y="4.342"/><use xlink:href="#6" y="6.513"/><use xlink:href="#7" y="13.026"/><use xlink:href="#8" y="17.368"/><use xlink:href="#9" y="19.539"/><use xlink:href="#10" y="21.71"/><use xlink:href="#11" y="23.881"/><use xlink:href="#12" y="28.223"/><use xlink:href="#9" y="30.394"/><use xlink:href="#10" y="32.565"/><use xlink:href="#11" y="34.736"/><use xlink:href="#13" y="45.591"/><use xlink:href="#14" y="47.762"/><use xlink:href="#15" y="54.275"/><text y="58.116" class="f">exit</text></svg></svg></g></g></svg></svg>