<svg xmlns="http://www.w3.org/2000/svg" xmlns:xlink="http://www.w3.org/1999/xlink" width="950" height="1015.24"><rect width="950" height="1015.24" rx="5" ry="5" class="a"/><svg y="0%" x="0%"><circle cx="20" cy="20" r="6" fill="#ff5f58"/><circle cx="40" cy="20" r="6" fill="#ffbd2e"/><circle cx="60" cy="20" r="6" fill="#18c132"/></svg><svg height="955.24" viewBox="0 0 91 95.524" width="910" x="15" xmlns="http://www.w3.org/2000/svg" xmlns:xlink="http://www.w3.org/1999/xlink" y="50"><style>@keyframes s{0%{transform:translateX(0)}.1%{transform:translateX(-182px)}1%{transform:translateX(-273px)}1.2%{transform:translateX(-455px)}1.6%{transform:translateX(-819px)}23.3%{transform:translateX(-910px)}23.4%{transform:translateX(-1092px)}23.5%{transform:translateX(-1183px)}23.6%{transform:translateX(-1365px)}23.9%{transform:translateX(-1638px)}36.7%{transform:translateX(-2002px)}48.3%{transform:translateX(-2366px)}48.5%{transform:translateX(-2639px)}48.9%{transform:translateX(-3094px)}99.7%{transform:translateX(-3276px)}99.8%{transform:translateX(-3640px)}to{transform:translateX(-3731px)}}.a{fill:#fff}.f{fill:#000;white-space:pre}.g{font-weight:700}.g,.j,.k{fill:#818383;white-space:pre}.k{fill:#cbcccd}.l{fill:#33bbc8;font-weight:700}.l,.m,.n{white-space:pre}.m{fill:#c23621;font-weight:700}.n{fill:#adad27}.o{fill:#000;font-weight:700}.o,.p,.q{white-space:pre}.p{fill:#492ee1;text-decoration:underline}.q{fill:#25bc24;font-weight:700}</style><g font-family="Monaco,Consolas,Menlo,'Bitstream Vera Sans Mono','Powerline Symbols',monospace" font-size="1.67"><defs><symbol id="1"><text y="1.67" class="f">bash-3.2$</text><text x="10.02" y="1.67" class="f">update</text></symbol><symbol id="2"><text y="1.67" class="g">↪</text><text x="2.004" y="1.67" class="g">reading</text><text x="10.02" y="1.67" class="g">specification</text><text x="24.048" y="1.67" class="g">from</text><text x="29.058" y="1.67" class="g">an</text><text x="32.064" y="1.67" class="g">in-memory</text><text x="42.084" y="1.67" class="g">OpenAPI</text><text x="50.1" y="1.67" class="g">simulation</text></symbol><symbol id="3"><path fill="#e88388" d="M2.004 0h7v2.171h-7z"/><text x="2.004" y="1.67" style="white-space:pre" fill="#cbcccd" font-weight="700">Diff</text><text x="10.02" y="1.67" class="g">GET</text><text x="14.028" y="1.67" class="j">/example</text><text x="50.1" y="1.67" class="j">200</text><text x="54.108" y="1.67" class="j">response</text></symbol><symbol id="4"><text x="1.002" y="1.67" class="j">─────────────────────</text><text x="23.046" y="1.67" class="k">Missing</text><text x="31.062" y="1.67" class="k">required</text><text x="40.08" y="1.67" class="k">property</text><text x="49.098" y="1.67" class="l">gravatar_id</text><text x="61.122" y="1.67" class="j">─────────────────────</text></symbol><symbol id="5"><text y="1.67" class="j">{</text></symbol><symbol id="6"><text x="1.002" y="1.67" class="j">&quot;owner&quot;:</text><text x="10.02" y="1.67" class="j">{</text></symbol><symbol id="7"><text x="2.004" y="1.67" class="j">&quot;created_at&quot;:</text><text x="16.032" y="1.67" class="j">&quot;09/12/2021&quot;,</text></symbol><symbol id="8"><text x="2.004" y="1.67" class="j">&quot;login&quot;:</text><text x="11.022" y="1.67" class="j">&quot;opticdev&quot;,</text></symbol><symbol id="9"><text x="2.004" y="1.67" class="j">&quot;id&quot;:</text><text x="8.016" y="1.67" class="j">34556970,</text></symbol><symbol id="10"><text x="2.004" y="1.67" class="j">&quot;node_id&quot;:</text><text x="13.026" y="1.67" class="j">&quot;MDEyOk9yZ2FuaXphdGlvbjM0NTU2OTcw&quot;,</text></symbol><symbol id="11"><text x="2.004" y="1.67" class="j">&quot;avatar_url&quot;:</text><text x="16.032" y="1.67" class="j">&quot;https://avatars.githubusercontent.com/u/34556970?v=4&quot;,</text></symbol><symbol id="12"><text x="2.004" y="1.67" class="j">&quot;url&quot;:</text><text x="9.018" y="1.67" class="j">&quot;https://api.github.com/users/opticdev&quot;,</text></symbol><symbol id="13"><text x="2.004" y="1.67" class="j">&quot;html_url&quot;:</text><text x="14.028" y="1.67" class="j">&quot;https://github.com/opticdev&quot;,</text></symbol><symbol id="14"><text x="2.004" y="1.67" class="j">&quot;followers_url&quot;:</text><text x="19.038" y="1.67" class="j">&quot;https://api.github.com/users/opticdev/followers&quot;,</text></symbol><symbol id="15"><text x="2.004" y="1.67" class="j">&quot;type&quot;:</text><text x="10.02" y="1.67" class="j">&quot;Organization&quot;,</text></symbol><symbol id="16"><text x="2.004" y="1.67" class="m">&quot;gravatar_id&quot;:</text><text x="18.036" y="1.67" class="m">---</text><text x="22.044" y="1.67" class="m">required</text><text x="31.062" y="1.67" class="m">but</text><text x="35.07" y="1.67" class="m">missing</text><text x="43.086" y="1.67" class="m">---</text></symbol><symbol id="17"><text x="1.002" y="1.67" class="j">}</text></symbol><symbol id="18"><text y="1.67" class="j">}</text></symbol><symbol id="19"><text y="1.67" class="n">Computing</text><text x="10.02" y="1.67" class="n">patches...</text></symbol><symbol id="20"><text x="2.004" y="1.67" class="o">Patch</text><text x="8.016" y="1.67" class="o">Usage:</text></symbol><symbol id="21"><text x="2.004" y="1.67" class="j">Press</text><text x="8.016" y="1.67" class="l">a</text><text x="10.02" y="1.67" class="j">to</text><text x="13.026" y="1.67" class="j">approve</text></symbol><symbol id="22"><text x="2.004" y="1.67" class="j">Press</text><text x="8.016" y="1.67" class="l">←</text><text x="10.02" y="1.67" class="j">to</text><text x="13.026" y="1.67" class="j">show</text><text x="18.036" y="1.67" class="j">previous</text><text x="27.054" y="1.67" class="j">patch</text></symbol><symbol id="23"><text x="2.004" y="1.67" class="j">Press</text><text x="8.016" y="1.67" class="l">→</text><text x="10.02" y="1.67" class="j">to</text><text x="13.026" y="1.67" class="j">show</text><text x="18.036" y="1.67" class="j">next</text><text x="23.046" y="1.67" class="j">patch</text></symbol><symbol id="24"><text x="2.004" y="1.67" class="j">Press</text><text x="8.016" y="1.67" class="l">s</text><text x="10.02" y="1.67" class="j">to</text><text x="13.026" y="1.67" class="j">skip</text></symbol><symbol id="25"><text x="1.002" y="1.67" class="j">────────────────────────────────</text><text x="34.068" y="1.67" class="k">OpenAPI</text><text x="42.084" y="1.67" class="k">patches</text><text x="50.1" y="1.67" class="j">────────────────────────────────</text></symbol><symbol id="26"><text y="1.67" class="j">42:</text><text x="27.054" y="1.67" class="j">-</text><text x="29.058" y="1.67" class="j">login</text></symbol><symbol id="27"><text y="1.67" class="j">43:</text><text x="27.054" y="1.67" class="j">-</text><text x="29.058" y="1.67" class="j">id</text></symbol><symbol id="28"><text y="1.67" class="j">44:</text><text x="27.054" y="1.67" class="j">-</text><text x="29.058" y="1.67" class="j">node_id</text></symbol><symbol id="29"><text y="1.67" class="j">45:</text><text x="27.054" y="1.67" class="j">-</text><text x="29.058" y="1.67" class="j">avatar_url</text></symbol><symbol id="30"><text y="1.67" class="j">46:</text><text x="4.008" y="1.67" class="m">-</text><text x="27.054" y="1.67" class="m">-</text><text x="29.058" y="1.67" class="m">gravatar_id</text></symbol><symbol id="31"><text y="1.67" class="j">47:</text><text x="27.054" y="1.67" class="j">-</text><text x="29.058" y="1.67" class="j">url</text></symbol><symbol id="32"><text y="1.67" class="j">48:</text><text x="27.054" y="1.67" class="j">-</text><text x="29.058" y="1.67" class="j">html_url</text></symbol><symbol id="33"><text y="1.67" class="j">49:</text><text x="27.054" y="1.67" class="j">-</text><text x="29.058" y="1.67" class="j">followers_url</text></symbol><symbol id="34"><text y="1.67" class="j">50:</text><text x="27.054" y="1.67" class="j">-</text><text x="29.058" y="1.67" class="j">type</text></symbol><symbol id="35"><text y="1.67" class="p">at</text><text x="3.006" y="1.67" class="p">(openapi.yaml:42:0)</text></symbol><symbol id="36"><text y="1.67" class="n">╭─────────────────────────────────────────────────────────────────────────────────────────╮</text></symbol><symbol id="37"><text y="1.67" class="n">│</text><text x="1.002" y="1.67" class="o">make</text><text x="6.012" y="1.67" class="o">property</text><text x="15.03" y="1.67" class="o">gravatar_id</text><text x="27.054" y="1.67" class="o">optional</text><text x="56.112" y="1.67" class="m">&gt;</text><text x="58.116" y="1.67" class="o">GET</text><text x="62.124" y="1.67" class="f">/example/{exampleId}</text><text x="90.18" y="1.67" class="n">│</text></symbol><symbol id="38"><text y="1.67" class="n">│</text><text x="1.002" y="1.67" class="j">patch</text><text x="7.014" y="1.67" class="j">(1/2)</text><text x="58.116" y="1.67" class="j">200</text><text x="62.124" y="1.67" class="j">Response</text><text x="71.142" y="1.67" class="j">|</text><text x="73.146" y="1.67" class="j">application/json</text><text x="90.18" y="1.67" class="n">│</text></symbol><symbol id="39"><text y="1.67" class="n">╰─────────────────────────────────────────────────────────────────────────────────────────╯</text></symbol><symbol id="40"><text y="1.67" class="g">↩</text><text x="2.004" y="1.67" class="g">patching</text><text x="11.022" y="1.67" class="g">specification</text></symbol><symbol id="41"><text x="2.004" y="1.67" class="j">-</text><text x="4.008" y="1.67" class="j">make</text><text x="9.018" y="1.67" class="j">property</text><text x="18.036" y="1.67" class="j">gravatar_id</text><text x="30.06" y="1.67" class="j">optional</text></symbol><symbol id="42"><text x="1.002" y="1.67" class="j">─────────────────────</text><text x="23.046" y="1.67" class="k">Missing</text><text x="31.062" y="1.67" class="k">required</text><text x="40.08" y="1.67" class="k">property</text><text x="49.098" y="1.67" class="l">site_admin</text><text x="60.12" y="1.67" class="j">─────────────────────</text></symbol><symbol id="43"><text x="2.004" y="1.67" class="m">&quot;site_admin&quot;:</text><text x="17.034" y="1.67" class="m">---</text><text x="21.042" y="1.67" class="m">required</text><text x="30.06" y="1.67" class="m">but</text><text x="34.068" y="1.67" class="m">missing</text><text x="42.084" y="1.67" class="m">---</text></symbol><symbol id="44"><text y="1.67" class="j">46:</text><text x="27.054" y="1.67" class="j">-</text><text x="29.058" y="1.67" class="j">url</text></symbol><symbol id="45"><text y="1.67" class="j">47:</text><text x="27.054" y="1.67" class="j">-</text><text x="29.058" y="1.67" class="j">html_url</text></symbol><symbol id="46"><text y="1.67" class="j">48:</text><text x="27.054" y="1.67" class="j">-</text><text x="29.058" y="1.67" class="j">followers_url</text></symbol><symbol id="47"><text y="1.67" class="j">49:</text><text x="27.054" y="1.67" class="j">-</text><text x="29.058" y="1.67" class="j">type</text></symbol><symbol id="48"><text y="1.67" class="j">50:</text><text x="4.008" y="1.67" class="m">-</text><text x="27.054" y="1.67" class="m">-</text><text x="29.058" y="1.67" class="m">site_admin</text></symbol><symbol id="49"><text y="1.67" class="j">51:</text><text x="21.042" y="1.67" class="j">required:</text></symbol><symbol id="50"><text y="1.67" class="j">52:</text><text x="23.046" y="1.67" class="j">-</text><text x="25.05" y="1.67" class="j">owner</text></symbol><symbol id="51"><text y="1.67" class="p">at</text><text x="3.006" y="1.67" class="p">(openapi.yaml:46:0)</text></symbol><symbol id="52"><text y="1.67" class="j">35:</text><text x="27.054" y="1.67" class="j">followers_url:</text></symbol><symbol id="53"><text y="1.67" class="j">36:</text><text x="29.058" y="1.67" class="j">type:</text><text x="35.07" y="1.67" class="j">string</text></symbol><symbol id="54"><text y="1.67" class="j">37:</text><text x="27.054" y="1.67" class="j">type:</text></symbol><symbol id="55"><text y="1.67" class="j">38:</text><text x="29.058" y="1.67" class="j">type:</text><text x="35.07" y="1.67" class="j">string</text></symbol><symbol id="56"><text y="1.67" class="j">39:</text><text x="4.008" y="1.67" class="m">-</text><text x="27.054" y="1.67" class="m">site_admin:</text></symbol><symbol id="57"><text y="1.67" class="j">40:</text><text x="4.008" y="1.67" class="m">-</text><text x="29.058" y="1.67" class="m">type:</text><text x="35.07" y="1.67" class="m">boolean</text></symbol><symbol id="58"><text y="1.67" class="j">41:</text><text x="25.05" y="1.67" class="j">required:</text></symbol><symbol id="59"><text y="1.67" class="p">at</text><text x="3.006" y="1.67" class="p">(openapi.yaml:35:0)</text></symbol><symbol id="60"><text x="2.004" y="1.67" class="j">-</text><text x="4.008" y="1.67" class="j">remove</text><text x="11.022" y="1.67" class="j">property</text><text x="20.04" y="1.67" class="j">site_admin</text></symbol><symbol id="61"><text x="1.002" y="1.67" class="j">────────────────────────</text><text x="26.052" y="1.67" class="k">Additional</text><text x="37.074" y="1.67" class="k">property</text><text x="46.092" y="1.67" class="l">created_at</text><text x="57.114" y="1.67" class="j">────────────────────────</text></symbol><symbol id="62"><text x="2.004" y="1.67" class="q">&quot;created_at&quot;:</text><text x="16.032" y="1.67" class="q">&quot;09/12/2021&quot;,</text></symbol><symbol id="63"><text x="2.004" y="1.67" class="j">&quot;type&quot;:</text><text x="10.02" y="1.67" class="j">&quot;Organization&quot;</text></symbol><symbol id="64"><text y="1.67" class="j">39:</text><text x="4.008" y="1.67" class="q">+</text><text x="27.054" y="1.67" class="q">created_at:</text></symbol><symbol id="65"><text y="1.67" class="j">40:</text><text x="4.008" y="1.67" class="q">+</text><text x="29.058" y="1.67" class="q">type:</text><text x="35.07" y="1.67" class="q">string</text></symbol><symbol id="66"><text y="1.67" class="j">44:</text><text x="27.054" y="1.67" class="j">-</text><text x="29.058" y="1.67" class="j">url</text></symbol><symbol id="67"><text y="1.67" class="j">45:</text><text x="27.054" y="1.67" class="j">-</text><text x="29.058" y="1.67" class="j">html_url</text></symbol><symbol id="68"><text y="1.67" class="j">46:</text><text x="27.054" y="1.67" class="j">-</text><text x="29.058" y="1.67" class="j">followers_url</text></symbol><symbol id="69"><text y="1.67" class="j">47:</text><text x="27.054" y="1.67" class="j">-</text><text x="29.058" y="1.67" class="j">type</text></symbol><symbol id="70"><text y="1.67" class="j">48:</text><text x="4.008" y="1.67" class="q">+</text><text x="27.054" y="1.67" class="q">-</text><text x="29.058" y="1.67" class="q">created_at</text></symbol><symbol id="71"><text y="1.67" class="j">49:</text><text x="21.042" y="1.67" class="j">required:</text></symbol><symbol id="72"><text y="1.67" class="j">50:</text><text x="23.046" y="1.67" class="j">-</text><text x="25.05" y="1.67" class="j">owner</text></symbol><symbol id="73"><text y="1.67" class="p">at</text><text x="3.006" y="1.67" class="p">(openapi.yaml:44:0)</text></symbol><symbol id="74"><text y="1.67" class="n">│</text><text x="1.002" y="1.67" class="o">add</text><text x="5.01" y="1.67" class="o">property</text><text x="14.028" y="1.67" class="o">created_at</text><text x="56.112" y="1.67" class="m">&gt;</text><text x="58.116" y="1.67" class="o">GET</text><text x="62.124" y="1.67" class="f">/example/{exampleId}</text><text x="90.18" y="1.67" class="n">│</text></symbol><symbol id="75"><text y="1.67" class="n">│</text><text x="1.002" y="1.67" class="j">patch</text><text x="7.014" y="1.67" class="j">(1/1)</text><text x="58.116" y="1.67" class="j">200</text><text x="62.124" y="1.67" class="j">Response</text><text x="71.142" y="1.67" class="j">|</text><text x="73.146" y="1.67" class="j">application/json</text><text x="90.18" y="1.67" class="n">│</text></symbol><symbol id="76"><text x="2.004" y="1.67" class="j">-</text><text x="4.008" y="1.67" class="j">add</text><text x="8.016" y="1.67" class="j">property</text><text x="17.034" y="1.67" class="j">created_at</text></symbol><symbol id="a"><path fill="transparent" d="M0 0h91v44H0z"/></symbol></defs><path class="a" d="M0 0h91v95.524H0z"/><g style="animation-duration:14.804113999999998s;animation-iteration-count:infinite;animation-name:s;animation-timing-function:steps(1,end)"><svg width="3822"><svg><use xlink:href="#a"/><use xlink:href="#1"/></svg><svg x="91"><use xlink:href="#a"/><use xlink:href="#1"/><use xlink:href="#2" y="2.171"/></svg><svg x="182"><use xlink:href="#a"/><use xlink:href="#1"/><use xlink:href="#2" y="2.171"/></svg><svg x="273"><use xlink:href="#a"/><use xlink:href="#1"/><use xlink:href="#2" y="2.171"/><use xlink:href="#3" y="4.342"/></svg><svg x="364"><use xlink:href="#a"/><use xlink:href="#1"/><use xlink:href="#2" y="2.171"/><use xlink:href="#3" y="4.342"/><use xlink:href="#4" y="10.855"/><use xlink:href="#5" y="13.026"/><use xlink:href="#6" y="15.197"/><use xlink:href="#7" y="17.368"/><use xlink:href="#8" y="19.539"/><use xlink:href="#9" y="21.71"/><use xlink:href="#10" y="23.881"/><use xlink:href="#11" y="26.052"/><use xlink:href="#12" y="28.223"/><use xlink:href="#13" y="30.394"/><use xlink:href="#14" y="32.565"/><use xlink:href="#15" y="34.736"/><use xlink:href="#16" y="36.907"/><use xlink:href="#17" y="39.078"/><use xlink:href="#18" y="41.249"/><use xlink:href="#19" y="43.42"/><use xlink:href="#20" y="47.762"/><use xlink:href="#21" y="49.933"/><text x="2.004" y="53.774" class="j">Press</text><text x="8.016" y="53.774" class="l">←</text><text x="10.02" y="53.774" class="j">to</text><text x="13.026" y="53.774" class="j">show</text><text x="18.036" y="53.774" class="j">previ</text></svg><svg x="455"><use xlink:href="#a"/><use xlink:href="#1"/><use xlink:href="#2" y="2.171"/><use xlink:href="#3" y="4.342"/><use xlink:href="#4" y="10.855"/><use xlink:href="#5" y="13.026"/><use xlink:href="#6" y="15.197"/><use xlink:href="#7" y="17.368"/><use xlink:href="#8" y="19.539"/><use xlink:href="#9" y="21.71"/><use xlink:href="#10" y="23.881"/><use xlink:href="#11" y="26.052"/><use xlink:href="#12" y="28.223"/><use xlink:href="#13" y="30.394"/><use xlink:href="#14" y="32.565"/><use xlink:href="#15" y="34.736"/><use xlink:href="#16" y="36.907"/><use xlink:href="#17" y="39.078"/><use xlink:href="#18" y="41.249"/><use xlink:href="#19" y="43.42"/><use xlink:href="#20" y="47.762"/><use xlink:href="#21" y="49.933"/><use xlink:href="#22" y="52.104"/><use xlink:href="#23" y="54.275"/><use xlink:href="#24" y="56.446"/></svg><svg x="546"><use xlink:href="#a"/><use xlink:href="#1"/><use xlink:href="#2" y="2.171"/><use xlink:href="#3" y="4.342"/><use xlink:href="#4" y="10.855"/><use xlink:href="#5" y="13.026"/><use xlink:href="#6" y="15.197"/><use xlink:href="#7" y="17.368"/><use xlink:href="#8" y="19.539"/><use xlink:href="#9" y="21.71"/><use xlink:href="#10" y="23.881"/><use xlink:href="#11" y="26.052"/><use xlink:href="#12" y="28.223"/><use xlink:href="#13" y="30.394"/><use xlink:href="#14" y="32.565"/><use xlink:href="#15" y="34.736"/><use xlink:href="#16" y="36.907"/><use xlink:href="#17" y="39.078"/></svg><svg x="637"><use xlink:href="#a"/><use xlink:href="#1"/><use xlink:href="#2" y="2.171"/><use xlink:href="#3" y="4.342"/><use xlink:href="#4" y="10.855"/><use xlink:href="#5" y="13.026"/><use xlink:href="#6" y="15.197"/><use xlink:href="#7" y="17.368"/><use xlink:href="#8" y="19.539"/><use xlink:href="#9" y="21.71"/><use xlink:href="#10" y="23.881"/><use xlink:href="#11" y="26.052"/><use xlink:href="#12" y="28.223"/><use xlink:href="#13" y="30.394"/><use xlink:href="#14" y="32.565"/><use xlink:href="#15" y="34.736"/><use xlink:href="#16" y="36.907"/><use xlink:href="#17" y="39.078"/><use xlink:href="#18" y="41.249"/><use xlink:href="#25" y="47.762"/><use xlink:href="#26" y="49.933"/><use xlink:href="#27" y="52.104"/><use xlink:href="#28" y="54.275"/><use xlink:href="#29" y="56.446"/><use xlink:href="#30" y="58.617"/><use xlink:href="#31" y="60.788"/><use xlink:href="#32" y="62.959"/><use xlink:href="#33" y="65.13"/><use xlink:href="#34" y="67.301"/><use xlink:href="#35" y="69.472"/><text y="77.655" class="n">╭───────────────────────────────────────</text></svg><svg x="728"><use xlink:href="#a"/><use xlink:href="#2"/><use xlink:href="#3" y="2.171"/><use xlink:href="#4" y="8.684"/><use xlink:href="#5" y="10.855"/><use xlink:href="#6" y="13.026"/><use xlink:href="#7" y="15.197"/><use xlink:href="#8" y="17.368"/><use xlink:href="#9" y="19.539"/><use xlink:href="#10" y="21.71"/><use xlink:href="#11" y="23.881"/><use xlink:href="#12" y="26.052"/><use xlink:href="#13" y="28.223"/><use xlink:href="#14" y="30.394"/><use xlink:href="#15" y="32.565"/><use xlink:href="#16" y="34.736"/><use xlink:href="#17" y="36.907"/><use xlink:href="#18" y="39.078"/><use xlink:href="#25" y="45.591"/><use xlink:href="#26" y="47.762"/><use xlink:href="#27" y="49.933"/><use xlink:href="#28" y="52.104"/><use xlink:href="#29" y="54.275"/><use xlink:href="#30" y="56.446"/><use xlink:href="#31" y="58.617"/><use xlink:href="#32" y="60.788"/><use xlink:href="#33" y="62.959"/><use xlink:href="#34" y="65.13"/><use xlink:href="#35" y="67.301"/><use xlink:href="#36" y="73.814"/><use xlink:href="#37" y="75.985"/><use xlink:href="#38" y="78.156"/><use xlink:href="#39" y="80.327"/><use xlink:href="#20" y="84.669"/><use xlink:href="#21" y="86.84"/><use xlink:href="#22" y="89.011"/><use xlink:href="#23" y="91.182"/><text x="2.004" y="95.023" class="j">Press</text><text x="8.016" y="95.023" class="l">s</text><text x="10.02" y="95.023" class="j">to</text><text x="13.026" y="95.023" class="j">sk</text></svg><svg x="819"><use xlink:href="#a"/><use xlink:href="#3"/><use xlink:href="#4" y="6.513"/><use xlink:href="#5" y="8.684"/><use xlink:href="#6" y="10.855"/><use xlink:href="#7" y="13.026"/><use xlink:href="#8" y="15.197"/><use xlink:href="#9" y="17.368"/><use xlink:href="#10" y="19.539"/><use xlink:href="#11" y="21.71"/><use xlink:href="#12" y="23.881"/><use xlink:href="#13" y="26.052"/><use xlink:href="#14" y="28.223"/><use xlink:href="#15" y="30.394"/><use xlink:href="#16" y="32.565"/><use xlink:href="#17" y="34.736"/><use xlink:href="#18" y="36.907"/><use xlink:href="#25" y="43.42"/><use xlink:href="#26" y="45.591"/><use xlink:href="#27" y="47.762"/><use xlink:href="#28" y="49.933"/><use xlink:href="#29" y="52.104"/><use xlink:href="#30" y="54.275"/><use xlink:href="#31" y="56.446"/><use xlink:href="#32" y="58.617"/><use xlink:href="#33" y="60.788"/><use xlink:href="#34" y="62.959"/><use xlink:href="#35" y="65.13"/><use xlink:href="#36" y="71.643"/><use xlink:href="#37" y="73.814"/><use xlink:href="#38" y="75.985"/><use xlink:href="#39" y="78.156"/><use xlink:href="#20" y="82.498"/><use xlink:href="#21" y="84.669"/><use xlink:href="#22" y="86.84"/><use xlink:href="#23" y="89.011"/><use xlink:href="#24" y="91.182"/></svg><svg x="910"><use xlink:href="#a"/><use xlink:href="#3"/></svg><svg x="1001"><use xlink:href="#a"/><use xlink:href="#3"/><use xlink:href="#40" y="2.171"/><use xlink:href="#41" y="4.342"/></svg><svg x="1092"><use xlink:href="#a"/><use xlink:href="#3"/><use xlink:href="#40" y="2.171"/><use xlink:href="#41" y="4.342"/><use xlink:href="#2" y="6.513"/></svg><svg x="1183"><use xlink:href="#a"/><use xlink:href="#3"/><use xlink:href="#40" y="2.171"/><use xlink:href="#41" y="4.342"/><use xlink:href="#2" y="6.513"/><use xlink:href="#3" y="8.684"/></svg><svg x="1274"><use xlink:href="#a"/><use xlink:href="#3"/><use xlink:href="#40" y="2.171"/><use xlink:href="#41" y="4.342"/><use xlink:href="#2" y="6.513"/><use xlink:href="#3" y="8.684"/><use xlink:href="#42" y="15.197"/><use xlink:href="#5" y="17.368"/><use xlink:href="#6" y="19.539"/><use xlink:href="#7" y="21.71"/><use xlink:href="#8" y="23.881"/><use xlink:href="#9" y="26.052"/><use xlink:href="#10" y="28.223"/><use xlink:href="#11" y="30.394"/><use xlink:href="#12" y="32.565"/><use xlink:href="#13" y="34.736"/><use xlink:href="#14" y="36.907"/><use xlink:href="#15" y="39.078"/><use xlink:href="#43" y="41.249"/><use xlink:href="#17" y="43.42"/><use xlink:href="#18" y="45.591"/><use xlink:href="#19" y="47.762"/><use xlink:href="#20" y="52.104"/><use xlink:href="#21" y="54.275"/><text x="2.004" y="58.116" class="j">Press</text><text x="8.016" y="58.116" class="l">←</text><text x="10.02" y="58.116" class="j">to</text><text x="13.026" y="58.116" class="j">show</text><text x="18.036" y="58.116" class="j">previou</text></svg><svg x="1365"><use xlink:href="#a"/><use xlink:href="#3"/><use xlink:href="#40" y="2.171"/><use xlink:href="#41" y="4.342"/><use xlink:href="#2" y="6.513"/><use xlink:href="#3" y="8.684"/><use xlink:href="#42" y="15.197"/><use xlink:href="#5" y="17.368"/><use xlink:href="#6" y="19.539"/><use xlink:href="#7" y="21.71"/><use xlink:href="#8" y="23.881"/><use xlink:href="#9" y="26.052"/><use xlink:href="#10" y="28.223"/><use xlink:href="#11" y="30.394"/><use xlink:href="#12" y="32.565"/><use xlink:href="#13" y="34.736"/><use xlink:href="#14" y="36.907"/><use xlink:href="#15" y="39.078"/><use xlink:href="#43" y="41.249"/><use xlink:href="#17" y="43.42"/><use xlink:href="#18" y="45.591"/><use xlink:href="#19" y="47.762"/><use xlink:href="#20" y="52.104"/><use xlink:href="#21" y="54.275"/><use xlink:href="#22" y="56.446"/><use xlink:href="#23" y="58.617"/><use xlink:href="#24" y="60.788"/></svg><svg x="1456"><use xlink:href="#a"/><use xlink:href="#3"/><use xlink:href="#40" y="2.171"/><use xlink:href="#41" y="4.342"/><use xlink:href="#2" y="6.513"/><use xlink:href="#3" y="8.684"/><use xlink:href="#42" y="15.197"/><use xlink:href="#5" y="17.368"/><use xlink:href="#6" y="19.539"/><use xlink:href="#7" y="21.71"/><use xlink:href="#8" y="23.881"/><use xlink:href="#9" y="26.052"/><use xlink:href="#10" y="28.223"/><use xlink:href="#11" y="30.394"/><use xlink:href="#12" y="32.565"/><use xlink:href="#13" y="34.736"/><use xlink:href="#14" y="36.907"/><use xlink:href="#15" y="39.078"/><use xlink:href="#43" y="41.249"/><use xlink:href="#17" y="43.42"/></svg><svg x="1547"><use xlink:href="#a"/><use xlink:href="#3"/><use xlink:href="#40" y="2.171"/><use xlink:href="#41" y="4.342"/><use xlink:href="#2" y="6.513"/><use xlink:href="#3" y="8.684"/><use xlink:href="#42" y="15.197"/><use xlink:href="#5" y="17.368"/><use xlink:href="#6" y="19.539"/><use xlink:href="#7" y="21.71"/><use xlink:href="#8" y="23.881"/><use xlink:href="#9" y="26.052"/><use xlink:href="#10" y="28.223"/><use xlink:href="#11" y="30.394"/><use xlink:href="#12" y="32.565"/><use xlink:href="#13" y="34.736"/><use xlink:href="#14" y="36.907"/><use xlink:href="#15" y="39.078"/><use xlink:href="#43" y="41.249"/><use xlink:href="#17" y="43.42"/><use xlink:href="#18" y="45.591"/><use xlink:href="#25" y="52.104"/><use xlink:href="#44" y="54.275"/><use xlink:href="#45" y="56.446"/><use xlink:href="#46" y="58.617"/><use xlink:href="#47" y="60.788"/><use xlink:href="#48" y="62.959"/><use xlink:href="#49" y="65.13"/><use xlink:href="#50" y="67.301"/><use xlink:href="#51" y="69.472"/><text y="77.655" class="n">╭────────────────────────────────────────────────────────────────────────────────────</text></svg><svg x="1638"><use xlink:href="#a"/><use xlink:href="#41"/><use xlink:href="#2" y="2.171"/><use xlink:href="#3" y="4.342"/><use xlink:href="#42" y="10.855"/><use xlink:href="#5" y="13.026"/><use xlink:href="#6" y="15.197"/><use xlink:href="#7" y="17.368"/><use xlink:href="#8" y="19.539"/><use xlink:href="#9" y="21.71"/><use xlink:href="#10" y="23.881"/><use xlink:href="#11" y="26.052"/><use xlink:href="#12" y="28.223"/><use xlink:href="#13" y="30.394"/><use xlink:href="#14" y="32.565"/><use xlink:href="#15" y="34.736"/><use xlink:href="#43" y="36.907"/><use xlink:href="#17" y="39.078"/><use xlink:href="#18" y="41.249"/><use xlink:href="#25" y="47.762"/><use xlink:href="#44" y="49.933"/><use xlink:href="#45" y="52.104"/><use xlink:href="#46" y="54.275"/><use xlink:href="#47" y="56.446"/><use xlink:href="#48" y="58.617"/><use xlink:href="#49" y="60.788"/><use xlink:href="#50" y="62.959"/><use xlink:href="#51" y="65.13"/><use xlink:href="#36" y="71.643"/><text y="75.484" class="n">│</text><text x="1.002" y="75.484" class="o">make</text><text x="6.012" y="75.484" class="o">property</text><text x="15.03" y="75.484" class="o">site_admin</text><text x="26.052" y="75.484" class="o">optional</text><text x="56.112" y="75.484" class="m">&gt;</text><text x="58.116" y="75.484" class="o">GET</text><text x="62.124" y="75.484" class="f">/example/{exampleId}</text><text x="90.18" y="75.484" class="n">│</text><use xlink:href="#38" y="75.985"/><use xlink:href="#39" y="78.156"/><use xlink:href="#20" y="82.498"/><use xlink:href="#21" y="84.669"/><use xlink:href="#22" y="86.84"/><use xlink:href="#23" y="89.011"/><use xlink:href="#24" y="91.182"/></svg><svg x="1729"><use xlink:href="#a"/><use xlink:href="#2"/><use xlink:href="#3" y="2.171"/><use xlink:href="#40" y="4.342"/><use xlink:href="#41" y="6.513"/><use xlink:href="#2" y="8.684"/><use xlink:href="#3" y="10.855"/><use xlink:href="#42" y="17.368"/><use xlink:href="#5" y="19.539"/><use xlink:href="#6" y="21.71"/><use xlink:href="#7" y="23.881"/><use xlink:href="#8" y="26.052"/><use xlink:href="#9" y="28.223"/><use xlink:href="#10" y="30.394"/><text x="2.004" y="34.235" class="j">&quot;avatar_url&quot;:</text><text x="16.032" y="34.235" class="j">&quot;https://avatars.githubusercontent.com/u</text></svg><svg x="1820"><use xlink:href="#a"/><use xlink:href="#2"/><use xlink:href="#3" y="2.171"/><use xlink:href="#40" y="4.342"/><use xlink:href="#41" y="6.513"/><use xlink:href="#2" y="8.684"/><use xlink:href="#3" y="10.855"/><use xlink:href="#42" y="17.368"/><use xlink:href="#5" y="19.539"/><use xlink:href="#6" y="21.71"/><use xlink:href="#7" y="23.881"/><use xlink:href="#8" y="26.052"/><use xlink:href="#9" y="28.223"/><use xlink:href="#10" y="30.394"/><use xlink:href="#11" y="32.565"/><use xlink:href="#12" y="34.736"/><use xlink:href="#13" y="36.907"/><use xlink:href="#14" y="39.078"/><use xlink:href="#15" y="41.249"/><use xlink:href="#43" y="43.42"/><use xlink:href="#17" y="45.591"/><use xlink:href="#18" y="47.762"/><use xlink:href="#25" y="54.275"/><use xlink:href="#52" y="56.446"/><use xlink:href="#53" y="58.617"/><use xlink:href="#54" y="60.788"/><use xlink:href="#55" y="62.959"/><use xlink:href="#56" y="65.13"/><use xlink:href="#57" y="67.301"/></svg><svg x="1911"><use xlink:href="#a"/><use xlink:href="#42" y="4.342"/><use xlink:href="#5" y="6.513"/><use xlink:href="#6" y="8.684"/><use xlink:href="#7" y="10.855"/><use xlink:href="#8" y="13.026"/><use xlink:href="#9" y="15.197"/><use xlink:href="#10" y="17.368"/><use xlink:href="#11" y="19.539"/><use xlink:href="#12" y="21.71"/><use xlink:href="#13" y="23.881"/><use xlink:href="#14" y="26.052"/><use xlink:href="#15" y="28.223"/><use xlink:href="#43" y="30.394"/><use xlink:href="#17" y="32.565"/><use xlink:href="#18" y="34.736"/><use xlink:href="#25" y="41.249"/><use xlink:href="#52" y="43.42"/><use xlink:href="#53" y="45.591"/><use xlink:href="#54" y="47.762"/><use xlink:href="#55" y="49.933"/><use xlink:href="#56" y="52.104"/><use xlink:href="#57" y="54.275"/><use xlink:href="#58" y="56.446"/><use xlink:href="#26" y="58.617"/><use xlink:href="#27" y="60.788"/><use xlink:href="#28" y="62.959"/><use xlink:href="#59" y="65.13"/><use xlink:href="#44" y="71.643"/><use xlink:href="#45" y="73.814"/><use xlink:href="#46" y="75.985"/><use xlink:href="#47" y="78.156"/><use xlink:href="#48" y="80.327"/><use xlink:href="#49" y="82.498"/><use xlink:href="#50" y="84.669"/><use xlink:href="#51" y="86.84"/><text y="95.023" class="n">╭────────────────────────────────────────────────────────────────────</text></svg><svg x="2002"><use xlink:href="#a"/><use xlink:href="#11"/><use xlink:href="#12" y="2.171"/><use xlink:href="#13" y="4.342"/><use xlink:href="#14" y="6.513"/><use xlink:href="#15" y="8.684"/><use xlink:href="#43" y="10.855"/><use xlink:href="#17" y="13.026"/><use xlink:href="#18" y="15.197"/><use xlink:href="#25" y="21.71"/><use xlink:href="#52" y="23.881"/><use xlink:href="#53" y="26.052"/><use xlink:href="#54" y="28.223"/><use xlink:href="#55" y="30.394"/><use xlink:href="#56" y="32.565"/><use xlink:href="#57" y="34.736"/><use xlink:href="#58" y="36.907"/><use xlink:href="#26" y="39.078"/><use xlink:href="#27" y="41.249"/><use xlink:href="#28" y="43.42"/><use xlink:href="#59" y="45.591"/><use xlink:href="#44" y="52.104"/><use xlink:href="#45" y="54.275"/><use xlink:href="#46" y="56.446"/><use xlink:href="#47" y="58.617"/><use xlink:href="#48" y="60.788"/><use xlink:href="#49" y="62.959"/><use xlink:href="#50" y="65.13"/><use xlink:href="#51" y="67.301"/><use xlink:href="#36" y="73.814"/><text y="77.655" class="n">│</text><text x="1.002" y="77.655" class="o">remove</text><text x="8.016" y="77.655" class="o">property</text><text x="17.034" y="77.655" class="o">site_admin</text><text x="56.112" y="77.655" class="m">&gt;</text><text x="58.116" y="77.655" class="o">GET</text><text x="62.124" y="77.655" class="f">/example/{exampleId}</text><text x="90.18" y="77.655" class="n">│</text><text y="79.826" class="n">│</text><text x="1.002" y="79.826" class="j">patch</text><text x="7.014" y="79.826" class="j">(2/2)</text><text x="58.116" y="79.826" class="j">200</text><text x="62.124" y="79.826" class="j">Response</text><text x="71.142" y="79.826" class="j">|</text><text x="73.146" y="79.826" class="j">application/json</text><text x="90.18" y="79.826" class="n">│</text><use xlink:href="#39" y="80.327"/><use xlink:href="#20" y="84.669"/><use xlink:href="#21" y="86.84"/><use xlink:href="#22" y="89.011"/><use xlink:href="#23" y="91.182"/><use xlink:href="#24" y="93.353"/></svg><svg x="2093"><use xlink:href="#a"/><use xlink:href="#11"/><use xlink:href="#12" y="2.171"/><use xlink:href="#13" y="4.342"/></svg><svg x="2184"><use xlink:href="#a"/><use xlink:href="#11"/><use xlink:href="#12" y="2.171"/><use xlink:href="#13" y="4.342"/><use xlink:href="#40" y="6.513"/><use xlink:href="#60" y="8.684"/></svg><svg x="2275"><use xlink:href="#a"/><use xlink:href="#11"/><use xlink:href="#12" y="2.171"/><use xlink:href="#13" y="4.342"/><use xlink:href="#40" y="6.513"/><use xlink:href="#60" y="8.684"/><use xlink:href="#2" y="10.855"/></svg><svg x="2366"><use xlink:href="#a"/><use xlink:href="#11"/><use xlink:href="#12" y="2.171"/><use xlink:href="#13" y="4.342"/><use xlink:href="#40" y="6.513"/><use xlink:href="#60" y="8.684"/><use xlink:href="#2" y="10.855"/></svg><svg x="2457"><use xlink:href="#a"/><use xlink:href="#11"/><use xlink:href="#12" y="2.171"/><use xlink:href="#13" y="4.342"/><use xlink:href="#40" y="6.513"/><use xlink:href="#60" y="8.684"/><use xlink:href="#2" y="10.855"/><use xlink:href="#3" y="13.026"/></svg><svg x="2548"><use xlink:href="#a"/><use xlink:href="#11"/><use xlink:href="#12" y="2.171"/><use xlink:href="#13" y="4.342"/><use xlink:href="#40" y="6.513"/><use xlink:href="#60" y="8.684"/><use xlink:href="#2" y="10.855"/><use xlink:href="#3" y="13.026"/><use xlink:href="#61" y="19.539"/><use xlink:href="#5" y="21.71"/><use xlink:href="#6" y="23.881"/><use xlink:href="#62" y="26.052"/><use xlink:href="#8" y="28.223"/><use xlink:href="#9" y="30.394"/><use xlink:href="#10" y="32.565"/><use xlink:href="#11" y="34.736"/><use xlink:href="#12" y="36.907"/><use xlink:href="#13" y="39.078"/><use xlink:href="#14" y="41.249"/><use xlink:href="#63" y="43.42"/><use xlink:href="#17" y="45.591"/><use xlink:href="#18" y="47.762"/><use xlink:href="#19" y="49.933"/><use xlink:href="#20" y="54.275"/><use xlink:href="#21" y="56.446"/><use xlink:href="#22" y="58.617"/><text x="2.004" y="62.458" class="j">Press</text><text x="8.016" y="62.458" class="l">→</text></svg><svg x="2639"><use xlink:href="#a"/><use xlink:href="#11"/><use xlink:href="#12" y="2.171"/><use xlink:href="#13" y="4.342"/><use xlink:href="#40" y="6.513"/><use xlink:href="#60" y="8.684"/><use xlink:href="#2" y="10.855"/><use xlink:href="#3" y="13.026"/><use xlink:href="#61" y="19.539"/><use xlink:href="#5" y="21.71"/><use xlink:href="#6" y="23.881"/><use xlink:href="#62" y="26.052"/><use xlink:href="#8" y="28.223"/><use xlink:href="#9" y="30.394"/><use xlink:href="#10" y="32.565"/><use xlink:href="#11" y="34.736"/><use xlink:href="#12" y="36.907"/><use xlink:href="#13" y="39.078"/><use xlink:href="#14" y="41.249"/><use xlink:href="#63" y="43.42"/><use xlink:href="#17" y="45.591"/><use xlink:href="#18" y="47.762"/><use xlink:href="#19" y="49.933"/><use xlink:href="#20" y="54.275"/><use xlink:href="#21" y="56.446"/><use xlink:href="#22" y="58.617"/><use xlink:href="#23" y="60.788"/><use xlink:href="#24" y="62.959"/></svg><svg x="2730"><use xlink:href="#a"/><use xlink:href="#2"/><use xlink:href="#3" y="2.171"/><use xlink:href="#40" y="4.342"/><use xlink:href="#41" y="6.513"/><use xlink:href="#2" y="8.684"/><use xlink:href="#3" y="10.855"/><use xlink:href="#40" y="13.026"/><use xlink:href="#60" y="15.197"/><use xlink:href="#2" y="17.368"/><use xlink:href="#3" y="19.539"/><text x="1.002" y="27.722" class="j">────────────────────────</text><text x="26.052" y="27.722" class="k">Additional</text><text x="37.074" y="27.722" class="k">property</text><text x="46.092" y="27.722" class="l">created_at</text><text x="57.114" y="27.722" class="j">────────</text></svg><svg x="2821"><use xlink:href="#a"/><use xlink:href="#2"/><use xlink:href="#3" y="2.171"/><use xlink:href="#40" y="4.342"/><use xlink:href="#41" y="6.513"/><use xlink:href="#2" y="8.684"/><use xlink:href="#3" y="10.855"/><use xlink:href="#40" y="13.026"/><use xlink:href="#60" y="15.197"/><use xlink:href="#2" y="17.368"/><use xlink:href="#3" y="19.539"/><use xlink:href="#61" y="26.052"/><use xlink:href="#5" y="28.223"/><use xlink:href="#6" y="30.394"/><use xlink:href="#62" y="32.565"/><use xlink:href="#8" y="34.736"/><use xlink:href="#9" y="36.907"/><use xlink:href="#10" y="39.078"/><use xlink:href="#11" y="41.249"/><use xlink:href="#12" y="43.42"/><use xlink:href="#13" y="45.591"/><use xlink:href="#14" y="47.762"/><use xlink:href="#63" y="49.933"/><use xlink:href="#17" y="52.104"/><use xlink:href="#18" y="54.275"/><use xlink:href="#25" y="60.788"/><use xlink:href="#52" y="62.959"/><use xlink:href="#53" y="65.13"/><text y="68.971" class="j">37:</text></svg><svg x="2912"><use xlink:href="#a"/><use xlink:href="#40"/><use xlink:href="#60" y="2.171"/><use xlink:href="#2" y="4.342"/><use xlink:href="#3" y="6.513"/><use xlink:href="#61" y="13.026"/><use xlink:href="#5" y="15.197"/><use xlink:href="#6" y="17.368"/><use xlink:href="#62" y="19.539"/><use xlink:href="#8" y="21.71"/><use xlink:href="#9" y="23.881"/><use xlink:href="#10" y="26.052"/><use xlink:href="#11" y="28.223"/><use xlink:href="#12" y="30.394"/><use xlink:href="#13" y="32.565"/><use xlink:href="#14" y="34.736"/><use xlink:href="#63" y="36.907"/><use xlink:href="#17" y="39.078"/><use xlink:href="#18" y="41.249"/><use xlink:href="#25" y="47.762"/><use xlink:href="#52" y="49.933"/><use xlink:href="#53" y="52.104"/><use xlink:href="#54" y="54.275"/><use xlink:href="#55" y="56.446"/><use xlink:href="#64" y="58.617"/><use xlink:href="#65" y="60.788"/><use xlink:href="#58" y="62.959"/><use xlink:href="#26" y="65.13"/><use xlink:href="#27" y="67.301"/><use xlink:href="#28" y="69.472"/><use xlink:href="#59" y="71.643"/><use xlink:href="#66" y="78.156"/><use xlink:href="#67" y="80.327"/><use xlink:href="#68" y="82.498"/><use xlink:href="#69" y="84.669"/><use xlink:href="#70" y="86.84"/><use xlink:href="#71" y="89.011"/><use xlink:href="#72" y="91.182"/></svg><svg x="3003"><use xlink:href="#a"/><use xlink:href="#8"/><use xlink:href="#9" y="2.171"/><use xlink:href="#10" y="4.342"/><use xlink:href="#11" y="6.513"/><use xlink:href="#12" y="8.684"/><use xlink:href="#13" y="10.855"/><use xlink:href="#14" y="13.026"/><use xlink:href="#63" y="15.197"/><use xlink:href="#17" y="17.368"/><use xlink:href="#18" y="19.539"/><use xlink:href="#25" y="26.052"/><use xlink:href="#52" y="28.223"/><use xlink:href="#53" y="30.394"/><use xlink:href="#54" y="32.565"/><use xlink:href="#55" y="34.736"/><use xlink:href="#64" y="36.907"/><use xlink:href="#65" y="39.078"/><use xlink:href="#58" y="41.249"/><use xlink:href="#26" y="43.42"/><use xlink:href="#27" y="45.591"/><use xlink:href="#28" y="47.762"/><use xlink:href="#59" y="49.933"/><use xlink:href="#66" y="56.446"/><use xlink:href="#67" y="58.617"/><use xlink:href="#68" y="60.788"/><use xlink:href="#69" y="62.959"/><use xlink:href="#70" y="65.13"/><use xlink:href="#71" y="67.301"/><use xlink:href="#72" y="69.472"/><use xlink:href="#73" y="71.643"/><use xlink:href="#36" y="78.156"/><use xlink:href="#74" y="80.327"/><use xlink:href="#75" y="82.498"/><use xlink:href="#39" y="84.669"/><use xlink:href="#20" y="89.011"/><use xlink:href="#21" y="91.182"/><text x="2.004" y="95.023" class="j">Press</text></svg><svg x="3094"><use xlink:href="#a"/><use xlink:href="#10"/><use xlink:href="#11" y="2.171"/><use xlink:href="#12" y="4.342"/><use xlink:href="#13" y="6.513"/><use xlink:href="#14" y="8.684"/><use xlink:href="#63" y="10.855"/><use xlink:href="#17" y="13.026"/><use xlink:href="#18" y="15.197"/><use xlink:href="#25" y="21.71"/><use xlink:href="#52" y="23.881"/><use xlink:href="#53" y="26.052"/><use xlink:href="#54" y="28.223"/><use xlink:href="#55" y="30.394"/><use xlink:href="#64" y="32.565"/><use xlink:href="#65" y="34.736"/><use xlink:href="#58" y="36.907"/><use xlink:href="#26" y="39.078"/><use xlink:href="#27" y="41.249"/><use xlink:href="#28" y="43.42"/><use xlink:href="#59" y="45.591"/><use xlink:href="#66" y="52.104"/><use xlink:href="#67" y="54.275"/><use xlink:href="#68" y="56.446"/><use xlink:href="#69" y="58.617"/><use xlink:href="#70" y="60.788"/><use xlink:href="#71" y="62.959"/><use xlink:href="#72" y="65.13"/><use xlink:href="#73" y="67.301"/><use xlink:href="#36" y="73.814"/><use xlink:href="#74" y="75.985"/><use xlink:href="#75" y="78.156"/><use xlink:href="#39" y="80.327"/><use xlink:href="#20" y="84.669"/><use xlink:href="#21" y="86.84"/><use xlink:href="#22" y="89.011"/><use xlink:href="#23" y="91.182"/><use xlink:href="#24" y="93.353"/></svg><svg x="3185"><use xlink:href="#a"/><use xlink:href="#10"/><use xlink:href="#11" y="2.171"/><use xlink:href="#12" y="4.342"/><use xlink:href="#13" y="6.513"/><use xlink:href="#14" y="8.684"/><use xlink:href="#63" y="10.855"/><use xlink:href="#17" y="13.026"/><use xlink:href="#18" y="15.197"/><use xlink:href="#25" y="21.71"/><use xlink:href="#52" y="23.881"/><use xlink:href="#53" y="26.052"/><use xlink:href="#54" y="28.223"/><use xlink:href="#55" y="30.394"/><use xlink:href="#64" y="32.565"/><use xlink:href="#65" y="34.736"/><use xlink:href="#58" y="36.907"/><use xlink:href="#26" y="39.078"/><use xlink:href="#27" y="41.249"/></svg><svg x="3276"><use xlink:href="#a"/><use xlink:href="#10"/><use xlink:href="#11" y="2.171"/><use xlink:href="#12" y="4.342"/><use xlink:href="#13" y="6.513"/><use xlink:href="#14" y="8.684"/><use xlink:href="#63" y="10.855"/><use xlink:href="#17" y="13.026"/><use xlink:href="#18" y="15.197"/><use xlink:href="#25" y="21.71"/><use xlink:href="#52" y="23.881"/><use xlink:href="#53" y="26.052"/><use xlink:href="#54" y="28.223"/><use xlink:href="#55" y="30.394"/><use xlink:href="#64" y="32.565"/><use xlink:href="#65" y="34.736"/><use xlink:href="#58" y="36.907"/><use xlink:href="#26" y="39.078"/><use xlink:href="#27" y="41.249"/><use xlink:href="#40" y="43.42"/><use xlink:href="#76" y="45.591"/></svg><svg x="3367"><use xlink:href="#a"/><use xlink:href="#10"/><use xlink:href="#11" y="2.171"/><use xlink:href="#12" y="4.342"/><use xlink:href="#13" y="6.513"/><use xlink:href="#14" y="8.684"/><use xlink:href="#63" y="10.855"/><use xlink:href="#17" y="13.026"/><use xlink:href="#18" y="15.197"/><use xlink:href="#25" y="21.71"/><use xlink:href="#52" y="23.881"/><use xlink:href="#53" y="26.052"/><use xlink:href="#54" y="28.223"/><use xlink:href="#55" y="30.394"/><use xlink:href="#64" y="32.565"/><use xlink:href="#65" y="34.736"/><use xlink:href="#58" y="36.907"/><use xlink:href="#26" y="39.078"/><use xlink:href="#27" y="41.249"/><use xlink:href="#40" y="43.42"/><use xlink:href="#76" y="45.591"/><use xlink:href="#2" y="47.762"/></svg><svg x="3458"><use xlink:href="#a"/><use xlink:href="#10"/><use xlink:href="#11" y="2.171"/><use xlink:href="#12" y="4.342"/><use xlink:href="#13" y="6.513"/><use xlink:href="#14" y="8.684"/><use xlink:href="#63" y="10.855"/><use xlink:href="#17" y="13.026"/><use xlink:href="#18" y="15.197"/><use xlink:href="#25" y="21.71"/><use xlink:href="#52" y="23.881"/><use xlink:href="#53" y="26.052"/><use xlink:href="#54" y="28.223"/><use xlink:href="#55" y="30.394"/><use xlink:href="#64" y="32.565"/><use xlink:href="#65" y="34.736"/><use xlink:href="#58" y="36.907"/><use xlink:href="#26" y="39.078"/><use xlink:href="#27" y="41.249"/><use xlink:href="#40" y="43.42"/><use xlink:href="#76" y="45.591"/><use xlink:href="#2" y="47.762"/></svg><svg x="3549"><use xlink:href="#a"/><use xlink:href="#10"/><use xlink:href="#11" y="2.171"/><use xlink:href="#12" y="4.342"/><use xlink:href="#13" y="6.513"/><use xlink:href="#14" y="8.684"/><use xlink:href="#63" y="10.855"/><use xlink:href="#17" y="13.026"/><use xlink:href="#18" y="15.197"/><use xlink:href="#25" y="21.71"/><use xlink:href="#52" y="23.881"/><use xlink:href="#53" y="26.052"/><use xlink:href="#54" y="28.223"/><use xlink:href="#55" y="30.394"/><use xlink:href="#64" y="32.565"/><use xlink:href="#65" y="34.736"/><use xlink:href="#58" y="36.907"/><use xlink:href="#26" y="39.078"/><use xlink:href="#27" y="41.249"/><use xlink:href="#40" y="43.42"/><use xlink:href="#76" y="45.591"/><use xlink:href="#2" y="47.762"/></svg><svg x="3640"><use xlink:href="#a"/><use xlink:href="#10"/><use xlink:href="#11" y="2.171"/><use xlink:href="#12" y="4.342"/><use xlink:href="#13" y="6.513"/><use xlink:href="#14" y="8.684"/><use xlink:href="#63" y="10.855"/><use xlink:href="#17" y="13.026"/><use xlink:href="#18" y="15.197"/><use xlink:href="#25" y="21.71"/><use xlink:href="#52" y="23.881"/><use xlink:href="#53" y="26.052"/><use xlink:href="#54" y="28.223"/><use xlink:href="#55" y="30.394"/><use xlink:href="#64" y="32.565"/><use xlink:href="#65" y="34.736"/><use xlink:href="#58" y="36.907"/><use xlink:href="#26" y="39.078"/><use xlink:href="#27" y="41.249"/><use xlink:href="#40" y="43.42"/><use xlink:href="#76" y="45.591"/><use xlink:href="#2" y="47.762"/></svg><svg x="3731"><use xlink:href="#a"/><use xlink:href="#10"/><use xlink:href="#11" y="2.171"/><use xlink:href="#12" y="4.342"/><use xlink:href="#13" y="6.513"/><use xlink:href="#14" y="8.684"/><use xlink:href="#63" y="10.855"/><use xlink:href="#17" y="13.026"/><use xlink:href="#18" y="15.197"/><use xlink:href="#25" y="21.71"/><use xlink:href="#52" y="23.881"/><use xlink:href="#53" y="26.052"/><use xlink:href="#54" y="28.223"/><use xlink:href="#55" y="30.394"/><use xlink:href="#64" y="32.565"/><use xlink:href="#65" y="34.736"/><use xlink:href="#58" y="36.907"/><use xlink:href="#26" y="39.078"/><use xlink:href="#27" y="41.249"/><use xlink:href="#40" y="43.42"/><use xlink:href="#76" y="45.591"/><use xlink:href="#2" y="47.762"/><text y="53.774" class="f">bash-3.2$</text></svg></svg></g></g></svg></svg>