<?xml version="1.0" encoding="UTF-8"?>
<svg width="111px" height="37px" viewBox="0 0 111 37" version="1.1" xmlns="http://www.w3.org/2000/svg" xmlns:xlink="http://www.w3.org/1999/xlink">
    <title>Artboard</title>
    <defs>
        <linearGradient x1="50%" y1="-14.329275%" x2="50%" y2="100%" id="linearGradient-1">
            <stop stop-color="#FFFFFF" offset="0%"></stop>
            <stop stop-color="#F4F4F4" offset="100%"></stop>
        </linearGradient>
    </defs>
    <g id="Artboard" stroke="none" stroke-width="1" fill="none" fill-rule="evenodd">
        <path d="M47.1407646,25.3885135 C48.9471202,25.3885135 50.4453823,24.845533 51.6355511,23.7595721 C52.82572,22.6736111 53.4208044,21.3089339 53.4208044,19.6655405 C53.4208044,17.9725976 52.8341609,16.5666291 51.6608739,15.4476351 C50.4875869,14.3286411 49.0146475,13.7691441 47.2420556,13.7691441 C45.4525819,13.7691441 43.9648709,14.324512 42.7789225,15.4352477 C41.5929742,16.5459835 41,17.9354354 41,19.6036036 C41,21.2552553 41.5866435,22.6323198 42.7599305,23.7347973 C43.9332175,24.8372748 45.3934955,25.3885135 47.1407646,25.3885135 Z M47.2167329,23.2826577 C46.0772095,23.2826577 45.1444886,22.9378754 44.41857,22.2483108 C43.6926514,21.5587462 43.3296922,20.6689189 43.3296922,19.5788288 C43.3296922,18.4804805 43.6842105,17.5762012 44.3932473,16.865991 C45.102284,16.1557808 46.0096822,15.8006757 47.1154419,15.8006757 C48.2549652,15.8006757 49.2003476,16.1557808 49.9515889,16.865991 C50.7028302,17.5762012 51.0784508,18.4722222 51.0784508,19.5540541 C51.0784508,20.6441441 50.7176018,21.5381006 49.9959037,22.2359234 C49.2742056,22.9337462 48.3478153,23.2826577 47.2167329,23.2826577 Z M58.1814796,31 L58.1814796,24.9054054 C59.0846574,25.2274775 59.9076465,25.3885135 60.6504469,25.3885135 C62.3301887,25.3885135 63.7123883,24.8393393 64.7970457,23.740991 C65.8817031,22.6426426 66.4240318,21.2387387 66.4240318,19.5292793 C66.4240318,17.7207207 65.8479394,16.3126877 64.6957547,15.3051802 C63.54357,14.2976727 61.9334657,13.7939189 59.8654419,13.7939189 L59.8654419,13.7939189 L55.8264647,13.7939189 L55.8264647,31 L58.1814796,31 Z M60.4098808,23.4436937 C59.6333168,23.4436937 58.8905164,23.2661411 58.1814796,22.911036 L58.1814796,22.911036 L58.1814796,15.8997748 L59.8147964,15.8997748 C60.8952334,15.8997748 61.7161122,16.0298423 62.277433,16.2899775 C62.8387537,16.5501126 63.2819017,16.9650901 63.6068769,17.5349099 C63.931852,18.1047297 64.0943396,18.7612613 64.0943396,19.5045045 C64.0943396,20.6606607 63.7503724,21.6062312 63.0624379,22.3412162 C62.3745035,23.0762012 61.4903178,23.4436937 60.4098808,23.4436937 Z M73.0206058,25.3885135 C74.067279,25.3885135 75.0337637,25.1448949 75.9200596,24.6576577 L75.9200596,24.6576577 L75.9200596,22.5518018 C75,23.0968468 74.1263654,23.3693694 73.2991559,23.3693694 C72.1933962,23.3693694 71.6405164,22.716967 71.6405164,21.4121622 L71.6405164,21.4121622 L71.6405164,15.8254505 L75.3249752,15.8254505 L75.3249752,13.7939189 L71.6405164,13.7939189 L71.6405164,11.4403153 L67.3103277,15.6024775 L67.3103277,15.8254505 L69.336147,15.8254505 L69.336147,20.8795045 C69.336147,21.9117868 69.3846822,22.6116742 69.4817527,22.9791667 C69.5788232,23.3466592 69.6991063,23.6439565 69.8426018,23.8710586 C69.9860973,24.0981607 70.167577,24.3025526 70.3870407,24.4842342 C71.0876365,25.0870871 71.9654916,25.3885135 73.0206058,25.3885135 Z M78.7688679,11.6632883 C79.148709,11.6632883 79.4736842,11.5311562 79.7437934,11.2668919 C80.0139027,11.0026276 80.1489573,10.6888138 80.1489573,10.3254505 C80.1489573,9.95382883 80.0139027,9.64001502 79.7437934,9.38400901 C79.4736842,9.128003 79.148709,9 78.7688679,9 C78.4143496,9 78.1020357,9.1341967 77.8319265,9.40259009 C77.5618173,9.67098348 77.4267627,9.9786036 77.4267627,10.3254505 C77.4267627,10.6805556 77.5618173,10.9923048 77.8319265,11.2606982 C78.1020357,11.5290916 78.4143496,11.6632883 78.7688679,11.6632883 Z M79.933714,25.1903153 L79.933714,13.7939189 L77.6293446,13.7939189 L77.6293446,25.1903153 L79.933714,25.1903153 Z M88.6067527,25.3885135 C89.7125124,25.3885135 90.8435948,25.1779279 92,24.7567568 L92,24.7567568 L92,22.527027 C90.8520357,23.0307808 89.8349057,23.2826577 88.9486097,23.2826577 C87.7246773,23.2826577 86.751862,22.9399399 86.0301639,22.2545045 C85.3084657,21.5690691 84.9476167,20.6441441 84.9476167,19.4797297 C84.9476167,18.3731231 85.2810328,17.4626502 85.9478649,16.7483108 C86.6146971,16.0339715 87.4672294,15.6768018 88.5054618,15.6768018 C89.5014896,15.6768018 90.5819265,16.0401652 91.7467726,16.7668919 L91.7467726,16.7668919 L91.7467726,14.3637387 C91.0461768,14.0581832 90.457423,13.8496622 89.9805114,13.7381757 C89.5035998,13.6266892 88.9654916,13.5709459 88.3661867,13.5709459 C86.6442403,13.5709459 85.25571,14.1201201 84.2005958,15.2184685 C83.1454816,16.3168168 82.6179245,17.762012 82.6179245,19.5540541 C82.6179245,21.3295796 83.1602532,22.7458709 84.2449106,23.8029279 C85.329568,24.859985 86.7835154,25.3885135 88.6067527,25.3885135 Z" id="optic" fill="#1B1F90" fill-rule="nonzero"></path>
        <g id="logo-bare" transform="translate(5.000000, 3.000000)">
            <g id="Oval" fill="url(#linearGradient-1)" fill-rule="nonzero">
                <g id="path-2-link">
                    <circle id="path-2" cx="14.5" cy="14.5" r="14.5"></circle>
                </g>
            </g>
            <path d="M19.8921875,7.6264925 C18.40166,6.4815 16.531015,5.8 14.4999275,5.8 C12.46884,5.8 10.598195,6.4815 9.1076675,7.6264925 M15.7535975,23.2 C17.5527575,22.9458875 19.1769025,22.15281 20.4546425,20.990925 C22.212405,19.392445 23.314405,17.09579 23.314405,14.5438625 C23.314405,12.5928875 22.6702425,10.7911175 21.5814375,9.336405 M13.24633,23.2 C11.44717,22.9458875 9.823025,22.15281 8.545285,20.990925 C6.7875225,19.392445 5.685479,17.09579 5.685479,14.5438625 C5.685479,12.5928875 6.3296125,10.7911175 7.41849,9.336405" id="Shape" stroke="#343BE5" stroke-width="1.08947412" stroke-linecap="round"></path>
            <path d="M10.7883625,19.20293 C11.81431,19.986365 13.1018375,20.4526125 14.4999275,20.4526125 C15.897945,20.4526125 17.185545,19.986365 18.21142,19.20293 M13.6370325,8.5473875 C12.39866,8.7212425 11.28071,9.263905 10.4012125,10.0588675 C9.1913325,11.1526025 8.432765,12.723895 8.432765,14.469985 C8.432765,15.8049275 8.876175,17.0377175 9.6256075,18.0329975 M15.36275,8.5473875 C16.601195,8.7212425 17.719145,9.263905 18.59857,10.0588675 C19.80845,11.1526025 20.5670175,12.723895 20.5670175,14.469985 C20.5670175,15.8049275 20.1236075,17.0377175 19.374175,18.0329975" id="Shape" stroke="#343BE5" stroke-width="1.08947412" stroke-linecap="round"></path>
        </g>
    </g>
</svg>