<?xml version="1.0" encoding="UTF-8"?>
<svg width="842px" height="112px" viewBox="0 0 842 112" version="1.1" xmlns="http://www.w3.org/2000/svg" xmlns:xlink="http://www.w3.org/1999/xlink">
    <title>Artboard</title>
    <g id="Artboard" stroke="none" stroke-width="1" fill="none" fill-rule="evenodd">
        <rect fill="#F4F5FA" x="0" y="0" width="842" height="112"></rect>
        <rect id="Rectangle" fill="#B2BDDE" fill-rule="nonzero" x="602" y="69" width="168" height="4" rx="2"></rect>
        <rect id="Rectangle" fill="#B2BDDE" fill-rule="nonzero" x="602" y="92" width="228" height="4" rx="2"></rect>
        <rect id="Rectangle" stroke="#A0A9C4" x="578" y="86" width="16" height="15" rx="1"></rect>
        <rect id="Rectangle" stroke="#A0A9C4" x="578" y="61" width="16" height="15" rx="1"></rect>
        <path d="M28.7272394,49.2982955 C30.6562833,49.2982955 32.3920954,48.8597301 33.9346757,47.9825994 C35.4772561,47.1054688 36.6981257,45.8320257 37.5972845,44.1622703 C38.4964433,42.4925149 38.9460227,40.4687278 38.9460227,38.0909091 C38.9460227,35.7130904 38.4964433,33.6893033 37.5972845,32.0195479 C36.6981257,30.3497925 35.4772561,29.0763494 33.9346757,28.1992188 C32.3920954,27.3220881 30.6562833,26.8835227 28.7272394,26.8835227 C26.7897616,26.8835227 25.0507868,27.3220881 23.5103149,28.1992188 C21.9698431,29.0763494 20.751082,30.3497925 19.8540316,32.0195479 C18.9569813,33.6893033 18.5084561,35.7130904 18.5084561,38.0909091 C18.5084561,40.4601829 18.9569813,42.4796975 19.8540316,44.1494529 C20.751082,45.8192083 21.9698431,47.0947876 23.5103149,47.9761907 C25.0507868,48.8575939 26.7897616,49.2982955 28.7272394,49.2982955 Z M28.7272394,45.2160423 C27.61074,45.2160423 26.6373679,44.9429377 25.8071234,44.3967285 C24.9768788,43.8505194 24.3327082,43.0479348 23.8746116,41.9889748 C23.416515,40.9300149 23.1874667,39.6306596 23.1874667,38.0909091 C23.1874667,36.5511586 23.416515,35.2518033 23.8746116,34.1928434 C24.3327082,33.1338834 24.9768788,32.3312988 25.8071234,31.7850897 C26.6373679,31.2388805 27.61074,30.9657759 28.7272394,30.9657759 C29.8437389,30.9657759 30.8171109,31.2388805 31.6473555,31.7850897 C32.4776001,32.3312988 33.1217984,33.1338834 33.5799505,34.1928434 C34.0381026,35.2518033 34.2671786,36.5511586 34.2671786,38.0909091 C34.2671786,39.6306596 34.0381026,40.9300149 33.5799505,41.9889748 C33.1217984,43.0479348 32.4776001,43.8505194 31.6473555,44.3967285 C30.8171109,44.9429377 29.8437389,45.2160423 28.7272394,45.2160423 Z M48.9468096,55.1363636 L48.9468096,46.3835893 L49.0831399,46.3835893 C49.2933228,46.8352495 49.5933661,47.2823042 49.9832698,47.7247536 C50.3731735,48.167203 50.874605,48.534385 51.4875644,48.8262995 C52.1005239,49.118214 52.8473445,49.2641713 53.7280263,49.2641713 C54.9723667,49.2641713 56.0963013,48.9424328 57.0998303,48.2989557 C58.1033592,47.6554787 58.8988138,46.7073253 59.4861939,45.4544955 C60.0735741,44.2016657 60.3672641,42.6618874 60.3672641,40.8351607 C60.3672641,38.963046 60.0650569,37.4034035 59.4606424,36.1562334 C58.8562279,34.9090632 58.0508135,33.9751143 57.0443993,33.3543868 C56.037985,32.7336592 54.9353572,32.4232955 53.7365157,32.4232955 C52.8245395,32.4232955 52.0610452,32.5777699 51.4460328,32.8867188 C50.8310204,33.1956676 50.3338613,33.578469 49.9545555,34.035123 C49.5752498,34.4917769 49.2847779,34.9431596 49.0831399,35.3892711 L49.0831399,35.3892711 L48.8870506,35.3892711 L48.8870506,32.6363636 L44.4127853,32.6363636 L44.4127853,55.1363636 L48.9468096,55.1363636 Z M52.2876521,45.6506681 C51.560446,45.6506681 50.941494,45.4500289 50.4307962,45.0487504 C49.9200984,44.647472 49.5294457,44.0849498 49.258838,43.3611839 C48.9882303,42.6374179 48.8529264,41.7897505 48.8529264,40.8181818 C48.8529264,39.8437278 48.9868154,38.9988903 49.2545932,38.2836692 C49.5223711,37.5684482 49.9115812,37.0151645 50.4222235,36.6238181 C50.9328658,36.2324718 51.5546754,36.0367987 52.2876521,36.0367987 C53.0377187,36.0367987 53.6680731,36.2381592 54.1787154,36.6408802 C54.6893578,37.0436013 55.0757103,37.6039873 55.3377731,38.3220381 C55.5998358,39.040089 55.7308672,39.8721369 55.7308672,40.8181818 C55.7308672,41.7698864 55.5984209,42.6090365 55.3335283,43.3356323 C55.0686358,44.0622281 54.6808683,44.6297164 54.170226,45.038097 C53.6595837,45.4464777 53.0320591,45.6506681 52.2876521,45.6506681 Z M71.7045376,49.2331357 L72.0640706,49.2258856 C72.6521166,49.2045787 73.1531598,49.1463457 73.5672001,49.0511863 C73.9812404,48.9560269 74.301231,48.8722146 74.5271721,48.7997492 L74.5271721,48.7997492 L73.8112297,45.4162931 C73.7003677,45.4418169 73.5380696,45.4737493 73.3243356,45.5120905 C73.1106016,45.5504317 72.8950365,45.5696023 72.6776404,45.5696023 C72.3765706,45.5696023 72.1109567,45.5237982 71.8807987,45.4321899 C71.6506407,45.3405817 71.4702263,45.1786444 71.3395556,44.9463778 C71.2088849,44.7141113 71.1435495,44.3877397 71.1435495,43.967263 L71.1435495,43.967263 L71.143,36.046 L74.2288766,36.0454545 L74.2288766,32.6363636 L71.143,32.637 L71.1435495,28.7159091 L66.6095252,28.7159091 L66.609,32.637 L64.3679813,32.6363636 L64.3679813,36.0454545 L66.609,36.046 L66.6095252,44.5725098 C66.6017571,45.5422121 66.7853486,46.3628805 67.1602998,47.0345148 L67.278526,47.2315341 C67.7330714,47.9375444 68.3708611,48.4570923 69.1918949,48.7901778 C70.0129287,49.1232633 70.9703206,49.2684992 72.0640706,49.2258856 L71.7045376,49.2331357 Z M81.6067557,30.5269886 C82.2814716,30.5269886 82.8585313,30.3014915 83.3379347,29.8504972 C83.8173381,29.3995028 84.0570398,28.8579545 84.0570398,28.2258523 C84.0570398,27.6008523 83.8173381,27.0628551 83.3379347,26.6118608 C82.8585313,26.1608665 82.2779205,25.9353693 81.5961023,25.9353693 C80.9284887,25.9353693 80.3532046,26.1608665 79.87025,26.6118608 C79.3872955,27.0628551 79.1458182,27.6008523 79.1458182,28.2258523 C79.1458182,28.8579545 79.3872955,29.3995028 79.87025,29.8504972 C80.3532046,30.3014915 80.9320398,30.5269886 81.6067557,30.5269886 Z M83.854625,49 L83.854625,32.6363636 L79.3162727,32.6363636 L79.3162727,49 L83.854625,49 Z M97.017326,49.3152743 C98.4718493,49.3152743 99.732142,49.0503817 100.798204,48.5205966 C101.864266,47.9908114 102.700559,47.2511208 103.307082,46.3015248 C103.913605,45.3519287 104.251657,44.2514094 104.321237,42.9999667 L104.321237,42.9999667 L100.042894,42.9999667 C99.9548926,43.5795787 99.7741453,44.0728538 99.5006523,44.4797918 C99.2271593,44.8867298 98.8837534,45.1964 98.4704344,45.4088024 C98.0571154,45.6212047 97.5897803,45.7274059 97.0684291,45.7274059 C96.3638614,45.7274059 95.7495149,45.5352839 95.2253893,45.1510398 C94.7012638,44.7667958 94.2950193,44.2092396 94.006656,43.4783714 C93.7182926,42.7475031 93.5741109,41.8607733 93.5741109,40.8181818 C93.5741109,39.7869096 93.7197075,38.9094183 94.0109007,38.1857078 C94.3020939,37.4619973 94.7097532,36.9101562 95.2338788,36.5301847 C95.7580043,36.1502131 96.3695211,35.9602273 97.0684291,35.9602273 C97.9037229,35.9602273 98.5774124,36.211276 99.0894973,36.7133734 C99.6015823,37.2154707 99.9193812,37.873513 100.042894,38.6875 L100.042894,38.6875 L104.321237,38.6875 C104.260202,37.4260698 103.917878,36.3255504 103.294265,35.3859419 C102.670652,34.4463335 101.82157,33.7176569 100.747018,33.1999123 C99.6724663,32.6821677 98.423576,32.4232955 97.0003471,32.4232955 C95.344075,32.4232955 93.9157968,32.7794633 92.7155127,33.4917991 C91.5152286,34.2041349 90.5897969,35.1956232 89.9392177,36.4662642 C89.2886384,37.7369052 88.9633487,39.2074086 88.9633487,40.8777743 C88.9633487,42.5369318 89.2850873,44.001082 89.9285643,45.2702248 C90.5720413,46.5393677 91.4946154,47.5308283 92.6962866,48.2446067 C93.8979579,48.9583851 95.3383044,49.3152743 97.017326,49.3152743 Z M123.018975,49 L123.018975,39.5397727 C123.023192,38.8352051 123.158468,38.2332597 123.424803,37.7339367 C123.691138,37.2346136 124.061871,36.8525058 124.537002,36.5876132 C125.012133,36.3227206 125.55726,36.1902743 126.172384,36.1902743 C127.098565,36.1902743 127.818391,36.4715354 128.331863,37.0340576 C128.845335,37.5965798 129.099963,38.3806596 129.095746,39.3862971 L129.095746,39.3862971 L129.095746,49 L133.629826,49 L133.629826,38.576638 C133.633987,37.2982289 133.40136,36.1995128 132.931889,35.2804898 C132.462417,34.3614668 131.803321,33.655512 130.954599,33.1626254 C130.105878,32.6697388 129.111227,32.4232955 127.970646,32.4232955 C126.731965,32.4232955 125.700693,32.6992298 124.876829,33.2510986 C124.052966,33.8029674 123.453545,34.561135 123.078567,35.5256015 L123.078567,35.5256015 L122.891134,35.5256015 L122.891134,27.1818182 L118.48495,27.1818182 L118.48495,49 L123.018975,49 Z M146.800929,49.3152743 C148.151804,49.3152743 149.344653,49.1089755 150.379476,48.6963778 C151.414299,48.2837802 152.259109,47.7028365 152.913905,46.9535467 C153.568702,46.2042569 154.002634,45.323908 154.215702,44.3125 L154.215702,44.3125 L150.022587,44.0398393 C149.869222,44.4503285 149.641977,44.7965643 149.340852,45.0785467 C149.039727,45.3605291 148.680701,45.5732366 148.263776,45.7166693 C147.84685,45.8601019 147.384814,45.9318182 146.877667,45.9318182 C146.121941,45.9318182 145.467089,45.7727384 144.913112,45.4545787 C144.359135,45.1364191 143.930169,44.682595 143.626213,44.0931064 C143.322258,43.5036177 143.170281,42.8039884 143.170281,41.9942183 L143.170281,41.9942183 L143.17,41.978 L154.318075,41.9772394 L154.318075,40.7329545 C154.318075,39.3423517 154.122041,38.1271695 153.729973,37.0874079 C153.337906,36.0476463 152.792445,35.1822232 152.093593,34.4911388 C151.39474,33.8000544 150.5787,33.2826427 149.645473,32.9389038 C148.712245,32.5951649 147.704416,32.4232955 146.621985,32.4232955 C145.016872,32.4232955 143.620582,32.7784091 142.433115,33.4886364 C141.245648,34.1988636 140.324489,35.1896307 139.669637,36.4609375 C139.014785,37.7322443 138.68736,39.2102384 138.68736,40.8949197 C138.68736,42.6222146 139.013703,44.1161887 139.666391,45.3768422 C140.319079,46.6374956 141.251613,47.6090643 142.463993,48.2915483 C143.676373,48.9740323 145.122019,49.3152743 146.800929,49.3152743 Z M143.180292,39.0786122 C143.219533,38.525984 143.369949,38.0184715 143.63154,37.5560747 C143.930501,37.0276212 144.344902,36.603954 144.874743,36.285073 C145.404584,35.9661921 146.012577,35.8067516 146.698723,35.8067516 C147.356349,35.8067516 147.935545,35.9512939 148.436311,36.2403786 C148.937077,36.5294633 149.329838,36.926497 149.614595,37.4314797 C149.899351,37.9364624 150.043894,38.5142156 150.048222,39.1647394 L150.048222,39.1647394 L143.176,39.165 L143.180292,39.0786122 Z M163.96088,49 L163.96088,27.1818182 L159.426856,27.1818182 L159.426856,49 L163.96088,49 Z M174.268467,55.1363636 L174.268467,46.3835893 L174.404798,46.3835893 C174.614981,46.8352495 174.915024,47.2823042 175.304928,47.7247536 C175.694831,48.167203 176.196263,48.534385 176.809222,48.8262995 C177.422182,49.118214 178.169002,49.2641713 179.049684,49.2641713 C180.294024,49.2641713 181.417959,48.9424328 182.421488,48.2989557 C183.425017,47.6554787 184.220471,46.7073253 184.807852,45.4544955 C185.395232,44.2016657 185.688922,42.6618874 185.688922,40.8351607 C185.688922,38.963046 185.386715,37.4034035 184.7823,36.1562334 C184.177886,34.9090632 183.372471,33.9751143 182.366057,33.3543868 C181.359643,32.7336592 180.257015,32.4232955 179.058173,32.4232955 C178.146197,32.4232955 177.382703,32.5777699 176.767691,32.8867188 C176.152678,33.1956676 175.655519,33.578469 175.276213,34.035123 C174.896907,34.4917769 174.606436,34.9431596 174.404798,35.3892711 L174.404798,35.3892711 L174.208708,35.3892711 L174.208708,32.6363636 L169.734443,32.6363636 L169.734443,55.1363636 L174.268467,55.1363636 Z M177.60931,45.6506681 C176.882104,45.6506681 176.263152,45.4500289 175.752454,45.0487504 C175.241756,44.647472 174.851103,44.0849498 174.580496,43.3611839 C174.309888,42.6374179 174.174584,41.7897505 174.174584,40.8181818 C174.174584,39.8437278 174.308473,38.9988903 174.576251,38.2836692 C174.844029,37.5684482 175.233239,37.0151645 175.743881,36.6238181 C176.254524,36.2324718 176.876333,36.0367987 177.60931,36.0367987 C178.359376,36.0367987 178.989731,36.2381592 179.500373,36.6408802 C180.011015,37.0436013 180.397368,37.6039873 180.659431,38.3220381 C180.921494,39.040089 181.052525,39.8721369 181.052525,40.8181818 C181.052525,41.7698864 180.920079,42.6090365 180.655186,43.3356323 C180.390293,44.0622281 180.002526,44.6297164 179.491884,45.038097 C178.981241,45.4464777 178.353717,45.6506681 177.60931,45.6506681 Z M197.547693,49.3152743 C198.96382,49.3152743 200.218398,49.0904985 201.311426,48.6409468 C202.404455,48.1913952 203.26383,47.5621504 203.889551,46.7532127 C204.515273,45.9442749 204.830242,45.0028631 204.834459,43.9289773 C204.830242,42.7472257 204.438563,41.7944669 203.659421,41.0707009 C202.88028,40.3469349 201.69531,39.822421 200.104512,39.4971591 L200.104512,39.4971591 L197.138536,38.9005682 C196.37715,38.7357733 195.840568,38.5191539 195.528789,38.2507102 C195.217011,37.9822665 195.06323,37.6505682 195.067447,37.2556152 C195.06323,36.7698864 195.302598,36.3799827 195.785553,36.0859042 C196.268508,35.7918257 196.861547,35.6447865 197.564672,35.6447865 C198.091683,35.6447865 198.545896,35.7310957 198.92731,35.9037143 C199.308724,36.0763328 199.615897,36.3068237 199.84883,36.5951871 C200.081762,36.8835505 200.235182,37.203125 200.30909,37.5539107 L200.30909,37.5539107 L204.459592,37.2982289 C204.260728,35.7925471 203.56576,34.6036377 202.374687,33.7315008 C201.183613,32.8593639 199.554696,32.4232955 197.487934,32.4232955 C196.094557,32.4232955 194.876906,32.6289007 193.83498,33.0401112 C192.793055,33.4513217 191.985532,34.0365379 191.412412,34.7957597 C190.839292,35.5549816 190.55484,36.4601607 190.559057,37.5112971 C190.55484,38.7343306 190.941914,39.7407449 191.720279,40.5305398 C192.498643,41.3203347 193.688274,41.8735906 195.289171,42.1903076 L195.289171,42.1903076 L198.11865,42.7527743 C198.831762,42.8977051 199.358412,43.1029774 199.6986,43.3685913 C200.038788,43.6342052 200.211046,43.9744207 200.215374,44.3892378 C200.211046,44.8750777 199.964908,45.2735263 199.476959,45.5845836 C198.989011,45.895641 198.348752,46.0511697 197.556183,46.0511697 C196.743639,46.0511697 196.079188,45.8789395 195.56283,45.5344793 C195.046473,45.1900191 194.719435,44.6860906 194.581718,44.022694 L194.581718,44.022694 L190.124431,44.2613969 C190.338942,45.8238969 191.087871,47.0568348 192.371219,47.9602106 C193.654566,48.8635864 195.380058,49.3152743 197.547693,49.3152743 Z M225.124422,49.2331357 L225.483955,49.2258856 C226.072001,49.2045787 226.573045,49.1463457 226.987085,49.0511863 C227.401125,48.9560269 227.721116,48.8722146 227.947057,48.7997492 L227.947057,48.7997492 L227.231115,45.4162931 C227.120252,45.4418169 226.957954,45.4737493 226.74422,45.5120905 C226.530486,45.5504317 226.314921,45.5696023 226.097525,45.5696023 C225.796455,45.5696023 225.530842,45.5237982 225.300683,45.4321899 C225.070525,45.3405817 224.890111,45.1786444 224.75944,44.9463778 C224.62877,44.7141113 224.563434,44.3877397 224.563434,43.967263 L224.563434,43.967263 L224.563,36.046 L227.648761,36.0454545 L227.648761,32.6363636 L224.563,32.637 L224.563434,28.7159091 L220.02941,28.7159091 L220.029,32.637 L217.787866,32.6363636 L217.787866,36.0454545 L220.029,36.046 L220.02941,44.5725098 C220.021642,45.5422121 220.205233,46.3628805 220.580185,47.0345148 L220.698411,47.2315341 C221.152956,47.9375444 221.790746,48.4570923 222.61178,48.7901778 C223.432814,49.1232633 224.390205,49.2684992 225.483955,49.2258856 L225.124422,49.2331357 Z M240.018761,49.3152743 C241.369636,49.3152743 242.562485,49.1089755 243.597308,48.6963778 C244.632131,48.2837802 245.476941,47.7028365 246.131737,46.9535467 C246.786534,46.2042569 247.220466,45.323908 247.433534,44.3125 L247.433534,44.3125 L243.240419,44.0398393 C243.087054,44.4503285 242.859809,44.7965643 242.558684,45.0785467 C242.257559,45.3605291 241.898533,45.5732366 241.481608,45.7166693 C241.064682,45.8601019 240.602646,45.9318182 240.095499,45.9318182 C239.339773,45.9318182 238.684921,45.7727384 238.130944,45.4545787 C237.576967,45.1364191 237.148001,44.682595 236.844046,44.0931064 C236.54009,43.5036177 236.388113,42.8039884 236.388113,41.9942183 L236.388113,41.9942183 L236.388,41.978 L247.535907,41.9772394 L247.535907,40.7329545 C247.535907,39.3423517 247.339873,38.1271695 246.947805,37.0874079 C246.555738,36.0476463 246.010278,35.1822232 245.311425,34.4911388 C244.612572,33.8000544 243.796532,33.2826427 242.863305,32.9389038 C241.930077,32.5951649 240.922248,32.4232955 239.839817,32.4232955 C238.234704,32.4232955 236.838414,32.7784091 235.650947,33.4886364 C234.46348,34.1988636 233.542321,35.1896307 232.887469,36.4609375 C232.232618,37.7322443 231.905192,39.2102384 231.905192,40.8949197 C231.905192,42.6222146 232.231536,44.1161887 232.884223,45.3768422 C233.536911,46.6374956 234.469445,47.6090643 235.681825,48.2915483 C236.894205,48.9740323 238.339851,49.3152743 240.018761,49.3152743 Z M236.398124,39.0786122 C236.437365,38.525984 236.587781,38.0184715 236.849372,37.5560747 C237.148334,37.0276212 237.562734,36.603954 238.092575,36.285073 C238.622416,35.9661921 239.230409,35.8067516 239.916555,35.8067516 C240.574181,35.8067516 241.153377,35.9512939 241.654143,36.2403786 C242.154909,36.5294633 242.54767,36.926497 242.832427,37.4314797 C243.117183,37.9364624 243.261726,38.5142156 243.266054,39.1647394 L243.266054,39.1647394 L236.394,39.165 L236.398124,39.0786122 Z M257.306553,49.3067849 C258.113438,49.3067849 258.826883,49.1988359 259.446889,48.9829379 C260.066896,48.7670399 260.596015,48.4651933 261.034247,48.0773981 C261.47248,47.6896029 261.823654,47.2414662 262.08777,46.7329878 L262.08777,46.7329878 L262.215611,46.7329878 L262.215611,49 L266.519588,49 L266.519588,37.9630682 C266.519588,36.9871715 266.331017,36.1494363 265.953875,35.4498624 C265.576733,34.7502885 265.063594,34.177862 264.414458,33.7325828 C263.765321,33.2873036 263.024548,32.9577692 262.19214,32.7439797 C261.359731,32.5301902 260.486873,32.4232955 259.573565,32.4232955 C258.26819,32.4232955 257.119758,32.6203835 256.128269,33.0145597 C255.136781,33.4087358 254.328897,33.9698153 253.704619,34.6977983 C253.08034,35.4257813 252.661667,36.2869318 252.448598,37.28125 L252.448598,37.28125 L256.650203,37.6221591 C256.803679,37.0809437 257.122255,36.631725 257.60593,36.2745028 C258.089606,35.9172807 258.739825,35.7386697 259.556586,35.7386697 C260.326517,35.7386697 260.923829,35.9233287 261.348523,36.2926469 C261.773217,36.6619651 261.985563,37.1847035 261.985563,37.860862 L261.985563,37.860862 L261.985563,37.9204545 C261.985563,38.2699086 261.85345,38.5337746 261.589223,38.7120528 C261.324997,38.8903309 260.901357,39.0238592 260.318305,39.1126376 C259.735253,39.201416 258.969983,39.2926358 258.022495,39.3862971 C257.211394,39.4644221 256.437607,39.6008079 255.701134,39.7954545 C254.964662,39.9901012 254.308783,40.2756348 253.733499,40.6520552 C253.158215,41.0284757 252.705085,41.5245528 252.374108,42.1402865 C252.043131,42.7560203 251.877642,43.5198753 251.877642,44.4318515 C251.877642,45.5099543 252.113432,46.4098067 252.585012,47.1314087 C253.056592,47.8530107 253.701123,48.3959739 254.518606,48.7602983 C255.336088,49.1246227 256.265404,49.3067849 257.306553,49.3067849 Z M258.610597,46.1790106 C257.911689,46.1790106 257.336377,46.0177945 256.884661,45.6953624 C256.432946,45.3729304 256.207088,44.9006015 256.207088,44.2783758 C256.207088,43.8522394 256.317534,43.4953502 256.538425,43.2077082 C256.759317,42.9200661 257.068987,42.6906572 257.467436,42.5194813 C257.865885,42.3483054 258.332166,42.2243763 258.866279,42.147694 C259.114858,42.1121826 259.391486,42.0709839 259.696163,42.0240978 C260.000839,41.9772117 260.304822,41.9239446 260.608111,41.8642967 C260.9114,41.8046487 261.186974,41.7371771 261.434832,41.6618819 C261.68269,41.5865867 261.874812,41.504217 262.011198,41.4147727 L262.011198,41.4147727 L262.011198,43.1534424 C262.011198,43.7243985 261.866295,44.2378706 261.576489,44.6938588 C261.286683,45.1498469 260.886459,45.5113692 260.375817,45.7784257 C259.865174,46.0454823 259.276768,46.1790106 258.610597,46.1790106 Z M276.724959,49 L276.724959,39.1817183 C276.724959,38.5752508 276.841785,38.0457986 277.075439,37.5933616 C277.309093,37.1409246 277.626198,36.789695 278.026755,36.5396729 C278.427312,36.2896507 278.879722,36.1646396 279.383983,36.1646396 C280.131164,36.1646396 280.734164,36.4015115 281.192982,36.8752552 C281.6518,37.348999 281.881209,37.9871493 281.881209,38.7897061 L281.881209,38.7897061 L281.881209,49 L286.278903,49 L286.278903,39.0112638 C286.278903,38.1576594 286.510781,37.4698209 286.974537,36.9477484 C287.438293,36.4256758 288.081437,36.1646396 288.903969,36.1646396 C289.628401,36.1646396 290.231373,36.390858 290.712885,36.843295 C291.194397,37.295732 291.435153,37.9786599 291.435153,38.8920787 L291.435153,38.8920787 L291.435153,49 L295.969177,49 L295.969177,37.9971924 C295.969177,36.2216242 295.490134,34.8487493 294.532049,33.8785678 C293.573963,32.9083862 292.331426,32.4232955 290.804438,32.4232955 C289.607039,32.4232955 288.570107,32.7056108 287.693642,33.2702415 C286.817177,33.8348722 286.212041,34.5866588 285.878235,35.5256015 L285.878235,35.5256015 L285.70778,35.5256015 C285.443664,34.5753396 284.918124,33.8207231 284.131159,33.261752 C283.344194,32.702781 282.389631,32.4232955 281.267472,32.4232955 C280.159518,32.4232955 279.206398,32.6995628 278.408114,33.2520974 C277.60983,33.804632 277.040233,34.5624667 276.699324,35.5256015 L276.699324,35.5256015 L276.51189,35.5256015 L276.51189,32.6363636 L272.190934,32.6363636 L272.190934,49 L276.724959,49 Z M308.390524,49.3152743 C309.806651,49.3152743 311.061229,49.0904985 312.154257,48.6409468 C313.247286,48.1913952 314.106661,47.5621504 314.732382,46.7532127 C315.358104,45.9442749 315.673073,45.0028631 315.67729,43.9289773 C315.673073,42.7472257 315.281394,41.7944669 314.502252,41.0707009 C313.723111,40.3469349 312.538141,39.822421 310.947343,39.4971591 L310.947343,39.4971591 L307.981367,38.9005682 C307.219981,38.7357733 306.683399,38.5191539 306.37162,38.2507102 C306.059842,37.9822665 305.906061,37.6505682 305.910278,37.2556152 C305.906061,36.7698864 306.145429,36.3799827 306.628384,36.0859042 C307.111339,35.7918257 307.704378,35.6447865 308.407503,35.6447865 C308.934514,35.6447865 309.388727,35.7310957 309.770141,35.9037143 C310.151555,36.0763328 310.458728,36.3068237 310.691661,36.5951871 C310.924593,36.8835505 311.078013,37.203125 311.151921,37.5539107 L311.151921,37.5539107 L315.302423,37.2982289 C315.103559,35.7925471 314.408591,34.6036377 313.217518,33.7315008 C312.026444,32.8593639 310.397527,32.4232955 308.330766,32.4232955 C306.937388,32.4232955 305.719737,32.6289007 304.677811,33.0401112 C303.635886,33.4513217 302.828363,34.0365379 302.255243,34.7957597 C301.682123,35.5549816 301.397671,36.4601607 301.401888,37.5112971 C301.397671,38.7343306 301.784745,39.7407449 302.56311,40.5305398 C303.341474,41.3203347 304.531105,41.8735906 306.132002,42.1903076 L306.132002,42.1903076 L308.961481,42.7527743 C309.674593,42.8977051 310.201243,43.1029774 310.541431,43.3685913 C310.881619,43.6342052 311.053877,43.9744207 311.058205,44.3892378 C311.053877,44.8750777 310.807739,45.2735263 310.31979,45.5845836 C309.831842,45.895641 309.191583,46.0511697 308.399014,46.0511697 C307.58647,46.0511697 306.922019,45.8789395 306.405661,45.5344793 C305.889304,45.1900191 305.562266,44.6860906 305.424549,44.022694 L305.424549,44.022694 L300.967262,44.2613969 C301.181773,45.8238969 301.930702,47.0568348 303.21405,47.9602106 C304.497397,48.8635864 306.222889,49.3152743 308.390524,49.3152743 Z M335.967253,49.2331357 L336.326786,49.2258856 C336.914832,49.2045787 337.415876,49.1463457 337.829916,49.0511863 C338.243956,48.9560269 338.563947,48.8722146 338.789888,48.7997492 L338.789888,48.7997492 L338.073946,45.4162931 C337.963083,45.4418169 337.800785,45.4737493 337.587051,45.5120905 C337.373317,45.5504317 337.157752,45.5696023 336.940356,45.5696023 C336.639286,45.5696023 336.373673,45.5237982 336.143515,45.4321899 C335.913356,45.3405817 335.732942,45.1786444 335.602271,44.9463778 C335.471601,44.7141113 335.406265,44.3877397 335.406265,43.967263 L335.406265,43.967263 L335.406,36.046 L338.491592,36.0454545 L338.491592,32.6363636 L335.406,32.637 L335.406265,28.7159091 L330.872241,28.7159091 L330.872,32.637 L328.630697,32.6363636 L328.630697,36.0454545 L330.872,36.046 L330.872241,44.5725098 C330.864473,45.5422121 331.048064,46.3628805 331.423016,47.0345148 L331.541242,47.2315341 C331.995787,47.9375444 332.633577,48.4570923 333.454611,48.7901778 C334.275645,49.1232633 335.233036,49.2684992 336.326786,49.2258856 L335.967253,49.2331357 Z M348.117341,49 L348.117341,39.7443515 C348.117341,39.0738525 348.267903,38.4832819 348.569029,37.9726396 C348.870154,37.4619973 349.282446,37.0628551 349.805906,36.7752131 C350.329366,36.487571 350.922739,36.34375 351.586024,36.34375 C351.902852,36.34375 352.249476,36.3678866 352.625897,36.4161599 C353.002317,36.4644331 353.294898,36.5226385 353.503638,36.5907759 L353.503638,36.5907759 L353.503638,32.5574618 C353.306217,32.5091886 353.076475,32.4719294 352.814412,32.4456843 C352.552349,32.4194391 352.307682,32.4063166 352.080409,32.4063166 C351.164216,32.4063166 350.35489,32.6669644 349.652431,33.1882602 C348.949971,33.7095559 348.449594,34.4772949 348.151299,35.4914773 L348.151299,35.4914773 L347.980844,35.4914773 L347.980844,32.6363636 L343.583317,32.6363636 L343.583317,49 L348.117341,49 Z M362.19199,49.3067849 C362.998875,49.3067849 363.712321,49.1988359 364.332327,48.9829379 C364.952333,48.7670399 365.481452,48.4651933 365.919685,48.0773981 C366.357917,47.6896029 366.709091,47.2414662 366.973207,46.7329878 L366.973207,46.7329878 L367.101048,46.7329878 L367.101048,49 L371.405025,49 L371.405025,37.9630682 C371.405025,36.9871715 371.216454,36.1494363 370.839313,35.4498624 C370.462171,34.7502885 369.949032,34.177862 369.299895,33.7325828 C368.650758,33.2873036 367.909986,32.9577692 367.077577,32.7439797 C366.245169,32.5301902 365.37231,32.4232955 364.459002,32.4232955 C363.153627,32.4232955 362.005195,32.6203835 361.013707,33.0145597 C360.022218,33.4087358 359.214335,33.9698153 358.590056,34.6977983 C357.965777,35.4257813 357.547104,36.2869318 357.334036,37.28125 L357.334036,37.28125 L361.53564,37.6221591 C361.689116,37.0809437 362.007692,36.631725 362.491368,36.2745028 C362.975044,35.9172807 363.625262,35.7386697 364.442024,35.7386697 C365.211954,35.7386697 365.809267,35.9233287 366.23396,36.2926469 C366.658654,36.6619651 366.871001,37.1847035 366.871001,37.860862 L366.871001,37.860862 L366.871001,37.9204545 C366.871001,38.2699086 366.738888,38.5337746 366.474661,38.7120528 C366.210434,38.8903309 365.786795,39.0238592 365.203742,39.1126376 C364.62069,39.201416 363.85542,39.2926358 362.907933,39.3862971 C362.096831,39.4644221 361.323044,39.6008079 360.586571,39.7954545 C359.850099,39.9901012 359.194221,40.2756348 358.618937,40.6520552 C358.043653,41.0284757 357.590522,41.5245528 357.259545,42.1402865 C356.928568,42.7560203 356.76308,43.5198753 356.76308,44.4318515 C356.76308,45.5099543 356.99887,46.4098067 357.470449,47.1314087 C357.942029,47.8530107 358.58656,48.3959739 359.404043,48.7602983 C360.221526,49.1246227 361.150842,49.3067849 362.19199,49.3067849 Z M363.496034,46.1790106 C362.797126,46.1790106 362.221814,46.0177945 361.770099,45.6953624 C361.318383,45.3729304 361.092525,44.9006015 361.092525,44.2783758 C361.092525,43.8522394 361.202971,43.4953502 361.423863,43.2077082 C361.644755,42.9200661 361.954425,42.6906572 362.352873,42.5194813 C362.751322,42.3483054 363.217603,42.2243763 363.751716,42.147694 C364.000296,42.1121826 364.276924,42.0709839 364.5816,42.0240978 C364.886276,41.9772117 365.190259,41.9239446 365.493548,41.8642967 C365.796838,41.8046487 366.072411,41.7371771 366.32027,41.6618819 C366.568128,41.5865867 366.76025,41.504217 366.896636,41.4147727 L366.896636,41.4147727 L366.896636,43.1534424 C366.896636,43.7243985 366.751733,44.2378706 366.461927,44.6938588 C366.172121,45.1498469 365.771896,45.5113692 365.261254,45.7784257 C364.750612,46.0454823 364.162205,46.1790106 363.496034,46.1790106 Z M384.46551,49.3152743 C385.920033,49.3152743 387.180326,49.0503817 388.246388,48.5205966 C389.31245,47.9908114 390.148743,47.2511208 390.755266,46.3015248 C391.361789,45.3519287 391.69984,44.2514094 391.76942,42.9999667 L391.76942,42.9999667 L387.491078,42.9999667 C387.403076,43.5795787 387.222329,44.0728538 386.948836,44.4797918 C386.675343,44.8867298 386.331937,45.1964 385.918618,45.4088024 C385.505299,45.6212047 385.037964,45.7274059 384.516613,45.7274059 C383.812045,45.7274059 383.197698,45.5352839 382.673573,45.1510398 C382.149447,44.7667958 381.743203,44.2092396 381.45484,43.4783714 C381.166476,42.7475031 381.022295,41.8607733 381.022295,40.8181818 C381.022295,39.7869096 381.167891,38.9094183 381.459084,38.1857078 C381.750277,37.4619973 382.157937,36.9101562 382.682062,36.5301847 C383.206188,36.1502131 383.817705,35.9602273 384.516613,35.9602273 C385.351907,35.9602273 386.025596,36.211276 386.537681,36.7133734 C387.049766,37.2154707 387.367565,37.873513 387.491078,38.6875 L387.491078,38.6875 L391.76942,38.6875 C391.708385,37.4260698 391.366061,36.3255504 390.742448,35.3859419 C390.118836,34.4463335 389.269753,33.7176569 388.195202,33.1999123 C387.12065,32.6821677 385.87176,32.4232955 384.448531,32.4232955 C382.792259,32.4232955 381.36398,32.7794633 380.163696,33.4917991 C378.963412,34.2041349 378.037981,35.1956232 377.387401,36.4662642 C376.736822,37.7369052 376.411532,39.2074086 376.411532,40.8777743 C376.411532,42.5369318 376.733271,44.001082 377.376748,45.2702248 C378.020225,46.5393677 378.942799,47.5308283 380.14447,48.2446067 C381.346142,48.9583851 382.786488,49.3152743 384.46551,49.3152743 Z M401.369695,27.1818182 L396.835671,27.1818182 L396.835671,49 L401.369695,49 L401.369,43.801 L402.598,42.397 L407.054454,49 L412.372503,49 L405.993,39.73 L412.065718,32.6363636 L406.858365,32.6363636 L401.616721,38.8494651 L401.369,38.85 L401.369695,27.1818182 Z M419.21986,54.3267045 C419.390314,53.8949086 419.616533,53.2983176 419.898515,52.5369318 C420.180498,51.775546 420.450384,50.9289606 420.708174,49.9971757 C420.965965,49.0653908 421.140303,48.1307484 421.23119,47.1932484 L421.23119,47.1932484 L421.350542,46.0170455 L417.600542,46.0170455 L417.549439,47.2102273 C417.50971,48.1732511 417.407088,49.1210438 417.241572,50.0536055 C417.076055,50.9861672 416.900607,51.8263716 416.715227,52.5742188 C416.529846,53.3220659 416.38461,53.9062278 416.279519,54.3267045 L416.279519,54.3267045 L419.21986,54.3267045 Z M440.261363,49 L440.261363,39.7443515 C440.261363,39.0738525 440.411926,38.4832819 440.713051,37.9726396 C441.014177,37.4619973 441.426469,37.0628551 441.949929,36.7752131 C442.473388,36.487571 443.066761,36.34375 443.730047,36.34375 C444.046875,36.34375 444.393499,36.3678866 444.769919,36.4161599 C445.14634,36.4644331 445.43892,36.5226385 445.64766,36.5907759 L445.64766,36.5907759 L445.64766,32.5574618 C445.450239,32.5091886 445.220498,32.4719294 444.958435,32.4456843 C444.696372,32.4194391 444.451704,32.4063166 444.224432,32.4063166 C443.308238,32.4063166 442.498912,32.6669644 441.796453,33.1882602 C441.093994,33.7095559 440.593617,34.4772949 440.295321,35.4914773 L440.295321,35.4914773 L440.124867,35.4914773 L440.124867,32.6363636 L435.727339,32.6363636 L435.727339,49 L440.261363,49 Z M456.816052,49.3152743 C458.166926,49.3152743 459.359775,49.1089755 460.394598,48.6963778 C461.429422,48.2837802 462.274231,47.7028365 462.929028,46.9535467 C463.583824,46.2042569 464.017756,45.323908 464.230824,44.3125 L464.230824,44.3125 L460.037709,44.0398393 C459.884344,44.4503285 459.657099,44.7965643 459.355974,45.0785467 C459.054849,45.3605291 458.695823,45.5732366 458.278898,45.7166693 C457.861972,45.8601019 457.399936,45.9318182 456.892789,45.9318182 C456.137063,45.9318182 455.482211,45.7727384 454.928234,45.4545787 C454.374257,45.1364191 453.945291,44.682595 453.641336,44.0931064 C453.337381,43.5036177 453.185403,42.8039884 453.185403,41.9942183 L453.185403,41.9942183 L453.185,41.978 L464.333197,41.9772394 L464.333197,40.7329545 C464.333197,39.3423517 464.137163,38.1271695 463.745095,37.0874079 C463.353028,36.0476463 462.807568,35.1822232 462.108715,34.4911388 C461.409863,33.8000544 460.593823,33.2826427 459.660595,32.9389038 C458.727367,32.5951649 457.719538,32.4232955 456.637108,32.4232955 C455.031994,32.4232955 453.635704,32.7784091 452.448237,33.4886364 C451.26077,34.1988636 450.339611,35.1896307 449.684759,36.4609375 C449.029908,37.7322443 448.702482,39.2102384 448.702482,40.8949197 C448.702482,42.6222146 449.028826,44.1161887 449.681513,45.3768422 C450.334201,46.6374956 451.266735,47.6090643 452.479115,48.2915483 C453.691495,48.9740323 455.137141,49.3152743 456.816052,49.3152743 Z M453.195414,39.0786122 C453.234655,38.525984 453.385071,38.0184715 453.646662,37.5560747 C453.945624,37.0276212 454.360025,36.603954 454.889865,36.285073 C455.419706,35.9661921 456.027699,35.8067516 456.713845,35.8067516 C457.371471,35.8067516 457.950667,35.9512939 458.451433,36.2403786 C458.952199,36.5294633 459.34496,36.926497 459.629717,37.4314797 C459.914474,37.9364624 460.059016,38.5142156 460.063344,39.1647394 L460.063344,39.1647394 L453.191,39.165 L453.195414,39.0786122 Z M478.510058,49 L484.228774,32.6363636 L479.430579,32.6363636 L476.038467,44.3466242 L475.868012,44.3466242 L472.4759,32.6363636 L467.677705,32.6363636 L473.396421,49 L478.510058,49 Z M490.984589,30.5269886 C491.659305,30.5269886 492.236365,30.3014915 492.715768,29.8504972 C493.195171,29.3995028 493.434873,28.8579545 493.434873,28.2258523 C493.434873,27.6008523 493.195171,27.0628551 492.715768,26.6118608 C492.236365,26.1608665 491.655754,25.9353693 490.973936,25.9353693 C490.306322,25.9353693 489.731038,26.1608665 489.248083,26.6118608 C488.765129,27.0628551 488.523652,27.6008523 488.523652,28.2258523 C488.523652,28.8579545 488.765129,29.3995028 489.248083,29.8504972 C489.731038,30.3014915 490.309873,30.5269886 490.984589,30.5269886 Z M493.232458,49 L493.232458,32.6363636 L488.694106,32.6363636 L488.694106,49 L493.232458,49 Z M506.454752,49.3152743 C507.805626,49.3152743 508.998475,49.1089755 510.033299,48.6963778 C511.068122,48.2837802 511.912932,47.7028365 512.567728,46.9535467 C513.222524,46.2042569 513.656456,45.323908 513.869525,44.3125 L513.869525,44.3125 L509.676409,44.0398393 C509.523045,44.4503285 509.2958,44.7965643 508.994674,45.0785467 C508.693549,45.3605291 508.334524,45.5732366 507.917598,45.7166693 C507.500673,45.8601019 507.038636,45.9318182 506.53149,45.9318182 C505.775764,45.9318182 505.120912,45.7727384 504.566935,45.4545787 C504.012957,45.1364191 503.583991,44.682595 503.280036,44.0931064 C502.976081,43.5036177 502.824103,42.8039884 502.824103,41.9942183 L502.824103,41.9942183 L502.824,41.978 L513.971897,41.9772394 L513.971897,40.7329545 C513.971897,39.3423517 513.775863,38.1271695 513.383796,37.0874079 C512.991728,36.0476463 512.446268,35.1822232 511.747415,34.4911388 C511.048563,33.8000544 510.232523,33.2826427 509.299295,32.9389038 C508.366068,32.5951649 507.358239,32.4232955 506.275808,32.4232955 C504.670694,32.4232955 503.274404,32.7784091 502.086937,33.4886364 C500.899471,34.1988636 499.978311,35.1896307 499.32346,36.4609375 C498.668608,37.7322443 498.341182,39.2102384 498.341182,40.8949197 C498.341182,42.6222146 498.667526,44.1161887 499.320214,45.3768422 C499.972902,46.6374956 500.905435,47.6090643 502.117816,48.2915483 C503.330196,48.9740323 504.775841,49.3152743 506.454752,49.3152743 Z M502.834114,39.0786122 C502.873355,38.525984 503.023772,38.0184715 503.285363,37.5560747 C503.584324,37.0276212 503.998725,36.603954 504.528566,36.285073 C505.058406,35.9661921 505.6664,35.8067516 506.352546,35.8067516 C507.010172,35.8067516 507.589368,35.9512939 508.090133,36.2403786 C508.590899,36.5294633 508.98366,36.926497 509.268417,37.4314797 C509.553174,37.9364624 509.697716,38.5142156 509.702044,39.1647394 L509.702044,39.1647394 L502.83,39.165 L502.834114,39.0786122 Z M526.972529,49 L529.785196,38.7044789 L529.989608,38.7044789 L532.802274,49 L537.60047,49 L542.049267,32.6363636 L537.46414,32.6363636 L534.975403,43.5625999 L534.830583,43.5625999 L532.145924,32.6363636 L527.646024,32.6363636 L524.995323,43.6306818 L524.850503,43.6306818 L522.310664,32.6363636 L517.725536,32.6363636 L522.174333,49 L526.972529,49 Z M23.4772727,85.3067849 C24.2841575,85.3067849 24.997603,85.1988359 25.6176092,84.9829379 C26.2376154,84.7670399 26.7667347,84.4651933 27.2049672,84.0773981 C27.6431996,83.6896029 27.9943737,83.2414662 28.2584894,82.7329878 L28.2584894,82.7329878 L28.3863303,82.7329878 L28.3863303,85 L32.6903076,85 L32.6903076,73.9630682 C32.6903076,72.9871715 32.5017367,72.1494363 32.1245949,71.4498624 C31.7474532,70.7502885 31.234314,70.177862 30.5851773,69.7325828 C29.9360407,69.2873036 29.1952681,68.9577692 28.3628596,68.7439797 C27.530451,68.5301902 26.6575928,68.4232955 25.7442849,68.4232955 C24.4389094,68.4232955 23.2904774,68.6203835 22.298989,69.0145597 C21.3075007,69.4087358 20.4996171,69.9698153 19.8753385,70.6977983 C19.2510598,71.4257812 18.8323864,72.2869318 18.6193182,73.28125 L18.6193182,73.28125 L22.8209229,73.6221591 C22.9743985,73.0809437 23.2929743,72.631725 23.7766502,72.2745028 C24.260326,71.9172807 24.9105447,71.7386697 25.727306,71.7386697 C26.4972368,71.7386697 27.094549,71.9233287 27.5192427,72.2926469 C27.9439364,72.6619651 28.1562833,73.1847035 28.1562833,73.860862 L28.1562833,73.860862 L28.1562833,73.9204545 C28.1562833,74.2699086 28.0241699,74.5337746 27.7599432,74.7120528 C27.4957164,74.8903309 27.072077,75.0238592 26.4890248,75.1126376 C25.9059726,75.201416 25.1407027,75.2926358 24.1932151,75.3862971 C23.3821134,75.4644221 22.6083263,75.6008079 21.8718539,75.7954545 C21.1353815,75.9901012 20.4795033,76.2756348 19.9042192,76.6520552 C19.3289351,77.0284757 18.8758046,77.5245528 18.5448275,78.1402865 C18.2138505,78.7560203 18.048362,79.5198753 18.048362,80.4318515 C18.048362,81.5099543 18.2841519,82.4098067 18.7557318,83.1314087 C19.2273116,83.8530107 19.8718428,84.3959739 20.6893255,84.7602983 C21.5068082,85.1246227 22.4361239,85.3067849 23.4772727,85.3067849 Z M24.7813166,82.1790106 C24.0824086,82.1790106 23.5070967,82.0177945 23.0553811,81.6953624 C22.6036654,81.3729304 22.3778076,80.9006015 22.3778076,80.2783758 C22.3778076,79.8522394 22.4882535,79.4953502 22.7091453,79.2077082 C22.9300371,78.9200661 23.2397073,78.6906572 23.6381559,78.5194813 C24.0366044,78.3483054 24.5028853,78.2243763 25.0369984,78.147694 C25.2855779,78.1121826 25.5622059,78.0709839 25.8668823,78.0240978 C26.1715587,77.9772117 26.4755415,77.9239446 26.7788308,77.8642967 C27.08212,77.8046487 27.3576938,77.7371771 27.605552,77.6618819 C27.8534102,77.5865867 28.0455322,77.504217 28.1819181,77.4147727 L28.1819181,77.4147727 L28.1819181,79.1534424 C28.1819181,79.7243985 28.037015,80.2378706 27.747209,80.6938588 C27.457403,81.1498469 27.0571788,81.5113692 26.5465365,81.7784257 C26.0358942,82.0454823 25.4474876,82.1790106 24.7813166,82.1790106 Z M42.8956784,85 L42.8956784,75.5397727 C42.8998954,74.8352051 43.031981,74.2332597 43.2919353,73.7339367 C43.5518896,73.2346136 43.9151875,72.8525058 44.381829,72.5876132 C44.8484705,72.3227206 45.387189,72.1902743 45.9979845,72.1902743 C46.9070754,72.1902743 47.6197718,72.4729503 48.1360737,73.0383023 C48.6523757,73.6036543 48.9084181,74.3863192 48.9042012,75.3862971 L48.9042012,75.3862971 L48.9042012,85 L53.438282,85 L53.438282,74.576638 C53.4424425,73.3082164 53.2105366,72.2144942 52.7425079,71.2954712 C52.2744793,70.3764482 51.617519,69.6679965 50.7716273,69.1701161 C49.9257355,68.6722357 48.9339419,68.4232955 47.7962466,68.4232955 C46.581758,68.4232955 45.5487102,68.701699 44.6971033,69.2585061 C43.8454964,69.8153132 43.2364766,70.5710116 42.8700437,71.5256015 L42.8700437,71.5256015 L42.6826103,71.5256015 L42.6826103,68.6363636 L38.3616541,68.6363636 L38.3616541,85 L42.8956784,85 Z M65.1862183,85.2641713 C66.0669001,85.2641713 66.8137207,85.118214 67.4266801,84.8262995 C68.0396396,84.534385 68.5410711,84.167203 68.9309748,83.7247536 C69.3208785,83.2823042 69.6209217,82.8352495 69.8311046,82.3835893 L69.8311046,82.3835893 L70.0271939,82.3835893 L70.0271939,85 L74.5014593,85 L74.5014593,63.1818182 L69.967435,63.1818182 L69.967435,71.3892711 L69.8311046,71.3892711 C69.6294667,70.9431596 69.3389948,70.4917769 68.9596891,70.035123 C68.5803833,69.578469 68.0832242,69.1956676 67.4682118,68.8867188 C66.8531994,68.5777699 66.089705,68.4232955 65.1777288,68.4232955 C63.9788874,68.4232955 62.8762595,68.7336592 61.8698453,69.3543868 C60.8634311,69.9751143 60.0580167,70.9090632 59.4536022,72.1562334 C58.8491877,73.4034035 58.5469804,74.963046 58.5469804,76.8351607 C58.5469804,78.6618874 58.8406705,80.2016657 59.4280507,81.4544955 C60.0154308,82.7073253 60.8108853,83.6554787 61.8144143,84.2989557 C62.8179432,84.9424328 63.9418779,85.2641713 65.1862183,85.2641713 Z M66.6265925,81.6506681 C65.8821855,81.6506681 65.2546609,81.4464777 64.7440186,81.038097 C64.2333762,80.6297164 63.8456088,80.0622281 63.5807162,79.3356323 C63.3158236,78.6090365 63.1833774,77.7698864 63.1833774,76.8181818 C63.1833774,75.8721369 63.3144087,75.040089 63.5764715,74.3220381 C63.8385343,73.6039873 64.2248868,73.0436013 64.7355291,72.6408802 C65.2461714,72.2381592 65.8765259,72.0367987 66.6265925,72.0367987 C67.3595692,72.0367987 67.9813787,72.2324718 68.492021,72.6238181 C69.0026634,73.0151645 69.3918735,73.5684482 69.6596513,74.2836692 C69.9274292,74.9988903 70.0613181,75.8437278 70.0613181,76.8181818 C70.0613181,77.7897505 69.9260143,78.6374179 69.6554066,79.3611839 C69.3847989,80.0849498 68.9941462,80.647472 68.4834484,81.0487504 C67.9727506,81.4500289 67.3537986,81.6506681 66.6265925,81.6506681 Z M96.8299966,91.3750666 C98.3881687,91.3750666 99.7688117,91.1406916 100.971926,90.6719416 C102.175039,90.2031916 103.117866,89.5075018 103.800406,88.5848722 C104.482945,87.6622425 104.824215,86.5212735 104.824215,85.1619651 L104.824215,85.1619651 L104.824215,68.6363636 L100.324315,68.6363636 L100.324315,71.3892711 L100.145371,71.3892711 C99.9436219,70.9431596 99.6517074,70.4917769 99.2696273,70.035123 C98.8875472,69.578469 98.3875583,69.1956676 97.7696606,68.8867188 C97.1517629,68.5777699 96.3868259,68.4232955 95.4748497,68.4232955 C94.2760083,68.4232955 93.1733804,68.7329656 92.1669662,69.352306 C91.160552,69.9716464 90.3551376,70.9013228 89.7507231,72.1413352 C89.1463086,73.3813477 88.8441013,74.9289218 88.8441013,76.7840576 C88.8441013,78.5994651 89.1413425,80.0973511 89.7358249,81.2777155 C90.3303074,82.4580799 91.1300344,83.3352106 92.135006,83.9091076 C93.1399776,84.4830045 94.2560886,84.7699529 95.4833391,84.7699529 C96.3527017,84.7699529 97.0984681,84.6417514 97.7206383,84.3853482 C98.3428085,84.1289451 98.8534508,83.7972468 99.2525652,83.3902532 C99.6516797,82.9832597 99.9521113,82.5539329 100.15386,82.1022727 L100.15386,82.1022727 L100.341294,82.1022727 L100.341294,85.0937167 C100.341294,86.1676025 100.019195,86.9389205 99.3749962,87.4076705 C98.7307979,87.8764205 97.9165334,88.1107955 96.9322028,88.1107955 C96.2688061,88.1107955 95.7080595,88.0255682 95.2499629,87.8551136 C94.7918663,87.6846591 94.425045,87.4655706 94.149499,87.1978482 C93.8739531,86.9301258 93.6736468,86.6492254 93.5485802,86.3551469 L93.5485802,86.3551469 L89.3469755,86.9176136 C89.530192,87.7414773 89.9304161,88.4911277 90.547648,89.1665649 C91.1648799,89.8420022 91.9987034,90.3789451 93.0491184,90.7773937 C94.0995334,91.1758423 95.3598262,91.3750666 96.8299966,91.3750666 Z M96.9237133,81.360862 C96.1793064,81.360862 95.5517818,81.1737061 95.0411394,80.7993941 C94.5304971,80.4250821 94.1427297,79.8945202 93.8778371,79.2077082 C93.6129445,78.5208962 93.4804982,77.7073531 93.4804982,76.7670787 C93.4804982,75.8381237 93.6115296,75.0181718 93.8735924,74.3072232 C94.1356552,73.5962746 94.5220077,73.0401334 95.03265,72.6387995 C95.5432923,72.2374656 96.1736468,72.0367987 96.9237133,72.0367987 C97.6566901,72.0367987 98.2784996,72.2317782 98.7891419,72.6217374 C99.2997842,73.0116966 99.6889943,73.5607078 99.9567722,74.2687711 C100.22455,74.9768344 100.358439,75.8096036 100.358439,76.7670787 C100.358439,77.7273282 100.223135,78.5501376 99.9525275,79.2355069 C99.6819198,79.9208762 99.2912671,80.4464444 98.7805693,80.8122115 C98.2698715,81.1779785 97.6509195,81.360862 96.9237133,81.360862 Z M117.986963,85.3152743 C119.643235,85.3152743 121.072928,84.9626576 122.276042,84.2574241 C123.479156,83.5521906 124.407417,82.5664173 125.060826,81.3001043 C125.714235,80.0337913 126.04094,78.5596813 126.04094,76.8777743 C126.04094,75.1903187 125.714235,73.7119917 125.060826,72.4427934 C124.407417,71.1735951 123.479156,70.1863792 122.276042,69.4811457 C121.072928,68.7759122 119.643235,68.4232955 117.986963,68.4232955 C116.330691,68.4232955 114.900998,68.7759122 113.697884,69.4811457 C112.49477,70.1863792 111.566508,71.1735951 110.913099,72.4427934 C110.25969,73.7119917 109.932985,75.1903187 109.932985,76.8777743 C109.932985,78.5596813 110.25969,80.0337913 110.913099,81.3001043 C111.566508,82.5664173 112.49477,83.5521906 113.697884,84.2574241 C114.900998,84.9626576 116.330691,85.3152743 117.986963,85.3152743 Z M118.012598,81.8039773 C117.248326,81.8039773 116.608373,81.5887729 116.092737,81.158364 C115.577101,80.7279552 115.190027,80.1398815 114.931515,79.3941428 C114.673003,78.6484042 114.543748,77.8011253 114.543748,76.852306 C114.543748,75.8991588 114.673003,75.0493552 114.931515,74.3028953 C115.190027,73.5564353 115.577101,72.966586 116.092737,72.5333474 C116.608373,72.1001088 117.248326,71.8834894 118.012598,71.8834894 C118.759668,71.8834894 119.386776,72.1001088 119.893923,72.5333474 C120.40107,72.966586 120.783899,73.5564353 121.04241,74.3028953 C121.300922,75.0493552 121.430178,75.8991588 121.430178,76.852306 C121.430178,77.8011253 121.300922,78.6484042 121.04241,79.3941428 C120.783899,80.1398815 120.40107,80.7279552 119.893923,81.158364 C119.386776,81.5887729 118.759668,81.8039773 118.012598,81.8039773 Z M140.132605,85 L145.851321,68.6363636 L141.053126,68.6363636 L137.661014,80.3466242 L137.490559,80.3466242 L134.098447,68.6363636 L129.300252,68.6363636 L135.018968,85 L140.132605,85 Z M157.224255,85.3152743 C158.575129,85.3152743 159.767978,85.1089755 160.802802,84.6963778 C161.837625,84.2837802 162.682435,83.7028365 163.337231,82.9535467 C163.992027,82.2042569 164.42596,81.323908 164.639028,80.3125 L164.639028,80.3125 L160.445912,80.0398393 C160.292548,80.4503285 160.065303,80.7965643 159.764178,81.0785467 C159.463052,81.3605291 159.104027,81.5732366 158.687101,81.7166693 C158.270176,81.8601019 157.808139,81.9318182 157.300993,81.9318182 C156.545267,81.9318182 155.890415,81.7727384 155.336438,81.4545787 C154.78246,81.1364191 154.353494,80.682595 154.049539,80.0931064 C153.745584,79.5036177 153.593606,78.8039884 153.593606,77.9942183 L153.593606,77.9942183 L153.593,77.978 L164.7414,77.9772394 L164.7414,76.7329545 C164.7414,75.3423517 164.545366,74.1271695 164.153299,73.0874079 C163.761231,72.0476463 163.215771,71.1822232 162.516919,70.4911388 C161.818066,69.8000544 161.002026,69.2826427 160.068798,68.9389038 C159.135571,68.5951649 158.127742,68.4232955 157.045311,68.4232955 C155.440197,68.4232955 154.043907,68.7784091 152.85644,69.4886364 C151.668974,70.1988636 150.747815,71.1896307 150.092963,72.4609375 C149.438111,73.7322443 149.110685,75.2102384 149.110685,76.8949197 C149.110685,78.6222146 149.437029,80.1161887 150.089717,81.3768422 C150.742405,82.6374956 151.674939,83.6090643 152.887319,84.2915483 C154.099699,84.9740323 155.545344,85.3152743 157.224255,85.3152743 Z M153.603617,75.0786122 C153.642859,74.525984 153.793275,74.0184715 154.054866,73.5560747 C154.353827,73.0276212 154.768228,72.603954 155.298069,72.285073 C155.827909,71.9661921 156.435903,71.8067516 157.122049,71.8067516 C157.779675,71.8067516 158.358871,71.9512939 158.859637,72.2403786 C159.360402,72.5294633 159.753163,72.926497 160.03792,73.4314797 C160.322677,73.9364624 160.467219,74.5142156 160.471547,75.1647394 L160.471547,75.1647394 L153.599,75.165 L153.603617,75.0786122 Z M174.384206,85 L174.384206,75.7443515 C174.384206,75.0738525 174.534768,74.4832819 174.835893,73.9726396 C175.137019,73.4619973 175.549311,73.0628551 176.072771,72.7752131 C176.596231,72.487571 177.189603,72.34375 177.852889,72.34375 C178.169717,72.34375 178.516341,72.3678866 178.892762,72.4161599 C179.269182,72.4644331 179.561762,72.5226385 179.770503,72.5907759 L179.770503,72.5907759 L179.770503,68.5574618 C179.573082,68.5091886 179.34334,68.4719294 179.081277,68.4456843 C178.819214,68.4194391 178.574546,68.4063166 178.347274,68.4063166 C177.431081,68.4063166 176.621754,68.6669644 175.919295,69.1882602 C175.216836,69.7095559 174.716459,70.4772949 174.418163,71.4914773 L174.418163,71.4914773 L174.247709,71.4914773 L174.247709,68.6363636 L169.850181,68.6363636 L169.850181,85 L174.384206,85 Z M188.791223,85 L188.791223,75.5397727 C188.79544,74.8352051 188.927525,74.2332597 189.18748,73.7339367 C189.447434,73.2346136 189.810732,72.8525058 190.277373,72.5876132 C190.744015,72.3227206 191.282733,72.1902743 191.893529,72.1902743 C192.80262,72.1902743 193.515316,72.4729503 194.031618,73.0383023 C194.54792,73.6036543 194.803962,74.3863192 194.799745,75.3862971 L194.799745,75.3862971 L194.799745,85 L199.333826,85 L199.333826,74.576638 C199.337987,73.3082164 199.106081,72.2144942 198.638052,71.2954712 C198.170024,70.3764482 197.513063,69.6679965 196.667172,69.1701161 C195.82128,68.6722357 194.829486,68.4232955 193.691791,68.4232955 C192.477302,68.4232955 191.444254,68.701699 190.592648,69.2585061 C189.741041,69.8153132 189.132021,70.5710116 188.765588,71.5256015 L188.765588,71.5256015 L188.578155,71.5256015 L188.578155,68.6363636 L184.257198,68.6363636 L184.257198,85 L188.791223,85 Z M220.331056,85.2331357 L220.690589,85.2258856 C221.278635,85.2045787 221.779678,85.1463457 222.193719,85.0511863 C222.607759,84.9560269 222.92775,84.8722146 223.153691,84.7997492 L223.153691,84.7997492 L222.437748,81.4162931 C222.326886,81.4418169 222.164588,81.4737493 221.950854,81.5120905 C221.73712,81.5504317 221.521555,81.5696023 221.304159,81.5696023 C221.003089,81.5696023 220.737475,81.5237982 220.507317,81.4321899 C220.277159,81.3405817 220.096745,81.1786444 219.966074,80.9463778 C219.835403,80.7141113 219.770068,80.3877397 219.770068,79.967263 L219.770068,79.967263 L219.77,72.046 L222.855395,72.0454545 L222.855395,68.6363636 L219.77,68.637 L219.770068,64.7159091 L215.236044,64.7159091 L215.236,68.637 L212.9945,68.6363636 L212.9945,72.0454545 L215.236,72.046 L215.236044,80.5725098 C215.228276,81.5422121 215.411867,82.3628805 215.786818,83.0345148 L215.905045,83.2315341 C216.35959,83.9375444 216.99738,84.4570923 217.818414,84.7901778 C218.639447,85.1232633 219.596839,85.2684992 220.690589,85.2258856 L220.331056,85.2331357 Z M232.822053,85 L232.822053,75.5397727 C232.82627,74.8352051 232.961546,74.2332597 233.227881,73.7339367 C233.494216,73.2346136 233.864949,72.8525058 234.34008,72.5876132 C234.815211,72.3227206 235.360338,72.1902743 235.975462,72.1902743 C236.901643,72.1902743 237.621469,72.4715354 238.134941,73.0340576 C238.648413,73.5965798 238.903041,74.3806596 238.898824,75.3862971 L238.898824,75.3862971 L238.898824,85 L243.432904,85 L243.432904,74.576638 C243.437065,73.2982289 243.204438,72.1995128 242.734967,71.2804898 C242.265495,70.3614668 241.606399,69.655512 240.757677,69.1626254 C239.908956,68.6697388 238.914305,68.4232955 237.773724,68.4232955 C236.535043,68.4232955 235.503771,68.6992298 234.679907,69.2510986 C233.856044,69.8029674 233.256623,70.561135 232.881645,71.5256015 L232.881645,71.5256015 L232.694212,71.5256015 L232.694212,63.1818182 L228.288028,63.1818182 L228.288028,85 L232.822053,85 Z M256.604007,85.3152743 C257.954882,85.3152743 259.147731,85.1089755 260.182554,84.6963778 C261.217377,84.2837802 262.062187,83.7028365 262.716983,82.9535467 C263.37178,82.2042569 263.805712,81.323908 264.01878,80.3125 L264.01878,80.3125 L259.825665,80.0398393 C259.6723,80.4503285 259.445055,80.7965643 259.14393,81.0785467 C258.842805,81.3605291 258.483779,81.5732366 258.066854,81.7166693 C257.649928,81.8601019 257.187892,81.9318182 256.680745,81.9318182 C255.925019,81.9318182 255.270167,81.7727384 254.71619,81.4545787 C254.162213,81.1364191 253.733247,80.682595 253.429292,80.0931064 C253.125336,79.5036177 252.973359,78.8039884 252.973359,77.9942183 L252.973359,77.9942183 L252.973,77.978 L264.121153,77.9772394 L264.121153,76.7329545 C264.121153,75.3423517 263.925119,74.1271695 263.533051,73.0874079 C263.140984,72.0476463 262.595524,71.1822232 261.896671,70.4911388 C261.197818,69.8000544 260.381778,69.2826427 259.448551,68.9389038 C258.515323,68.5951649 257.507494,68.4232955 256.425063,68.4232955 C254.81995,68.4232955 253.42366,68.7784091 252.236193,69.4886364 C251.048726,70.1988636 250.127567,71.1896307 249.472715,72.4609375 C248.817864,73.7322443 248.490438,75.2102384 248.490438,76.8949197 C248.490438,78.6222146 248.816782,80.1161887 249.469469,81.3768422 C250.122157,82.6374956 251.054691,83.6090643 252.267071,84.2915483 C253.479451,84.9740323 254.925097,85.3152743 256.604007,85.3152743 Z M252.98337,75.0786122 C253.022611,74.525984 253.173027,74.0184715 253.434618,73.5560747 C253.73358,73.0276212 254.14798,72.603954 254.677821,72.285073 C255.207662,71.9661921 255.815655,71.8067516 256.501801,71.8067516 C257.159427,71.8067516 257.738623,71.9512939 258.239389,72.2403786 C258.740155,72.5294633 259.132916,72.926497 259.417673,73.4314797 C259.702429,73.9364624 259.846972,74.5142156 259.8513,75.1647394 L259.8513,75.1647394 L252.979,75.165 L252.98337,75.0786122 Z M271.516089,66.5269886 C272.190805,66.5269886 272.767864,66.3014915 273.247268,65.8504972 C273.726671,65.3995028 273.966373,64.8579545 273.966373,64.2258523 C273.966373,63.6008523 273.726671,63.0628551 273.247268,62.6118608 C272.767864,62.1608665 272.187253,61.9353693 271.505435,61.9353693 C270.837822,61.9353693 270.262538,62.1608665 269.779583,62.6118608 C269.296628,63.0628551 269.055151,63.6008523 269.055151,64.2258523 C269.055151,64.8579545 269.296628,65.3995028 269.779583,65.8504972 C270.262538,66.3014915 270.841373,66.5269886 271.516089,66.5269886 Z M273.763958,85 L273.763958,68.6363636 L269.225606,68.6363636 L269.225606,85 L273.763958,85 Z M284.071545,85 L284.071545,75.7443515 C284.071545,75.0738525 284.222108,74.4832819 284.523233,73.9726396 C284.824359,73.4619973 285.236651,73.0628551 285.760111,72.7752131 C286.28357,72.487571 286.876943,72.34375 287.540229,72.34375 C287.857057,72.34375 288.203681,72.3678866 288.580101,72.4161599 C288.956522,72.4644331 289.249102,72.5226385 289.457842,72.5907759 L289.457842,72.5907759 L289.457842,68.5574618 C289.260421,68.5091886 289.03068,68.4719294 288.768617,68.4456843 C288.506554,68.4194391 288.261886,68.4063166 288.034614,68.4063166 C287.11842,68.4063166 286.309094,68.6669644 285.606635,69.1882602 C284.904176,69.7095559 284.403799,70.4772949 284.105503,71.4914773 L284.105503,71.4914773 L283.935049,71.4914773 L283.935049,68.6363636 L279.537521,68.6363636 L279.537521,85 L284.071545,85 Z M306.885552,85 L308.503,80.023 L316.381,80.023 L317.999388,85 L322.942403,85 L315.416768,63.1818182 L309.468171,63.1818182 L301.942536,85 L306.885552,85 Z M315.212,76.427 L309.672,76.427 L312.357242,68.1676136 L312.527697,68.1676136 L315.212,76.427 Z M332.312579,85 L332.312,77.927 L336.19042,77.9261364 C337.737622,77.9261364 339.074531,77.6622754 340.201145,77.1345534 L340.478417,76.9971258 C341.660945,76.3777854 342.564349,75.5148593 343.188627,74.4083474 C343.812906,73.3018355 344.125045,72.0227051 344.125045,70.5709561 C344.125045,69.1278631 343.817512,67.8502031 343.202444,66.7379761 C342.587376,65.6257491 341.697455,64.7549993 340.532683,64.1257269 C339.36791,63.4964544 337.957387,63.1818182 336.301115,63.1818182 L336.301115,63.1818182 L327.701817,63.1818182 L327.701817,85 L332.312579,85 Z M332.312579,66.9572865 L335.423374,66.9572865 C336.315375,66.9572865 337.05293,67.1075162 337.636037,67.4079756 C338.219145,67.7084351 338.655241,68.1296054 338.944326,68.6714866 C339.233411,69.2133678 339.377953,69.8465243 339.377953,70.5709561 C339.377953,71.291171 339.233411,71.9261308 338.944326,72.4758356 C338.655241,73.0255404 338.220588,73.4548673 337.640365,73.7638161 C337.060143,74.072765 336.326806,74.2272394 335.440353,74.2272394 L335.440353,74.2272394 L332.312,74.228 L332.312579,66.9572865 Z M353.887239,85 L353.887239,63.1818182 L349.276476,63.1818182 L349.276476,85 L353.887239,85 Z M376.23262,85.3152743 C377.687143,85.3152743 378.947436,85.0503817 380.013498,84.5205966 C381.07956,83.9908114 381.915853,83.2511208 382.522376,82.3015248 C383.128899,81.3519287 383.46695,80.2514094 383.53653,78.9999667 L383.53653,78.9999667 L379.258188,78.9999667 C379.170186,79.5795787 378.989439,80.0728538 378.715946,80.4797918 C378.442453,80.8867298 378.099047,81.1964 377.685728,81.4088024 C377.272409,81.6212047 376.805074,81.7274059 376.283723,81.7274059 C375.579155,81.7274059 374.964808,81.5352839 374.440683,81.1510398 C373.916557,80.7667958 373.510313,80.2092396 373.22195,79.4783714 C372.933586,78.7475031 372.789404,77.8607733 372.789404,76.8181818 C372.789404,75.7869096 372.935001,74.9094183 373.226194,74.1857078 C373.517387,73.4619973 373.925047,72.9101562 374.449172,72.5301847 C374.973298,72.1502131 375.584815,71.9602273 376.283723,71.9602273 C377.119017,71.9602273 377.792706,72.211276 378.304791,72.7133734 C378.816876,73.2154707 379.134675,73.873513 379.258188,74.6875 L379.258188,74.6875 L383.53653,74.6875 C383.475495,73.4260698 383.133171,72.3255504 382.509558,71.3859419 C381.885945,70.4463335 381.036863,69.7176569 379.962312,69.1999123 C378.88776,68.6821677 377.63887,68.4232955 376.215641,68.4232955 C374.559369,68.4232955 373.13109,68.7794633 371.930806,69.4917991 C370.730522,70.2041349 369.805091,71.1956232 369.154511,72.4662642 C368.503932,73.7369052 368.178642,75.2074086 368.178642,76.8777743 C368.178642,78.5369318 368.500381,80.001082 369.143858,81.2702248 C369.787335,82.5393677 370.709909,83.5308283 371.91158,84.2446067 C373.113251,84.9583851 374.553598,85.3152743 376.23262,85.3152743 Z M393.136805,85 L393.136805,75.5397727 C393.141022,74.8352051 393.276298,74.2332597 393.542633,73.7339367 C393.808969,73.2346136 394.179702,72.8525058 394.654833,72.5876132 C395.129964,72.3227206 395.675091,72.1902743 396.290214,72.1902743 C397.216395,72.1902743 397.936221,72.4715354 398.449694,73.0340576 C398.963166,73.5965798 399.217793,74.3806596 399.213576,75.3862971 L399.213576,75.3862971 L399.213576,85 L403.747657,85 L403.747657,74.576638 C403.751818,73.2982289 403.51919,72.1995128 403.049719,71.2804898 C402.580248,70.3614668 401.921151,69.655512 401.07243,69.1626254 C400.223708,68.6697388 399.229057,68.4232955 398.088476,68.4232955 C396.849796,68.4232955 395.818523,68.6992298 394.99466,69.2510986 C394.170796,69.8029674 393.571375,70.561135 393.196398,71.5256015 L393.196398,71.5256015 L393.008964,71.5256015 L393.008964,63.1818182 L388.602781,63.1818182 L388.602781,85 L393.136805,85 Z M414.131895,85.3067849 C414.938779,85.3067849 415.652225,85.1988359 416.272231,84.9829379 C416.892237,84.7670399 417.421357,84.4651933 417.859589,84.0773981 C418.297821,83.6896029 418.648996,83.2414662 418.913111,82.7329878 L418.913111,82.7329878 L419.040952,82.7329878 L419.040952,85 L423.34493,85 L423.34493,73.9630682 C423.34493,72.9871715 423.156359,72.1494363 422.779217,71.4498624 C422.402075,70.7502885 421.888936,70.177862 421.239799,69.7325828 C420.590663,69.2873036 419.84989,68.9577692 419.017481,68.7439797 C418.185073,68.5301902 417.312215,68.4232955 416.398907,68.4232955 C415.093531,68.4232955 413.945099,68.6203835 412.953611,69.0145597 C411.962123,69.4087358 411.154239,69.9698153 410.52996,70.6977983 C409.905682,71.4257812 409.487008,72.2869318 409.27394,73.28125 L409.27394,73.28125 L413.475545,73.6221591 C413.62902,73.0809437 413.947596,72.631725 414.431272,72.2745028 C414.914948,71.9172807 415.565167,71.7386697 416.381928,71.7386697 C417.151859,71.7386697 417.749171,71.9233287 418.173865,72.2926469 C418.598558,72.6619651 418.810905,73.1847035 418.810905,73.860862 L418.810905,73.860862 L418.810905,73.9204545 C418.810905,74.2699086 418.678792,74.5337746 418.414565,74.7120528 C418.150338,74.8903309 417.726699,75.0238592 417.143647,75.1126376 C416.560594,75.201416 415.795325,75.2926358 414.847837,75.3862971 C414.036735,75.4644221 413.262948,75.6008079 412.526476,75.7954545 C411.790003,75.9901012 411.134125,76.2756348 410.558841,76.6520552 C409.983557,77.0284757 409.530426,77.5245528 409.199449,78.1402865 C408.868472,78.7560203 408.702984,79.5198753 408.702984,80.4318515 C408.702984,81.5099543 408.938774,82.4098067 409.410354,83.1314087 C409.881933,83.8530107 410.526465,84.3959739 411.343947,84.7602983 C412.16143,85.1246227 413.090746,85.3067849 414.131895,85.3067849 Z M415.435938,82.1790106 C414.73703,82.1790106 414.161719,82.0177945 413.710003,81.6953624 C413.258287,81.3729304 413.03243,80.9006015 413.03243,80.2783758 C413.03243,79.8522394 413.142875,79.4953502 413.363767,79.2077082 C413.584659,78.9200661 413.894329,78.6906572 414.292778,78.5194813 C414.691226,78.3483054 415.157507,78.2243763 415.69162,78.147694 C415.9402,78.1121826 416.216828,78.0709839 416.521504,78.0240978 C416.826181,77.9772117 417.130163,77.9239446 417.433453,77.8642967 C417.736742,77.8046487 418.012316,77.7371771 418.260174,77.6618819 C418.508032,77.5865867 418.700154,77.504217 418.83654,77.4147727 L418.83654,77.4147727 L418.83654,79.1534424 C418.83654,79.7243985 418.691637,80.2378706 418.401831,80.6938588 C418.112025,81.1498469 417.711801,81.5113692 417.201158,81.7784257 C416.690516,82.0454823 416.102109,82.1790106 415.435938,82.1790106 Z M433.5503,85 L433.5503,75.5397727 C433.554517,74.8352051 433.686603,74.2332597 433.946557,73.7339367 C434.206511,73.2346136 434.569809,72.8525058 435.036451,72.5876132 C435.503092,72.3227206 436.041811,72.1902743 436.652606,72.1902743 C437.561697,72.1902743 438.274394,72.4729503 438.790696,73.0383023 C439.306998,73.6036543 439.56304,74.3863192 439.558823,75.3862971 L439.558823,75.3862971 L439.558823,85 L444.092904,85 L444.092904,74.576638 C444.097064,73.3082164 443.865159,72.2144942 443.39713,71.2954712 C442.929101,70.3764482 442.272141,69.6679965 441.426249,69.1701161 C440.580357,68.6722357 439.588564,68.4232955 438.450869,68.4232955 C437.23638,68.4232955 436.203332,68.701699 435.351725,69.2585061 C434.500118,69.8153132 433.891098,70.5710116 433.524666,71.5256015 L433.524666,71.5256015 L433.337232,71.5256015 L433.337232,68.6363636 L429.016276,68.6363636 L429.016276,85 L433.5503,85 Z M457.187498,91.3750666 C458.74567,91.3750666 460.126313,91.1406916 461.329427,90.6719416 C462.53254,90.2031916 463.475367,89.5075018 464.157907,88.5848722 C464.840446,87.6622425 465.181716,86.5212735 465.181716,85.1619651 L465.181716,85.1619651 L465.181716,68.6363636 L460.681816,68.6363636 L460.681816,71.3892711 L460.502872,71.3892711 C460.301123,70.9431596 460.009208,70.4917769 459.627128,70.035123 C459.245048,69.578469 458.745059,69.1956676 458.127162,68.8867188 C457.509264,68.5777699 456.744327,68.4232955 455.832351,68.4232955 C454.633509,68.4232955 453.530881,68.7329656 452.524467,69.352306 C451.518053,69.9716464 450.712639,70.9013228 450.108224,72.1413352 C449.50381,73.3813477 449.201602,74.9289218 449.201602,76.7840576 C449.201602,78.5994651 449.498844,80.0973511 450.093326,81.2777155 C450.687808,82.4580799 451.487535,83.3352106 452.492507,83.9091076 C453.497479,84.4830045 454.61359,84.7699529 455.84084,84.7699529 C456.710203,84.7699529 457.455969,84.6417514 458.078139,84.3853482 C458.700309,84.1289451 459.210952,83.7972468 459.610066,83.3902532 C460.009181,82.9832597 460.309612,82.5539329 460.511361,82.1022727 L460.511361,82.1022727 L460.698795,82.1022727 L460.698795,85.0937167 C460.698795,86.1676025 460.376696,86.9389205 459.732497,87.4076705 C459.088299,87.8764205 458.274034,88.1107955 457.289704,88.1107955 C456.626307,88.1107955 456.065561,88.0255682 455.607464,87.8551136 C455.149367,87.6846591 454.782546,87.4655706 454.507,87.1978482 C454.231454,86.9301258 454.031148,86.6492254 453.906081,86.3551469 L453.906081,86.3551469 L449.704477,86.9176136 C449.887693,87.7414773 450.287917,88.4911277 450.905149,89.1665649 C451.522381,89.8420022 452.356204,90.3789451 453.406619,90.7773937 C454.457034,91.1758423 455.717327,91.3750666 457.187498,91.3750666 Z M457.281214,81.360862 C456.536807,81.360862 455.909283,81.1737061 455.39864,80.7993941 C454.887998,80.4250821 454.500231,79.8945202 454.235338,79.2077082 C453.970446,78.5208962 453.837999,77.7073531 453.837999,76.7670787 C453.837999,75.8381237 453.969031,75.0181718 454.231093,74.3072232 C454.493156,73.5962746 454.879509,73.0401334 455.390151,72.6387995 C455.900793,72.2374656 456.531148,72.0367987 457.281214,72.0367987 C458.014191,72.0367987 458.636001,72.2317782 459.146643,72.6217374 C459.657285,73.0116966 460.046495,73.5607078 460.314273,74.2687711 C460.582051,74.9768344 460.71594,75.8096036 460.71594,76.7670787 C460.71594,77.7273282 460.580636,78.5501376 460.310028,79.2355069 C460.039421,79.9208762 459.648768,80.4464444 459.13807,80.8122115 C458.627372,81.1779785 458.008421,81.360862 457.281214,81.360862 Z M478.404056,85.3152743 C479.754931,85.3152743 480.94778,85.1089755 481.982603,84.6963778 C483.017426,84.2837802 483.862236,83.7028365 484.517032,82.9535467 C485.171829,82.2042569 485.605761,81.323908 485.818829,80.3125 L485.818829,80.3125 L481.625714,80.0398393 C481.472349,80.4503285 481.245104,80.7965643 480.943979,81.0785467 C480.642854,81.3605291 480.283828,81.5732366 479.866903,81.7166693 C479.449977,81.8601019 478.987941,81.9318182 478.480794,81.9318182 C477.725068,81.9318182 477.070216,81.7727384 476.516239,81.4545787 C475.962262,81.1364191 475.533295,80.682595 475.22934,80.0931064 C474.925385,79.5036177 474.773408,78.8039884 474.773408,77.9942183 L474.773408,77.9942183 L474.773,77.978 L485.921202,77.9772394 L485.921202,76.7329545 C485.921202,75.3423517 485.725168,74.1271695 485.3331,73.0874079 C484.941032,72.0476463 484.395572,71.1822232 483.69672,70.4911388 C482.997867,69.8000544 482.181827,69.2826427 481.2486,68.9389038 C480.315372,68.5951649 479.307543,68.4232955 478.225112,68.4232955 C476.619999,68.4232955 475.223708,68.7784091 474.036242,69.4886364 C472.848775,70.1988636 471.927616,71.1896307 471.272764,72.4609375 C470.617912,73.7322443 470.290487,75.2102384 470.290487,76.8949197 C470.290487,78.6222146 470.61683,80.1161887 471.269518,81.3768422 C471.922206,82.6374956 472.85474,83.6090643 474.06712,84.2915483 C475.2795,84.9740323 476.725146,85.3152743 478.404056,85.3152743 Z M474.783419,75.0786122 C474.82266,74.525984 474.973076,74.0184715 475.234667,73.5560747 C475.533628,73.0276212 475.948029,72.603954 476.47787,72.285073 C477.007711,71.9661921 477.615704,71.8067516 478.30185,71.8067516 C478.959476,71.8067516 479.538672,71.9512939 480.039438,72.2403786 C480.540204,72.5294633 480.932965,72.926497 481.217721,73.4314797 C481.502478,73.9364624 481.647021,74.5142156 481.651349,75.1647394 L481.651349,75.1647394 L474.779,75.165 L474.783419,75.0786122 Z M497.728813,85.3152743 C499.14494,85.3152743 500.399517,85.0904985 501.492546,84.6409468 C502.585574,84.1913952 503.444949,83.5621504 504.070671,82.7532127 C504.696392,81.9442749 505.011361,81.0028631 505.015578,79.9289773 C505.011361,78.7472257 504.619682,77.7944669 503.840541,77.0707009 C503.061399,76.3469349 501.876429,75.822421 500.285631,75.4971591 L500.285631,75.4971591 L497.319655,74.9005682 C496.55827,74.7357733 496.021687,74.5191539 495.709909,74.2507102 C495.39813,73.9822665 495.244349,73.6505682 495.248566,73.2556152 C495.244349,72.7698864 495.483718,72.3799827 495.966672,72.0859042 C496.449627,71.7918257 497.042667,71.6447865 497.745792,71.6447865 C498.272803,71.6447865 498.727015,71.7310957 499.108429,71.9037143 C499.489844,72.0763328 499.797017,72.3068237 500.029949,72.5951871 C500.262882,72.8835505 500.416302,73.203125 500.49021,73.5539107 L500.49021,73.5539107 L504.640711,73.2982289 C504.441848,71.7925471 503.746879,70.6036377 502.555806,69.7315008 C501.364733,68.8593639 499.735815,68.4232955 497.669054,68.4232955 C496.275677,68.4232955 495.058025,68.6289007 494.0161,69.0401112 C492.974174,69.4513217 492.166651,70.0365379 491.593531,70.7957597 C491.020411,71.5549816 490.73596,72.4601607 490.740177,73.5112971 C490.73596,74.7343306 491.123033,75.7407449 491.901398,76.5305398 C492.679763,77.3203347 493.869394,77.8735906 495.47029,78.1903076 L495.47029,78.1903076 L498.299769,78.7527743 C499.012882,78.8977051 499.539532,79.1029774 499.87972,79.3685913 C500.219907,79.6342052 500.392165,79.9744207 500.396493,80.3892378 C500.392165,80.8750777 500.146027,81.2735263 499.658079,81.5845836 C499.17013,81.895641 498.529872,82.0511697 497.737302,82.0511697 C496.924758,82.0511697 496.260307,81.8789395 495.74395,81.5344793 C495.227592,81.1900191 494.900555,80.6860906 494.762837,80.022694 L494.762837,80.022694 L490.305551,80.2613969 C490.520062,81.8238969 491.268991,83.0568348 492.552338,83.9602106 C493.835685,84.8635864 495.561177,85.3152743 497.728813,85.3152743 Z M512.681281,85.2726607 C513.138601,85.2726607 513.559022,85.1579701 513.942545,84.9285889 C514.326068,84.6992077 514.636792,84.3909801 514.874718,84.0039062 C515.112645,83.6168324 515.233772,83.1875333 515.2381,82.716009 C515.233772,82.0199862 514.976287,81.4240889 514.465644,80.928317 C513.955002,80.4325451 513.360214,80.1846591 512.681281,80.1846591 C511.976714,80.1846591 511.373354,80.4325451 510.871201,80.928317 C510.369048,81.4240889 510.120135,82.0199862 510.124463,82.716009 C510.120135,83.4247936 510.369048,84.0280984 510.871201,84.5259233 C511.373354,85.0237482 511.976714,85.2726607 512.681281,85.2726607 Z" id="Optichelpsteamstrack,reviewandgoverntheirAPIchanges." fill="#151857" fill-rule="nonzero"></path>
        <rect id="Rectangle" fill="#DEE2EF" fill-rule="nonzero" x="602" y="20" width="199" height="4" rx="2"></rect>
        <rect id="Rectangle" fill="#DEE2EF" fill-rule="nonzero" x="602" y="43" width="141" height="4" rx="2"></rect>
        <rect id="Rectangle" fill="#4F5F92" fill-rule="nonzero" x="578" y="14" width="17" height="16" rx="1.5"></rect>
        <rect id="Rectangle" fill="#4F5F92" fill-rule="nonzero" x="578" y="37" width="17" height="16" rx="1.5"></rect>
    </g>
</svg>