<?xml version="1.0" encoding="UTF-8"?>
<svg width="43px" height="43px" viewBox="0 0 43 43" version="1.1" xmlns="http://www.w3.org/2000/svg" xmlns:xlink="http://www.w3.org/1999/xlink">
    <title>Group 2</title>
    <g id="Page-1" stroke="none" stroke-width="1" fill="none" fill-rule="evenodd" stroke-linecap="round">
        <g id="Artboard" transform="translate(-150.000000, -10.000000)" stroke="#FFFFFF" stroke-width="3.368422">
            <g id="Group" transform="translate(19.000000, 12.000000)">
                <g id="Group-2" transform="translate(133.351213, 0.600000)">
                    <path d="M30.8628495,3.9678975 C27.624807,1.4805 23.560992,9.23705556e-14 19.1486295,9.23705556e-14 C14.736267,9.23705556e-14 10.672452,1.4805 7.4344095,3.9678975 M21.8721195,37.8 C25.7806395,37.2479625 29.3089545,35.52507 32.0847345,33.000975 C35.903322,29.528415 38.297322,24.53913 38.297322,18.9952875 C38.297322,14.7569625 36.8979345,10.8427725 34.5325995,7.682535 M16.425297,37.8 C12.516777,37.2479625 8.988462,35.52507 6.212682,33.000975 C2.3940945,29.528415 -7.38964445e-13,24.53913 -7.38964445e-13,18.9952875 C-7.38964445e-13,14.7569625 1.3993245,10.8427725 3.764817,7.682535" id="Shape"></path>
                    <path d="M11.0855745,29.11671 C13.314357,30.818655 16.1113995,31.8315375 19.1486295,31.8315375 C22.185702,31.8315375 24.982902,30.818655 27.211527,29.11671 M17.2740645,5.9684625 C14.583807,6.3461475 12.155157,7.525035 10.2445245,9.2520225 C7.6161645,11.6280675 5.968242,15.041565 5.968242,18.834795 C5.968242,21.7348425 6.931512,24.4129725 8.5595895,26.5751325 M21.023037,5.9684625 C23.713452,6.3461475 26.142102,7.525035 28.052577,9.2520225 C30.680937,11.6280675 32.3288595,15.041565 32.3288595,18.834795 C32.3288595,21.7348425 31.3655895,24.4129725 29.737512,26.5751325" id="Shape"></path>
                </g>
            </g>
        </g>
    </g>
</svg>