<?xml version="1.0" encoding="UTF-8"?>
<svg width="167px" height="37px" viewBox="0 0 167 37" version="1.1" xmlns="http://www.w3.org/2000/svg" xmlns:xlink="http://www.w3.org/1999/xlink">
    <title>Artboard</title>
    <defs>
        <path d="M79.1757482,16.728 C74.2115385,16.3298226 67.5942705,16.9098226 59.3239443,18.468 C51.0536181,20.0261774 44.4363502,24.4035107 39.4721404,31.6" id="path-1"></path>
    </defs>
    <g id="Artboard" stroke="none" stroke-width="1" fill="none" fill-rule="evenodd">
        <path d="M90.84,24.336 C91.24,24.336 91.472,24.016 91.536,23.376 L91.536,23.376 L91.176,23.184 L91.464,22.944 C91.336,22.768 91.2,22.628 91.056,22.524 C90.912,22.42 90.84,22.368 90.84,22.368 C90.84,22.336 90.876,22.264 90.948,22.152 C91.02,22.04 91.056,21.936 91.056,21.84 C91.056,21.696 90.984,21.544 90.84,21.384 L90.84,21.384 L90.912,21.072 L90.888,20.328 L91.056,19.992 L90.888,19.56 L90.96,19.08 C90.928,19.096 90.872,19.104 90.792,19.104 L90.792,19.104 L90.912,18.624 L90.984,18.624 L91.152,17.976 L90.984,17.64 L91.008,17.592 L91.296,17.592 L91.08,16.776 C91.144,16.664 91.176,16.544 91.176,16.416 C91.176,16.304 91.152,16.2 91.104,16.104 C91.152,15.976 91.208,15.808 91.272,15.6 L91.272,15.6 L91.488,15.144 L91.44,14.736 L91.68,14.184 L91.584,14.112 L91.56,13.584 L91.704,12.672 L91.776,12.648 L91.776,12.528 C91.776,12.224 91.656,11.96 91.416,11.736 C91.192,11.64 90.88,11.576 90.48,11.544 L90.48,11.544 L90.024,11.712 L89.952,11.928 L89.544,11.928 L89.544,12.576 L89.664,12.432 L89.52,12.816 L89.472,12.768 L89.184,13.488 L88.872,13.488 C88.92,13.888 89.04,14.2 89.232,14.424 L89.232,14.424 L89.112,14.952 L89.28,14.976 L89.28,15.144 L89.136,15.624 L89.256,15.696 L89.184,15.816 L89.28,17.016 L89.088,18.168 L89.136,19.536 L89.064,19.632 L89.088,20.4 L89.136,20.592 C89.088,20.704 89.064,20.808 89.064,20.904 C89.064,21 89.088,21.128 89.136,21.288 L89.136,21.288 L89.184,21.456 L89.136,21.96 L89.28,22.152 L89.064,22.392 L89.544,22.896 C89.544,23.04 89.672,23.288 89.928,23.64 L89.928,23.64 L90.048,23.808 C90.176,24.16 90.44,24.336 90.84,24.336 Z M107.959,21.868 L107.866286,21.984 L107.770286,21.84 L107.674286,21.816 L107.674286,21.744 L107.434286,21.48 L107.434286,21 L107.002286,20.88 C106.954286,20.704 106.882286,20.568 106.786286,20.472 L106.786286,20.472 L106.642286,19.848 L106.426286,19.344 L106.378286,18.48 L106.186286,17.568 L106.186286,16.896 L105.922286,16.32 L106.090286,15.792 L105.682286,15.552 L105.634286,15.048 L105.466286,15 L105.442286,14.928 L105.178286,14.784 L104.890286,14.448 L104.314286,14.448 L104.098286,14.712 C103.810286,14.792 103.594286,14.936 103.450286,15.144 L103.450286,15.144 L103.402286,15.192 L103.258286,15.408 C102.970286,15.456 102.754286,15.624 102.610286,15.912 C102.290286,15.944 102.130286,16.104 102.130286,16.392 C102.130286,16.408 102.138286,16.44 102.154286,16.488 L102.154286,16.488 L102.154286,16.608 L101.818286,16.944 L101.818286,17.112 L101.794286,17.232 L101.698286,17.328 L101.650286,17.64 L101.290286,17.76 L101.290286,18 L101.074286,18.408 L100.762286,18.768 L100.734,18.866 L100.714286,18.888 L100.714286,18.888 L100.714,18.894 L100.570286,19.056 L100.354286,19.2 L100.258286,19.44 L99.8742859,19.728 L99.8742859,19.944 L99.8022859,20.04 L99.4902859,20.328 L99.5622859,20.4 C99.4502859,20.48 99.3862859,20.6 99.3702859,20.76 C99.2102859,20.84 99.1302859,21 99.1302859,21.24 L99.1302859,21.24 L98.7222859,21.648 L98.6022859,21.408 L98.6022859,21.192 L98.6742859,20.976 L98.8662859,20.472 L98.7222859,20.208 L98.7462859,19.944 L98.8902859,19.68 L98.7462859,19.248 L98.9382859,18.984 L98.9382859,18.576 L98.8662859,18.072 L99.0342859,17.616 L98.9382859,16.656 L99.0102859,16.152 L98.8422859,15.864 L98.8422859,15.648 C98.8422859,15.296 98.7462859,15.052 98.5542859,14.916 C98.3622859,14.78 98.0182859,14.672 97.5222859,14.592 L97.5222859,14.592 L97.0902859,15.312 L97.1862859,15.96 L97.1142859,16.344 L97.1382859,16.608 L97.0662859,17.376 L97.1862859,17.568 L97.1862859,17.568 L97.1862859,17.664 C97.1702859,17.696 97.1622859,17.728 97.1622859,17.76 C97.1622859,17.808 97.1782859,17.912 97.2102859,18.072 L97.2102859,18.072 L97.1142859,18.792 L97.1382859,19.176 L97.2102859,19.344 L97.0182859,19.68 L97.1142859,19.776 L97.0662859,20.328 L96.8982859,20.664 L96.9942859,20.976 L96.8022859,21.264 L97.0662859,21.84 L97.0422859,22.152 L96.9942859,22.2 L97.0422859,22.512 L96.9222859,23.088 L97.2822859,23.688 C97.4902859,24.04 97.7542859,24.224 98.0742859,24.24 L98.0742859,24.24 L98.3382859,24.168 C98.7382859,24.056 98.9622859,23.864 99.0102859,23.592 C99.0902859,23.512 99.1462859,23.448 99.1782859,23.4 C99.3062859,23.288 99.3942859,23.152 99.4422859,22.992 C99.5542859,22.912 99.7862859,22.712 100.138286,22.392 L100.138286,22.392 L100.354286,22.056 C100.530286,21.976 100.690286,21.76 100.834286,21.408 L100.834286,21.408 L100.882286,21.36 C101.186286,21.264 101.338286,21.056 101.338286,20.736 L101.338286,20.736 L101.554286,20.52 L101.794286,20.472 L101.986286,20.232 L102.322286,19.488 L102.298286,19.368 L102.490286,19.176 L102.754286,18.792 L102.922286,18.456 L103.234286,17.952 L104.098286,17.04 L104.314286,16.752 L104.434286,16.92 L104.482286,17.04 C104.482286,17.232 104.506286,17.464 104.554286,17.736 L104.554286,17.736 L104.914286,19.8 L105.154286,20.112 L105.106286,20.664 L105.322286,21.12 L105.466286,21.552 L105.514286,21.6 L105.682286,21.888 L105.682286,21.96 C105.682286,22.152 105.818286,22.408 106.090286,22.728 C106.186286,22.984 106.330286,23.136 106.522286,23.184 C106.618286,23.296 106.778286,23.408 107.002286,23.52 L107.002286,23.52 L107.146286,23.688 L107.506286,23.616 L107.722286,23.664 L108.538286,23.568 L109.162286,23.232 L109.378286,23.184 L109.498286,22.968 C109.562286,22.936 109.634286,22.88 109.714286,22.8 C109.922286,22.704 110.114286,22.544 110.290286,22.32 C110.402286,22 110.586286,21.8 110.842286,21.72 L110.842286,21.72 L110.890286,21.576 L111.106286,21.504 L111.202286,21.024 L111.466286,20.616 C111.674286,20.408 111.778286,20.24 111.778286,20.112 L111.778286,20.112 L111.778286,20.04 C111.762286,20.024 111.754286,20.008 111.754286,19.992 L111.754286,19.992 L111.538286,19.296 L110.890286,19.08 L110.434286,19.248 L110.266286,19.632 L110.218286,19.848 L109.954286,20.136 C109.906286,20.36 109.802286,20.528 109.642286,20.64 L109.642286,20.64 L109.570286,20.736 L109.546286,20.856 L109.450286,20.952 L109.282286,20.928 C109.138286,20.992 109.042286,21.088 108.994286,21.216 L108.994286,21.216 L108.922286,21.336 L108.634286,21.408 C108.442286,21.728 108.258286,21.888 108.082286,21.888 C108.037486,21.8816 108.004206,21.87648 107.982446,21.87264 L107.959,21.868 Z M117.044572,24.408 L117.356572,24.24 L117.548572,24.264 L117.620572,24.288 C117.940572,24.264 118.196572,24.244 118.388572,24.228 L118.406,24.227 L118.628572,24.36 L118.916572,24.216 L119.300572,24.192 L120.188572,24.264 L120.188572,24.072 L120.500572,24 L120.764572,24.072 L121.052572,23.832 L121.532572,23.832 L121.844572,23.52 L122.324572,23.472 L122.492572,23.136 L122.684572,22.992 L122.948572,22.368 L123.236572,22.032 L123.236572,21.96 C123.236572,21.784 123.180572,21.616 123.068572,21.456 L123.068572,21.456 L123.140572,21.168 L122.876572,21 C122.604572,20.824 122.428572,20.632 122.348572,20.424 L122.348572,20.424 L121.676572,20.04 L121.292572,20.04 L121.244572,19.872 L120.812572,19.8 C120.460572,19.608 120.180572,19.512 119.972572,19.512 L119.972572,19.512 L119.876572,19.68 L119.756572,19.416 L118.820572,19.152 L118.604572,19.008 L118.052572,18.936 L117.740572,18.672 L117.260572,18.672 C117.132572,18.56 116.940572,18.456 116.684572,18.36 L116.684572,18.36 L116.372572,18.192 L116.372572,18.072 C116.196572,17.992 116.088572,17.916 116.048572,17.844 C116.008572,17.772 115.980572,17.624 115.964572,17.4 C115.980572,17.256 116.020572,17.08 116.084572,16.872 L116.084572,16.872 L116.348572,16.728 L116.564572,16.392 L116.636572,16.368 L116.852572,16.152 L116.996572,16.08 L117.044572,16.032 L117.380572,15.96 L117.596572,15.792 L117.908572,15.792 C118.132572,15.6 118.364572,15.504 118.604572,15.504 C118.780572,15.376 118.972572,15.312 119.180572,15.312 L119.180572,15.312 L119.348572,15.192 L119.660572,15.408 L119.996572,15.312 L120.284572,15.336 L120.284572,15.408 C120.428572,15.68 120.644572,15.816 120.932572,15.816 C121.284572,15.816 121.508572,15.616 121.604572,15.216 L121.604572,15.216 L121.652572,15 L121.820572,14.424 L121.436572,14.184 L121.436572,14.064 C121.260572,13.856 121.100572,13.728 120.956572,13.68 L120.956572,13.68 L120.908572,13.56 L119.396572,13.464 L118.604572,13.68 L118.124572,13.728 L117.860572,13.8 L116.348572,14.376 L115.988572,14.664 C115.796572,14.776 115.668572,14.896 115.604572,15.024 L115.604572,15.024 L115.244572,15.096 C115.244572,15.336 115.124572,15.52 114.884572,15.648 C114.660572,15.92 114.532572,16.24 114.500572,16.608 L114.500572,16.608 L114.404572,16.752 L114.500572,18 L114.788572,18.408 L115.148572,19.2 L115.820572,19.632 L115.916572,19.8 L116.828572,19.968 L117.068572,20.16 L117.812572,20.448 L118.148572,20.712 L118.220572,20.712 L118.412572,20.928 L118.748572,20.808 L118.916572,20.88 L119.132572,20.88 C119.340572,20.96 119.548572,21 119.756572,21 C119.868572,21 119.948572,20.992 119.996572,20.976 L119.996572,20.976 L120.188572,21.192 L120.452572,21.144 L120.380572,21.24 L120.500572,21.408 L120.716572,21.408 L121.028572,21.648 L121.148572,21.624 C121.196572,21.72 121.228572,21.776 121.244572,21.792 L121.244572,21.792 L121.220572,21.912 C120.932572,22.056 120.620572,22.152 120.284572,22.2 L120.284572,22.2 L120.236572,22.272 L119.900572,22.32 L119.852572,22.44 L119.780572,22.44 L119.036572,22.56 L115.964572,22.752 L115.892572,22.704 L115.580572,22.632 L115.580572,22.32 L115.388572,22.296 C115.292572,22.104 115.164572,21.976 115.004572,21.912 L115.004572,21.912 L115.004572,21.84 L114.668572,21.84 L114.236572,21.624 L113.660572,21.84 L113.204572,22.176 L113.204572,22.392 C113.204572,23.32 113.500572,23.816 114.092572,23.88 C114.220572,23.928 114.308572,23.952 114.356572,23.952 L114.356572,23.952 L114.548572,24 L114.884572,24.216 C115.012572,24.152 115.140572,24.12 115.268572,24.12 C115.396572,24.12 115.516572,24.128 115.628572,24.144 L115.628572,24.144 L115.820572,24.144 C115.932572,24.144 116.164572,24.16 116.516572,24.192 C116.772572,24.272 116.948572,24.344 117.044572,24.408 L117.044572,24.408 Z M130.494858,24.168 C130.734858,24.168 130.918858,24.152 131.046858,24.12 L131.046858,24.12 L131.598858,23.976 L131.910858,23.976 L132.198858,23.712 C132.662858,23.616 132.966858,23.4 133.110858,23.064 C133.494858,22.92 133.686858,22.576 133.686858,22.032 L133.686858,22.032 L133.686858,21.864 C133.462858,21.656 133.182858,21.552 132.846858,21.552 C132.478858,21.648 132.222858,21.848 132.078858,22.152 C132.062858,22.152 132.038858,22.144 132.006858,22.128 L132.006858,22.128 L131.934858,22.128 C131.806858,22.128 131.670858,22.192 131.526858,22.32 C131.318858,22.512 131.182858,22.624 131.118858,22.656 C130.974858,22.608 130.830858,22.584 130.686858,22.584 C130.622858,22.584 130.510858,22.6 130.350858,22.632 L130.350858,22.632 L130.158858,22.488 L129.870858,22.296 L129.702858,22.224 L129.654858,21.936 C129.302858,21.872 129.126858,21.784 129.126858,21.672 C129.126858,21.608 129.150858,21.552 129.198858,21.504 L129.198858,21.504 L128.862858,20.784 L128.862858,20.448 L128.790858,20.016 L128.742858,19.104 L128.814858,18.264 L128.790858,17.592 L128.862858,16.68 C128.958858,16.728 129.046858,16.752 129.126858,16.752 C129.302858,16.72 129.414858,16.688 129.462858,16.656 C129.622858,16.656 129.790858,16.688 129.966858,16.752 L129.966858,16.752 L130.374858,16.488 L131.022858,16.488 L131.238858,16.296 L131.526858,16.368 C131.926858,16.368 132.254858,16.272 132.510858,16.08 L132.510858,16.08 L133.014858,16.248 C133.110858,16.184 133.270858,16.104 133.494858,16.008 C133.670858,15.944 133.790858,15.872 133.854858,15.792 C134.142858,15.664 134.286858,15.528 134.286858,15.384 C134.286858,15.032 134.038858,14.856 133.542858,14.856 L133.542858,14.856 L132.606858,14.856 L132.486858,14.88 L132.126858,14.856 L131.070858,15.024 L129.750858,14.904 L129.006858,15 L129.198858,14.568 L129.006858,14.352 L129.102858,13.776 L128.982858,13.296 L129.198858,13.008 L129.150858,12.672 L129.174858,12.552 L129.078858,12.24 L129.102858,12.072 L129.150858,11.928 C129.166858,11.864 129.174858,11.824 129.174858,11.808 C129.174858,11.68 129.126858,11.544 129.030858,11.4 L129.030858,11.4 L129.102858,11.28 C129.054858,10.816 128.774858,10.584 128.262858,10.584 C128.118858,10.584 127.830858,10.624 127.398858,10.704 L127.398858,10.704 L127.206858,10.896 L127.134858,11.232 C127.054858,11.344 127.014858,11.488 127.014858,11.664 C127.014858,11.808 127.070858,11.968 127.182858,12.144 L127.182858,12.144 L127.374858,12.456 L127.350858,13.2 L127.470858,13.56 L127.158858,13.728 L127.470858,14.4 L127.470858,14.88 L126.966858,14.88 L126.510858,14.76 L126.198858,14.808 L125.598858,14.712 L125.142858,15.144 L125.430858,15.6 L125.430858,15.672 C125.430858,16.184 125.670858,16.44 126.150858,16.44 L126.150858,16.44 L126.222858,16.44 L126.654858,16.752 L127.110858,16.656 L127.278858,16.728 L127.278858,17.112 L127.158858,17.232 L127.254858,17.616 L127.206858,18.048 L127.278858,18.336 L127.230858,18.648 L127.062858,18.816 L127.182858,19.344 L127.062858,19.68 L127.254858,19.944 L127.206858,20.232 L127.398858,21.36 L127.926858,22.56 L128.214858,22.872 L128.718858,23.544 L128.934858,23.616 L129.774858,24.072 L130.086858,24.072 C130.230858,24.136 130.366858,24.168 130.494858,24.168 Z M144.833144,24.432 L145.073144,24.288 L145.193144,24.408 L145.601144,24.192 C145.809144,24.08 145.969144,23.968 146.081144,23.856 L146.081144,23.856 L146.441144,23.496 C146.425144,23.352 146.369144,23.184 146.273144,22.992 L146.273144,22.992 L146.009144,23.016 L146.177144,22.656 L145.865144,22.176 L145.481144,22.128 L145.457144,22.056 C145.473144,21.992 145.481144,21.904 145.481144,21.792 L145.481144,21.792 L145.481144,21.696 L145.649144,21.144 L145.409144,21.096 L145.433144,21.024 L145.769144,20.472 L145.529144,20.304 L145.673144,20.112 L145.553144,19.728 L145.721144,19.344 L145.721144,18.96 L145.937144,18.768 L145.793144,18.6 L145.721144,18.264 L145.913144,18.072 L145.841144,17.784 L145.937144,17.52 L145.913144,17.424 C145.929144,17.392 145.937144,17.336 145.937144,17.256 C145.937144,17.16 145.913144,17.056 145.865144,16.944 L145.865144,16.944 L145.865144,16.848 L145.913144,16.776 C146.025144,16.664 146.081144,16.496 146.081144,16.272 L146.081144,16.272 L146.033144,16.152 L146.105144,16.032 L146.225144,15.528 L146.537144,15.168 L146.345144,14.592 L146.585144,14.28 L146.225144,14.136 L145.913144,13.536 L145.049144,13.752 L144.593144,13.656 L144.089144,13.2 L144.089144,13.2 L144.089144,13.296 C144.073144,13.36 144.065144,13.416 144.065144,13.464 C143.953144,13.224 143.713144,13.104 143.345144,13.104 L143.345144,13.104 L142.769144,12.984 L142.769144,12.816 L140.921144,12.72 L140.129144,13.08 L140.009144,13.128 L139.745144,13.248 L139.625144,13.128 C139.497144,13.368 139.297144,13.648 139.025144,13.968 C138.753144,14.288 138.585144,14.528 138.521144,14.688 L138.521144,14.688 L138.521144,14.832 C138.457144,14.896 138.425144,14.976 138.425144,15.072 C138.425144,15.088 138.433144,15.112 138.449144,15.144 L138.449144,15.144 L138.449144,15.216 L138.353144,15.312 L138.377144,15.744 C138.169144,16 138.065144,16.28 138.065144,16.584 L138.065144,16.584 L138.065144,16.68 L137.777144,17.04 L137.897144,17.232 C137.769144,17.392 137.681144,17.552 137.633144,17.712 C137.441144,17.808 137.345144,17.952 137.345144,18.144 C137.345144,18.208 137.353144,18.264 137.369144,18.312 C137.353144,18.344 137.345144,18.392 137.345144,18.456 C137.345144,18.552 137.393144,18.64 137.489144,18.72 L137.489144,18.72 L137.321144,18.792 C137.225144,19.048 137.177144,19.232 137.177144,19.344 C137.177144,19.44 137.185144,19.504 137.201144,19.536 C137.169144,19.632 137.153144,19.712 137.153144,19.776 C137.153144,19.808 137.161144,19.84 137.177144,19.872 L137.177144,19.872 L137.177144,19.968 L137.009144,20.76 L136.961144,21.264 L136.817144,21.6 L136.961144,21.912 L136.985144,22.2 L137.009144,22.344 L136.889144,22.416 C136.921144,23.072 137.297144,23.576 138.017144,23.928 C138.225144,24.216 138.529144,24.368 138.929144,24.384 L138.929144,24.384 L139.241144,24.144 L139.697144,24.048 L140.513144,23.136 L141.281144,22.656 L141.401144,22.344 L141.929144,21.888 L142.097144,21.6 L142.697144,21.048 L143.033144,20.52 L143.225144,20.424 L143.441144,19.8 L143.849144,19.128 L143.993144,19.704 L143.801144,20.712 L143.945144,22.128 L143.945144,22.272 C143.945144,22.544 143.993144,22.84 144.089144,23.16 L144.089144,23.16 L144.089144,23.568 L144.833144,24.432 Z M138.617144,22.392 L138.521144,22.344 L138.521144,22.272 L138.473144,21.816 L138.737144,21.48 L138.569144,21.024 L138.737144,20.784 L138.641144,20.64 L138.857144,20.184 L138.809144,20.064 C138.841144,19.952 138.857144,19.8 138.857144,19.608 L138.857144,19.608 L138.929144,19.488 L138.929144,19.152 L139.001144,19.104 L139.049144,18.888 L139.241144,18.672 L139.241144,18.24 L139.433144,18 C139.433144,17.712 139.521144,17.416 139.697144,17.112 L139.697144,17.112 L139.649144,17.016 L140.057144,16.704 L139.817144,16.368 L139.913144,16.152 L140.081144,15.576 C140.193144,15.416 140.393144,15.216 140.681144,14.976 L140.681144,14.976 L140.753144,14.952 L140.849144,14.832 L141.401144,14.64 L141.329144,14.544 L141.953144,14.544 L142.169144,14.664 L142.361144,14.592 L142.409144,14.64 L142.793144,14.64 L143.273144,14.712 L144.017144,15.312 L144.209144,15.36 L144.305144,15.528 L144.281144,15.792 L144.065144,15.984 L144.017144,16.248 L143.849144,16.512 L143.873144,16.608 L143.681144,16.968 L142.457144,18.6 C142.377144,18.68 142.301144,18.768 142.229144,18.864 C142.157144,18.96 142.105144,19.04 142.073144,19.104 L142.073144,19.104 L141.737144,19.152 L141.809144,19.56 L141.617144,19.56 L141.473144,19.944 C141.297144,20.04 141.161144,20.104 141.065144,20.136 L141.065144,20.136 L140.897144,20.544 L140.753144,20.592 L139.337144,21.744 L139.265144,21.912 L138.929144,21.96 L138.977144,22.152 C138.897144,22.216 138.817144,22.288 138.737144,22.368 L138.737144,22.368 L138.617144,22.392 Z M153.339429,24.12 C153.771429,24.12 154.123429,24.04 154.395429,23.88 C154.443429,23.896 154.499429,23.904 154.563429,23.904 C154.659429,23.904 154.763429,23.864 154.875429,23.784 C155.051429,23.56 155.299429,23.4 155.619429,23.304 L155.619429,23.304 L155.715429,23.208 L155.955429,23.184 L156.291429,22.968 L156.507429,22.872 L156.723429,22.584 L156.963429,22.416 C157.251429,22.208 157.459429,22.008 157.587429,21.816 C157.715429,21.704 157.779429,21.56 157.779429,21.384 C157.779429,21.048 157.735429,20.82 157.647429,20.7 C157.559429,20.58 157.355429,20.496 157.035429,20.448 C156.955429,20.528 156.795429,20.568 156.555429,20.568 C156.283429,20.68 156.147429,20.848 156.147429,21.072 C155.923429,21.264 155.771429,21.392 155.691429,21.456 C155.435429,21.52 155.251429,21.64 155.139429,21.816 L155.139429,21.816 L154.995429,21.888 C154.899429,22.016 154.771429,22.096 154.611429,22.128 L154.611429,22.128 L154.539429,22.128 C154.491429,22.128 154.419429,22.144 154.323429,22.176 L154.323429,22.176 L154.107429,22.2 L153.963429,22.392 L153.651429,22.296 L153.435429,22.296 C153.355429,22.12 153.267429,21.992 153.171429,21.912 L153.171429,21.912 L153.195429,21.792 L153.051429,21.48 L153.099429,21.12 L152.979429,20.784 C152.995429,20.608 153.003429,20.384 153.003429,20.112 C153.003429,20.096 153.019429,20.04 153.051429,19.944 L153.051429,19.944 L153.099429,19.272 L153.219429,18.72 L153.147429,18.6 L153.243429,17.544 L153.147429,17.088 L153.315429,16.584 L153.315429,16.08 L153.459429,15.312 L153.411429,15.096 C153.475429,14.936 153.507429,14.808 153.507429,14.712 C153.507429,14.664 153.491429,14.576 153.459429,14.448 L153.459429,14.448 L153.555429,14.184 L153.339429,13.92 L153.363429,13.776 C153.395429,13.6 153.411429,13.472 153.411429,13.392 C153.491429,13.168 153.531429,12.92 153.531429,12.648 L153.531429,12.648 L153.699429,12.144 L153.579429,11.688 L153.531429,11.184 C153.579429,11.088 153.619429,10.888 153.651429,10.584 L153.651429,10.584 L153.603429,10.488 L153.795429,9.984 L153.435429,9.624 L153.387429,9.432 C153.227429,9.16 153.019429,9.024 152.763429,9.024 C152.843429,9.024 152.547429,9.104 151.875429,9.264 L151.875429,9.264 L151.731429,10.704 L151.803429,10.944 L151.731429,11.592 L151.755429,12.312 L151.851429,12.504 L151.779429,13.536 L151.803429,14.544 L151.731429,14.712 L151.731429,15.552 L151.707429,15.768 L151.491429,16.104 L151.635429,16.584 L151.491429,16.944 L151.539429,17.352 L151.467429,17.952 L151.251429,18.312 L151.467429,18.744 C151.467429,18.92 151.427429,19.344 151.347429,20.016 C151.347429,20.128 151.371429,20.232 151.419429,20.328 L151.419429,20.328 L151.371429,20.472 L151.347429,20.856 L151.371429,21.384 L151.491429,22.272 L151.683429,22.488 L151.779429,22.968 C151.955429,23.096 152.043429,23.264 152.043429,23.472 L152.043429,23.472 L152.043429,23.544 L152.187429,23.784 L152.619429,24.024 C152.731429,24.088 152.971429,24.12 153.339429,24.12 Z M162.901715,24.12 C163.333715,24.12 163.685715,24.04 163.957715,23.88 C164.005715,23.896 164.061715,23.904 164.125715,23.904 C164.221715,23.904 164.325715,23.864 164.437715,23.784 C164.613715,23.56 164.861715,23.4 165.181715,23.304 L165.181715,23.304 L165.277715,23.208 L165.517715,23.184 L165.853715,22.968 L166.069715,22.872 L166.285715,22.584 L166.525715,22.416 C166.813715,22.208 167.021715,22.008 167.149715,21.816 C167.277715,21.704 167.341715,21.56 167.341715,21.384 C167.341715,21.048 167.297715,20.82 167.209715,20.7 C167.121715,20.58 166.917715,20.496 166.597715,20.448 C166.517715,20.528 166.357715,20.568 166.117715,20.568 C165.845715,20.68 165.709715,20.848 165.709715,21.072 C165.485715,21.264 165.333715,21.392 165.253715,21.456 C164.997715,21.52 164.813715,21.64 164.701715,21.816 L164.701715,21.816 L164.557715,21.888 C164.461715,22.016 164.333715,22.096 164.173715,22.128 L164.173715,22.128 L164.101715,22.128 C164.053715,22.128 163.981715,22.144 163.885715,22.176 L163.885715,22.176 L163.669715,22.2 L163.525715,22.392 L163.213715,22.296 L162.997715,22.296 C162.917715,22.12 162.829715,21.992 162.733715,21.912 L162.733715,21.912 L162.757715,21.792 L162.613715,21.48 L162.661715,21.12 L162.541715,20.784 C162.557715,20.608 162.565715,20.384 162.565715,20.112 C162.565715,20.096 162.581715,20.04 162.613715,19.944 L162.613715,19.944 L162.661715,19.272 L162.781715,18.72 L162.709715,18.6 L162.805715,17.544 L162.709715,17.088 L162.877715,16.584 L162.877715,16.08 L163.021715,15.312 L162.973715,15.096 C163.037715,14.936 163.069715,14.808 163.069715,14.712 C163.069715,14.664 163.053715,14.576 163.021715,14.448 L163.021715,14.448 L163.117715,14.184 L162.901715,13.92 L162.925715,13.776 C162.957715,13.6 162.973715,13.472 162.973715,13.392 C163.053715,13.168 163.093715,12.92 163.093715,12.648 L163.093715,12.648 L163.261715,12.144 L163.141715,11.688 L163.093715,11.184 C163.141715,11.088 163.181715,10.888 163.213715,10.584 L163.213715,10.584 L163.165715,10.488 L163.357715,9.984 L162.997715,9.624 L162.949715,9.432 C162.789715,9.16 162.581715,9.024 162.325715,9.024 C162.405715,9.024 162.109715,9.104 161.437715,9.264 L161.437715,9.264 L161.293715,10.704 L161.365715,10.944 L161.293715,11.592 L161.317715,12.312 L161.413715,12.504 L161.341715,13.536 L161.365715,14.544 L161.293715,14.712 L161.293715,15.552 L161.269715,15.768 L161.053715,16.104 L161.197715,16.584 L161.053715,16.944 L161.101715,17.352 L161.029715,17.952 L160.813715,18.312 L161.029715,18.744 C161.029715,18.92 160.989715,19.344 160.909715,20.016 C160.909715,20.128 160.933715,20.232 160.981715,20.328 L160.981715,20.328 L160.933715,20.472 L160.909715,20.856 L160.933715,21.384 L161.053715,22.272 L161.245715,22.488 L161.341715,22.968 C161.517715,23.096 161.605715,23.264 161.605715,23.472 L161.605715,23.472 L161.605715,23.544 L161.749715,23.784 L162.181715,24.024 C162.293715,24.088 162.533715,24.12 162.901715,24.12 Z" id="Install" fill="#151857" fill-rule="nonzero"></path>
        <path id="Line" d="M78.7552485,16.1957451 L79.2157246,16.2296007 L79.714124,16.2695771 L79.6341711,17.2663757 L79.1357718,17.2263993 C74.2227937,16.8323312 67.6468894,17.4087057 59.4165185,18.9593553 C53.8790494,20.0026466 49.1012414,22.3267352 45.1089146,25.8981005 L44.6987183,26.272 L40.769,30.854 L47.5987744,28.3653919 L48.068519,28.1941026 L48.4110975,29.1335918 L47.9413529,29.3048811 L39.3179883,32.4493337 L38.4828867,32.7538479 L38.6563071,31.8820401 L40.4470681,22.8796418 L40.5446171,22.3892499 L41.5254009,22.5843479 L41.4278519,23.0747398 L40.009,30.205 L43.9786678,25.5803809 C48.2313775,21.6263335 53.3191261,19.0905458 59.2313701,17.9766447 C67.2898249,16.4583851 73.7952131,15.8635871 78.7552485,16.1957451 Z" fill="#151857" fill-rule="nonzero"></path>
    </g>
</svg>