<?xml version="1.0" encoding="UTF-8"?>
<svg width="941px" height="500px" viewBox="0 0 941 500" version="1.1" xmlns="http://www.w3.org/2000/svg" xmlns:xlink="http://www.w3.org/1999/xlink">
    <title>Artboard</title>
    <defs>
        <linearGradient x1="50%" y1="-14.329275%" x2="50%" y2="100%" id="linearGradient-1">
            <stop stop-color="#FFFFFF" offset="0%"></stop>
            <stop stop-color="#F4F4F4" offset="100%"></stop>
        </linearGradient>
    </defs>
    <g id="Artboard" stroke="none" stroke-width="1" fill="none" fill-rule="evenodd">
        <rect fill="#F4F5FA" x="0" y="0" width="941" height="500"></rect>
        <g id="Optic_with_font" transform="translate(746.000000, 417.000000)">
            <g id="Group">
                <circle id="Oval" stroke="#E1E1E1" stroke-width="0.5" fill="url(#linearGradient-1)" fill-rule="nonzero" cx="31.5" cy="31.5" r="31.5"></circle>
                <path d="M43.2140625,16.5678975 C39.97602,14.0805 35.912205,12.6 31.4998425,12.6 C27.08748,12.6 23.023665,14.0805 19.7856225,16.5678975 M34.2233325,50.4 C38.1318525,49.8479625 41.6601675,48.12507 44.4359475,45.600975 C48.254535,42.128415 50.648535,37.13913 50.648535,31.5952875 C50.648535,27.3569625 49.2491475,23.4427725 46.8838125,20.282535 M28.77651,50.4 C24.86799,49.8479625 21.339675,48.12507 18.563895,45.600975 C14.7453075,42.128415 12.351213,37.13913 12.351213,31.5952875 C12.351213,27.3569625 13.7505375,23.4427725 16.11603,20.282535" id="Shape" stroke="#343BE5" stroke-width="2.368422" stroke-linecap="round"></path>
                <path d="M23.4367875,41.71671 C25.66557,43.418655 28.4626125,44.4315375 31.4998425,44.4315375 C34.536915,44.4315375 37.334115,43.418655 39.56274,41.71671 M29.6252775,18.5684625 C26.93502,18.9461475 24.50637,20.125035 22.5957375,21.8520225 C19.9673775,24.2280675 18.319455,27.641565 18.319455,31.434795 C18.319455,34.3348425 19.282725,37.0129725 20.9108025,39.1751325 M33.37425,18.5684625 C36.064665,18.9461475 38.493315,20.125035 40.40379,21.8520225 C43.03215,24.2280675 44.6800725,27.641565 44.6800725,31.434795 C44.6800725,34.3348425 43.7168025,37.0129725 42.088725,39.1751325" id="Shape" stroke="#343BE5" stroke-width="2.368422" stroke-linecap="round"></path>
            </g>
            <path d="M98.1541575,28.665 C98.1541575,23.4108 93.9583575,19.215 88.7041575,19.215 C83.4499575,19.215 79.2541575,23.4108 79.2541575,28.665 L79.2541575,36.225 C79.2541575,41.4792 83.4499575,45.675 88.7041575,45.675 C93.9583575,45.675 98.1541575,41.4792 98.1541575,36.225 L98.1541575,28.665 Z M95.1301575,36.225 C95.1301575,39.7404 92.2195575,42.651 88.7041575,42.651 C85.1887575,42.651 82.2781575,39.7404 82.2781575,36.225 L82.2781575,28.665 C82.2781575,25.1496 85.1887575,22.239 88.7041575,22.239 C92.2195575,22.239 95.1301575,25.1496 95.1301575,28.665 L95.1301575,36.225 Z" id="Shape" fill="#21269E" fill-rule="nonzero"></path>
            <path d="M106.105388,43.1424 C107.806387,44.7678 109.998788,45.675 112.531388,45.675 C117.785588,45.675 121.981388,41.4792 121.981388,36.225 C121.981388,30.9708 117.785588,26.775 112.531388,26.775 C109.998788,26.775 107.806387,27.6822 106.105388,29.3076 L106.105388,28.287 C106.105388,27.4176 105.462788,26.775 104.593388,26.775 C103.723988,26.775 103.081388,27.4176 103.081388,28.287 L103.081388,36.225 L103.081388,53.613 C103.081388,54.4824 103.723988,55.125 104.593388,55.125 C105.462788,55.125 106.105388,54.4824 106.105388,53.613 L106.105388,43.1424 Z M112.531388,42.651 C109.015988,42.651 106.105388,39.7404 106.105388,36.225 C106.105388,32.7096 109.015988,29.799 112.531388,29.799 C116.046787,29.799 118.957387,32.7096 118.957387,36.225 C118.957387,39.7404 116.046787,42.651 112.531388,42.651 Z" id="Shape" fill="#21269E" fill-rule="nonzero"></path>
            <path d="M129.932618,29.799 L134.090618,29.799 C134.960018,29.799 135.602618,29.1564 135.602618,28.287 C135.602618,27.4176 134.960018,26.775 134.090618,26.775 L129.932618,26.775 L129.932618,20.727 C129.932618,19.8576 129.290018,19.215 128.420618,19.215 C127.551218,19.215 126.908618,19.8576 126.908618,20.727 L126.908618,40.005 C126.908618,43.1424 129.441218,45.675 132.578618,45.675 C134.128418,45.675 135.564818,45.0324 136.585418,44.0118 C137.190218,43.407 137.190218,42.462 136.585418,41.8572 C135.980618,41.2902 135.035618,41.2902 134.468618,41.8572 C133.939418,42.3864 133.296818,42.651 132.578618,42.651 C131.104418,42.651 129.932618,41.4792 129.932618,40.005 L129.932618,29.799 Z" id="Path" fill="#21269E" fill-rule="nonzero"></path>
            <path d="M144.614138,20.916 C144.614138,19.971 143.858138,19.215 142.913138,19.215 C141.968138,19.215 141.212138,19.971 141.212138,20.916 C141.212138,21.861 141.968138,22.617 142.913138,22.617 C143.858138,22.617 144.614138,21.861 144.614138,20.916 Z M141.401138,44.163 C141.401138,45.0324 142.043738,45.675 142.913138,45.675 C143.782538,45.675 144.425138,45.0324 144.425138,44.163 L144.425138,28.287 C144.425138,27.4176 143.782538,26.775 142.913138,26.775 C142.043738,26.775 141.401138,27.4176 141.401138,28.287 L141.401138,44.163 Z" id="Shape" fill="#21269E" fill-rule="nonzero"></path>
            <path d="M164.93715,42.9156 C165.50415,42.3108 165.50415,41.3658 164.93715,40.761 C164.33235,40.194 163.38735,40.194 162.78255,40.761 C161.61075,41.9328 160.02315,42.651 158.24655,42.651 C154.73115,42.651 151.82118,39.7404 151.82118,36.225 C151.82118,32.7096 154.73115,29.799 158.24655,29.799 C160.02315,29.799 161.61075,30.5172 162.78255,31.689 C163.38735,32.256 164.33235,32.256 164.93715,31.689 C165.50415,31.0842 165.50415,30.1392 164.93715,29.5344 C163.16055,27.8334 160.85475,26.775 158.24655,26.775 C152.99298,26.775 148.79718,30.9708 148.79718,36.225 C148.79718,41.4792 152.99298,45.675 158.24655,45.675 C160.85475,45.675 163.16055,44.6166 164.93715,42.9156 Z" id="Path" fill="#21269E" fill-rule="nonzero"></path>
        </g>
        <rect id="Rectangle" fill="#DEE2EF" fill-rule="nonzero" x="26.5" y="241.5" width="398" height="8" rx="4"></rect>
        <rect id="Rectangle" fill-opacity="0.402890612" fill="#6DE468" fill-rule="nonzero" x="26.5" y="339.5" width="336" height="8" rx="4"></rect>
        <rect id="Rectangle" fill="#DEE2EF" fill-rule="nonzero" x="26.5" y="288.5" width="281" height="8" rx="4"></rect>
        <rect id="Rectangle" fill="#DEE2EF" fill-rule="nonzero" x="26.5" y="424.5" width="398" height="8" rx="4"></rect>
        <rect id="Rectangle" fill="#DEE2EF" fill-rule="nonzero" x="26.5" y="471.5" width="281" height="8" rx="4"></rect>
        <rect id="Rectangle" fill-opacity="0.402890612" fill="#6DE468" fill-rule="nonzero" x="26.5" y="386.5" width="456" height="8" rx="4"></rect>
        <g id="optic-workflow-add-l" transform="translate(26.000000, 150.000000)" fill="#151857" font-family="Ubuntu-Light, Ubuntu" font-size="35" font-weight="300" letter-spacing="2.50000018">
            <text>
                <tspan x="0" y="33">optic workflow</tspan>
                <tspan x="266.685002" y="33" font-family="Ubuntu" font-weight="normal"> </tspan>
                <tspan x="277.270002" y="33" font-family="Ubuntu-Bold, Ubuntu" font-weight="bold">add-list Users</tspan>
            </text>
        </g>
    </g>
</svg>